<mxfile host="65bd71144e">
    <diagram id="HIP3nbAZw_EuaXWnEj3U" name="Page-1">
        <mxGraphModel dx="644" dy="619" grid="1" gridSize="10" guides="1" tooltips="1" connect="1" arrows="1" fold="1" page="1" pageScale="1" pageWidth="850" pageHeight="1100" math="0" shadow="0">
            <root>
                <mxCell id="0"/>
                <mxCell id="1" parent="0"/>
                <mxCell id="7" value="http://ics2o.mths.ca" style="swimlane;whiteSpace=wrap;html=1;" parent="1" vertex="1">
                    <mxGeometry x="20" width="760" height="1100" as="geometry"/>
                </mxCell>
                <mxCell id="17" value="&lt;b&gt;&lt;font style=&quot;color: rgb(255, 255, 255);&quot;&gt;START COUNTDOWN&lt;/font&gt;&lt;/b&gt;" style="rounded=1;whiteSpace=wrap;html=1;fillColor=#4A90E2;" parent="7" vertex="1">
                    <mxGeometry x="255" y="490" width="230" height="30" as="geometry"/>
                </mxCell>
                <mxCell id="16" value="Seconds" style="text;html=1;align=center;verticalAlign=middle;resizable=0;points=[];autosize=1;strokeColor=none;fillColor=none;" parent="7" vertex="1">
                    <mxGeometry x="671" y="190" width="70" height="30" as="geometry"/>
                </mxCell>
                <mxCell id="12" value="&lt;b style=&quot;color: rgb(63, 63, 63); scrollbar-color: rgb(226, 226, 226) rgb(251, 251, 251);&quot;&gt;&lt;font style=&quot;color: rgb(63, 63, 63); scrollbar-color: rgb(226, 226, 226) rgb(251, 251, 251); font-size: 28px;&quot;&gt;00&lt;/font&gt;&lt;/b&gt;" style="whiteSpace=wrap;html=1;" parent="7" vertex="1">
                    <mxGeometry x="266" y="170" width="60" height="60" as="geometry"/>
                </mxCell>
                <mxCell id="11" value="&lt;b style=&quot;color: rgb(63, 63, 63); scrollbar-color: rgb(226, 226, 226) rgb(251, 251, 251);&quot;&gt;&lt;font style=&quot;color: rgb(63, 63, 63); scrollbar-color: rgb(226, 226, 226) rgb(251, 251, 251); font-size: 28px;&quot;&gt;00&lt;/font&gt;&lt;/b&gt;" style="whiteSpace=wrap;html=1;" parent="7" vertex="1">
                    <mxGeometry x="191" y="170" width="60" height="60" as="geometry"/>
                </mxCell>
                <mxCell id="9" value="&lt;b&gt;&lt;font style=&quot;font-size: 28px;&quot;&gt;00&lt;/font&gt;&lt;/b&gt;" style="whiteSpace=wrap;html=1;" parent="7" vertex="1">
                    <mxGeometry x="36" y="170" width="60" height="60" as="geometry"/>
                </mxCell>
                <mxCell id="10" value="&lt;b style=&quot;color: rgb(63, 63, 63); scrollbar-color: rgb(226, 226, 226) rgb(251, 251, 251);&quot;&gt;&lt;font style=&quot;color: rgb(63, 63, 63); scrollbar-color: rgb(226, 226, 226) rgb(251, 251, 251); font-size: 28px;&quot;&gt;00&lt;/font&gt;&lt;/b&gt;" style="whiteSpace=wrap;html=1;" parent="7" vertex="1">
                    <mxGeometry x="111" y="170" width="60" height="60" as="geometry"/>
                </mxCell>
                <mxCell id="14" value="Hours" style="text;html=1;align=center;verticalAlign=middle;resizable=0;points=[];autosize=1;strokeColor=none;fillColor=none;" parent="7" vertex="1">
                    <mxGeometry x="521" y="190" width="60" height="30" as="geometry"/>
                </mxCell>
                <mxCell id="13" value="Days" style="text;html=1;align=center;verticalAlign=middle;resizable=0;points=[];autosize=1;strokeColor=none;fillColor=none;" parent="7" vertex="1">
                    <mxGeometry x="450" y="190" width="50" height="30" as="geometry"/>
                </mxCell>
                <mxCell id="15" value="Minutes" style="text;html=1;align=center;verticalAlign=middle;resizable=0;points=[];autosize=1;strokeColor=none;fillColor=none;" parent="7" vertex="1">
                    <mxGeometry x="596" y="190" width="70" height="30" as="geometry"/>
                </mxCell>
                <mxCell id="8" value="&lt;b&gt;&lt;font style=&quot;font-size: 19px; color: rgb(255, 255, 255);&quot;&gt;The Countdown Timer&lt;/font&gt;&lt;/b&gt;" style="whiteSpace=wrap;html=1;fillColor=#3F51B5;strokeColor=#FFFFFF;" parent="7" vertex="1">
                    <mxGeometry y="23" width="760" height="60" as="geometry"/>
                </mxCell>
                <mxCell id="22" value="" style="shape=image;verticalLabelPosition=bottom;labelBackgroundColor=default;verticalAlign=top;aspect=fixed;imageAspect=0;image=data:image/png,iVBORw0KGgoAAAANSUhEUgAAAWkAAAFpCAYAAABee9lOAAAgAElEQVR4nOy9e7Rt2V3X+fn95lpr77PPue97K1WVN4kBEiAJGpJAIkEaKyQEiOgQGLb4BLQN0m1oEGgMURxtDxyA0OqAOAJDEG15GMSBEhBCi0RBOwNIkATJs173ce6955y999przfn79R9zrf0459y6VbfqVFVkfcc4Z7/We+/1nb/5nd/fb8KAAQMGDBgwYMCAAQMGDBgwYMCAAQMGDBgwYMCAAQMGDBgwYMCAAQMGDBgwYMCAAQMGDBgwYMCAAQMGDBgwYIA81QcwYMAnF/TQa3tKjmLAHxwc/sUNGDBgwICnEYqn+gAG/I+JvvX/5I8zhzhmwFOLgaQHPCVYp75PfiIfMODkMJD0gBOCLv8bgHRU7Pm90C1l68s8LXC7yHloXgY8uRj6cgNOELr6E/Lf2i+uH7X+5Ka64RYacLIYIukBJ4qf/Zmfw9RImnCJCEYwpYiZopOACRh+R9sXOWmDUkfC3j3KZpPypV/yJoboesBJYiDpAScIA2nXXiuO4kASzzKHgMudU9uJc/SRHYLeWXsyYMAdYSDpASeETLsqDaC4FyRKrJM9UoioW0fSdx59+h1G4LfGMT5o140I2tYbhv653+L1gAGPEwNJDzgRrA8ImhhgK0lawLGOxg1ZEtrTRd+9xXGsSR7LaHog4wEnjIGkB5wYTKAJBZmgI2CEpbChIIq4givujvrTn6T7nsDRZW25zCYGjXrA48NA0gNODgLBG0QaRj6j9BmFxS7CLsCLjtR6kr7dBo8jvMdC7I9m/WO254pJ1tNNFOuWcZQxESMH1P1j3tPTpcEZ8MmOgaQHnAgUCAZbdsDYb3CKhxmn64xtdqk0+yy8eqahpYuuaby3izoN7ZYRDEdJHo5oxo9qfTdctGssuvWPieT7BiVRNUmqT0SK30xSXUtUJKnYBlogdn89WetSzvkfJ/dywFODgaQHPOFQsiJQAlV9mdPhOmd5oNrxq185sek3lGYvdivHhgoqJAXztBxAlEeKqDs92D0CikuR9+iPkgTX1/fj1l8RdR/ZGwVO5dHKeZTit6KPvreV8U/WOmm3gTmQ+s13W0gMGPDEYCDpAScCJf+4ZPYQ21s3w6ni2jdM0u7bKp9vg4NUBBRSpDQDNdyOJ2mX9a3mmFSk6AjXgAQeuCXW1/eslauEHD1buvX665G1qGBM0OKV0YsfbGz74tTP/d+/8JN/3W8WF9kL52nkNJImOFWO2QXe9KVv7Lb1GC7egAFrGEh6wBOOfmytAEZ+wBYHr63i9Fuk2d8mzcmMpeDeRbARBMSPZ7JVZqJ2rxWXjswlAUej4OPga+tbt34/oHn79bvPVCh0fKoomm8z0d+Ys/3eIGdwFZIECisRD4g8BR7uAf9DYiDpAU8oeporyPU5To2QUWi/OrTNhcVszqKZEjzmhTyhbngnNfgtSLqHHUN6AeHRkvRx62dJY7X++jK+9twAUaUsCoqxoVrcjc6+MtC8V63t/Csl4oJ6dm87hvRNTPdwu3McMOAwBpIe8ISj16QDMBnJ6crTy6ytifWctJih1uQBPEsEccQeO3FZT3Z3GK726/va+j1B9489SfcU7gKxKChiQzGKSKUvD352O/j5qSuYQvTOQ90l6gwY8HgxkPSAJxw9QQcgeBzHeroTpzexdkqIiy7mdARDUk5yEcnqx6PexzIyvcNjPGb9lX1u87OebJODtCkPOqaGivL0lu6PJkU7LUURCYg6WO4pKGuDj31AfahRGSLrAbfDQNIDnjD0EfRa7TvSYsbB3i7VbEoZF6gmCk/d54Z2Kwl3FnY+bpJblzS653rodT+kWHQNiTcJTQ3ogVTVvhRpH9oWU8dowexplJgz4JMdA0kPODEIMN2/zlY9JVikBAozBEMlk1jsuUweLanpxqP7rcxuj9+XfNhlEtZCbYkgNOj4Jio3gIYUug8s4Z6zKYNIHqTsVh0i5wGPFQNJD3hCoYf+YlO7W+OrPL11I12GS6//PgqiPhSh+q3W2QjMH4mwj0lg8dVxwYqsrftMJRN2igvSfNdN90myIKWIaZsHRE2HaHrAE4KBpAc84ej5UQG3pvMyb1LlMqBcEmEC92PqQ9+6FoY9os1tzfWxFhIfST0/Etkqh5UXWzuE5E4wCBLBzOPiJqncw8KC6H0U7Zg5ShoGDwc8bgwkPeAJhRx6DDjIeoq0LtOwjxQrEutGEA8X0T8uIs0uCjtWJunJeTkE+AgHvJkOrl1p0ls5PbzfvuRl3RqwhrZd0GoLYoglxPVI1uEgdQy4EwwkPeAJx7GdfO8LFB0JVA8veLQOxyNwm94qHVxsFSUfV/+52656X23jFsvc5viymaMhhUTylGuCuKO31MoHDHhsGEh6wBOGQ1MYbsC7abKydnC7okPrrCybpP1Ydd5HIlzpd3Vof12kfPz6h1oMgZgSbdvSapuja/ejqe1DFD3gDjGQ9IATQW/Hcz8sXzzJcG4Xund4dOJx1sw70aMfYOyiZ3fPM8WYk9ZklKH+3YDHg4GkBzxhOEY4wC3H1+KdMwJbTpv1pBUdOkTUejhwfjzH0a2rfRlUzwOPKoKpYWLdNRgw4M4wkPSAE0FfAD9Gw0iiYgQihQToC/9LP8HWnUP0VgSY2fewja6P8Je1NPoJVe5w922CJImoDYmIWT+PY1rp5eKbhUAGDHgMGEh6wBOKwzOULNokSSEUQiEBpc2fu9/CP7f5nlrRadJ5qybp0HLHlSg9TPxrcosf/fz2BO1dIkvP7IpjJBEWyVlIQYqJ5JEGwURRYp6YYGk1HIh6wJ1hIOkBTzjWa2A0TSQV3pX4LDJ5Bck0KSCEnB3SQVRWUa8VqHRzJMqMvogRDtZpGH0N6sM1MrotrB1TgXieFHe98p2ErsiS68byvZqs3fJKV9q02MI90Upir3amOmHqExqF1hsWWuDSp77H5bENiseAO8VA0gOeUPQxb48YY2zcmzlQVIKrEKqACrQpcdgPIhaW77gLqatOrbIarPNeR3ZftghLw9taWNzr3jkrsathjWRmJiBuaJ66vN/75rGQi3V4t188oK0wXwizRWC3qeq94nzcLy/QxBGtQgpNnlTAGtTjMNPhgMeNgaQHPGEw6Sh3Tf9VZy8m++83zF86Ty2Tcs547IyLAkIgNmykT4sIiY6IQ1ewqE9ykTxZrfSE6b2+3EfTqzRGk1XKeJ5ENkfh+XmeBFccChrEN6Px5bEgFF070EpJkjGzuTFbVExr5cDOf+imP3N6U+5lJqdoSyWmNkfQKeKeCLZKxxlcHgPuBANJD3ji0Lko+mjagFgU7Tzx04p9ybxtqkVyxhGKAgoRJLUrLxvZFQGZ8K0jX+8yE5cyiIN62hgMPHwgec2UyVlSJmdJXQURzxFyMkpagqRbGvB6ck3imCfqhVO3BTMbzw/Y/lcHci7NOEMtI5JLd5yKepHrd3Tb6T8bMOCxYiDpTxYsy6g9pUdxW1gfeQI1UJcjCOW7RA7uK1L6M0SwRQX1GQKC+i7SzdTiXWLJ4TkA2gZCATf2YGeH1dRZa9DDMkfeVE6iye8iIgQi0WB73JBasl3uFtc0KSwUHEFTBIuIQWv4nK0fXYyqn6sLpS4haReNW0EftpuDUS73P8TSA+4EA0l/MuGWSSFPr5s/kUl6BhwUF0he7xeSvmksdoA1X53i+HSTzgJQakvQA9x82f54pzCbQIrOaLJFHZXTd59h4Z6ljGUWYq4FIt3AXzZQ2HJ9J88GLlahyVFbUIWaa9MHmVTQtGsHfoisk0AdKkCprEGTgVQ3vNz5kaa69HfmxZlZXZym0XGu5OeGSD6OJIoAqYvFT37g8HZZnAM+WTGQ9NMOtyBiX/vs8A2/JBe75UDVk3nrGtB0BfJvhucSbczExg8Fq74xcuOfI8UXtuXOs5IEiRIJjHPyR2dR62tEO8pcG+riNAdp5B/8nSufc9CEl7RSkJb6snbyAiw9GR1R51T0CF4REpQmnA4VZ3bsN5/9zGf/l0b2pVwWidYjjaAJuCrBjcLEcP2Y6blfrMuL/3la3dPs6QX2OU3NGOs0bgRcI63maD9pAxyN/J9QrJd5PcZiePt1edr30P4gYyDpTzYsCXrtphTADUXpzG1P7T3XkUYrxlwuIQjBnMLCYsrkPaGQ98z1PGggUBG0RSQsSbKvc2GizNvItIZ53OEH/uXvfPcCXtKSo9y01lj1GY15vU7m0FUN6JBgRL4uz6z413/9G1/57ZKu8uy7LmQL87IC9iZUyC4Nm5FcqDnDAWe5ES6wL2dY2A6REVh3K/UV/6TLQOzY2ZEnnKhXqfdd8yyaJx3ADv0AlLBevxuWFsjDBacGPP0wDGU81bhlVJzxrp/+V/ltyTeii3alNNc8vZ5nOwluq9rNnaPhy9/8pSd48LfCeqmlxAg4DUzIqScJWJBPNXBr50MAyiovP2+gge9u4W+09FIGWLevfA0AcqKJ6Wa2YbASJTHGKOG7tkd8exCw+vZqcSBHM8ZKa58DdV80aj0KX8owtplyfisCfBzEGICf/6mfIFEwLSa0WoBEgjeMfAZAYoKYMk4NgYiLZRmnUKIoX/Glf6KzMz6+Yxlwchgi6ac7ushIUJR+fpNirXvfTUflmWp669mKxJ9KrTLvO5GW5JaA2P311rRblc8ogKprnBbiLBwSxSqjUfqlOp90f036DEUHxHCU7FgOOJGWSJKuwVCww4HnGvo2dNXkZKJu+gFJ19XUX0sH4OPLNX9U6OSk1Ek+GV3iTbdf6euIYF3p1lxLJPZS0RCifVJgIOmnK/quqNTLwvSCUjJiRWtZuxXPN6ELtB5wyVFSJqwuBnysWuXjQt+hXu0vkUl60T3vfcv6CBFcoZBkhIjQasrTU3UEKF3O4arAf0dK/eY2IlhDJOLunQe7QhmRiDQyJwlHJ2g5hPWmbpncsmxd7PYR8xOGVQ/KBKZlAa4kzc1QaUYwQ3wCQBAFIm2INJobJxPFXBEvNo93kD6elhhI+pMA6kbwSPBI5fsUnqUNyFFmqxWNVDSMSRpIXWTXkzf2VNi/Vne5kYk5AU1/JB3X9FmBx86v4mDuBMk1noM47mkVgTvQ1fJQuudL0l+XXEDFMTwPNPaSERWRhNEit2ClfvaYdPhj10cm5iPyxwlAoNXcm8q/EcALghvbcUbpdR441Rr0IJ+pVDQ6ofWz2XnSp8P3v5Vbnc+ApwwDSZ8wHrPYcCiacSrUYexTtmyPU2mXbd9nbPsIsGDEfrjAtfJemnCeqGNchNKabrAo5t74CfVtxTfi2Vuekq093yioL3lS1/IYohaHKjWUWnLmzIQru/sUbHJjv6nSN2UTWfY0Mlmbh16tRm1BkESKWTxxz9LH+hVaJuMsdWduQ15r3/S6S8T1CSbqw9vKA5SVRaCgkTFjP+Cu5mOcjZdJxQyVfUq5kSNvPcvNcA/Xw/OYysUs1Xg3KrB2fmsCyqH9Dla/JxsDST8dcJg/jU55hu20x9hmbPmUbbvGKbusO3794sSnlwTi3KuHSg5uuiSUBikaGpkAWR7ptcsnT348rIVnqtQ1+UM7du3dDqVDyfH17EqDSlt2d3P1vIqcrdhHtt7tKaTjByA916tDSUuZJQFVaGkMrM3XpmJz/T7697XXbCxj0HmwgU3XzVJaOkEi6w4sdFmNwaGwhhG7nItXuRg/xtl0v7Q6O4PO7q7sQJPo5dLrXQGLMgGFyuJGY5fHCjYpeqDjpxYDST9doH3/PxPaNrAF3NX+dyZ2wJYtqDj4QxNufl3F/L5A8wwgjdU+HLj6L0dx/iNn7Mru9XSJq3KOA72bWnZyMSEBN3tsFrB+4Ucdgfdk1Tcva2TtRkvMjQhd1No1REFWBH0kkgZKgRDh7tNwfa+TS2Iu5dHX7gjkbaxH0uuE3L/fy/wROHcepntQx879wSZJLxV/6+x+a8fUf5YprMrnHLIfGqvySr42PLrOgodlkNu4ex4RroxSL1coY9vlGc3vczHez1m7fCnI3p+POvuKFOJzGlM1ioeQ5t+MuPFDZ9NHPzy2Ay6xOrcG2AeMYmnlhFvEzo/nuAc8Jgwk/aTjMBWtxW4Oapmct8m2tYv+ANt2MCpS++bCpv+H6OzFQoNqdk0QubuEzxmbfu6WXHmLFrsPRbmbRSiYhSfA4XFMHeT1NOpN5bl/7KPMft8RJVKQyXSdlIMfT9A9JgX88A9/o77q8z8vvOJlf6p0ze2ZSB5YLEN+LGTVzrlCSlmKN8ukHiMg8PA12DpN+Zu/8xPF+371V+yN9/0DOyx1rEfPBTlqb8mXIXTvR2BB02UU6lorcAuryMbntzrbx4bcgygovaHiBufjA9zdfogz8YFnoQf/EG3eWBJVLevvwe2uyprPKth/wyiktzdp9rMXoImsMkQXgBG7nk9uiG7lvhnw5GAw4ZwQ+tI6P/Oun+nesWyLc6Uv55Mz6wxhjoQpwRomsWDH9jnD/ZzlMqfs5vO24vSbrZ3/zx5n29H3cW+J3mIWKbSgSMYoGSbF998M22+9Uj2r+UTxYq6G5/Gnv+abgBLcltXeHg28i6R/5l+/q3sjk1GwPoLtyDgsUyPo7YB+KGoMREprKJgx9j3GtsfIZwRv+t2JqY0dzgAXgbuBexG7F4l3Q7xkqbnQNvYZqU3PjG3C2oRqRVmdoRptEaqS6BH3CN5i1hBTQ0qJ2AIxH0sRIqMt//h4nN4v4rtOddnZeRC2HxRGDwAPgV1V4h5Qm+BJChY6xiVSyh6RMbP0XGoustAJiXFX4l9X9jf6xqy7TtJNpdUN6vZX7Mu/5Mu6a/Wov5olAgXv/IEfZiftcpd/gIvp97iYPj7ekmvfH6v5X3IxsAl417Nx5dTZc2hR4aHab3T8zkZ2vrvWrY83otzkPNfkBUz9Eh62QEpEqzyvYyFLr/4SYrzxi7/4jo9/wKPDEEmfOLpOtHQ2OaqcIaYRsUQwpbTIFlcYpZvsxMC2TdmWK+WE618y8v3vEJu9TGNNG2tS2qNJc6LnrnRMwtiEsjVc+HOh2P2VsTU/MSmFrWBspU4iuMPmOK1Fh7JWm0I9R1jiCcUI3hCoKenIV1aJNaFzp5ReU/lBGHFwtrLZvcHtBXjxqS68qJXm+UntXlwvgO6AjvLkgFk2CMGRsaJVjseFAF5kW500tD6nVANLuDQQaqSMy+9Au9RxcSNo+2ylfjYOkYrOye0uowWwr9g19Xi/YB9W44NG8buNVr9vGh8o2buZGKfCR1Q0tF7hVH0OOUmURaho2CEx7r5/XRK2SYNLzg7t50O8U4LLvZMbTHiQM/YRztjH2PLrfyrowVeb1JgI6hVqKyGn3b9GUVWEanRqVE7eomHxaqi+04ri3409xrNpRKCl1kss9BQmBRbCspeyUZ7A+3MYVOuTxEDSJ4bOKOY5C8wk4mqYKwknFgdoEqr6NNtt5C67n534MXZioiI9i5DeKjR/Pll7OrUNqZ2R4oyYaswWCDGnO5viqSBaQNVOlV5/+7j56H89bQe/32rDGWAfY+G2kUZ9O4gLrjkAzVU2axRwKwipwqxCXSm8JXhkzAET22XLrzL2PUoO+kh5rK73AJ8mzssK4kuDx08Vt2ep6xm8KpOCWE2SuErP9qo7kiYn9LhBUjyVuAsBBy8ogBAqyoIcSZNAIhIaQmfPExFEBbWuYTFfTg5buuO0RBaSPI3VdSzYJSV+WnCjzJto28ANN/tE4fV/S9K8r8Tf18rl3wV9qDRbjOIUUGZ6mht+F1fKZzGXi5iPUauy7i2G6gyThiRV1q8fR6afAOPwYcZ8hFI+Aex+msv8byJx0kf0SgTRbpZzcDfaRUPTzijGjchWeoXq1o+KVz9Y2fXvHbf1g9u6xwPBWWhJU2RbZxEihQFWggvqa3LWY+ihDXjsGEj6yUBfAMiskwlaCptRWMtWnHMqXuWsX+Vs2i3GFv+4ePxbyfwVyRdiscVjTYo1qZ3jnmf8oJvWKXhXIVkqDAjOS0fON++ka9+wSA8vtoAFRsva7CV3AMUoLVJaTZ7XBEo3Kl9Q+Yyx32BiN9i23WLse3eXPvtMkcWr1PkcEz7dKe4GRpuDlyV0jY3RUFjbSUJhdeNLA5LyQCEFaFawVRw8IVbjtCQzAimbqyWSE7fjsg6IiORoGs2E7d330vmkg+cBsz7FPKdX50Kj4pRl4hJwSdxe7lJ/VSGL2kQfUucDlS3+U9XO3wv621vh9MOBJiWFqdQYY+gaNBOjtYYogBeP2zVRABN9kHH6MPDgJISDbzXn05fJNt5JURJXtkWHEApKBazG5oZUi7MFp9+q4p9XUn9ncP/3p3yckiXE57R+Ck1bqBWYN6hJ/o4GPCkYSPrEkV0VakVOwDAIJEaxpWivshV3Oc11Jr5/d6XVN0obvpYUz4V0A0v70M5xi6gJ4olkMQ+cQfYYK/kmFF1Z2hJ/ZpT4lTKlHyvpO9x3AKeTCYwqFYytZsv2GLPL2HcZsUfFgtLiVuHxhaXZ546SfUEw+2yheLaiYyNHkLkiXVfdbulsWAALTHKmnEmneLqSh7Ly9euhHpHjutYO7rKqnmdd5I0tSTpnbCaClmsWjvxZTqz2zpHBMoUa6VLuJfdYMrHm7n1gOlbseXjxPHHegBVz0I+NaX7jLFd+eWT1ry30E/89CXWSgiRKLaeZxnup01kIFalL779Tsg7ADleoFh9DufbVYSx/ilSQfJUojnfNczePpLkjqSFG8IVDMULTNpWJesXneRj/uMj8H56X3//+Lbt6ZeqXaNIzaexTsjQkDSYRI+EUKDZY9E4YA0mfMNwddaN0y6Pwtkdp+4x9j1G6zLY8HLbZ/4KRtX9LaT8Xb5U4JbV7eLyJWJOnheoG7jKJ9anRa2nV611OZ2JWfHNK4f8FPrae4nEUa86Pfnqq7p3C4Gx7lUBDlSJjP2DsNxhzlTEPbpWy9+mVt3+sNPsi9eJlwfSi+Eg39FYxfDnDtx3j6LOlkyDY2nve5xWuX8zsFFlinbBt+W9FzDjST3Lb7zj1WXVZp3VdDW6utFbDxTCM1M1/Fajy+5ovY+jzw936c90C+1Sh+dSRN1+lPru8lfj/XPj5pPpLrRS/W/u5unKlloYmjVnohHF3RuuOktXzzUG6lR6cPymBqrlJUd94oQtv9dLH6xEzgEg+r34iBXfHRbrUdoG2RpLBIsK4RbZ3LozK8G07Wr2m9tnbttv4H6bitvCSRs8TBaIrySOtVhtWvQEng4GkTwyZVD1FlERFzTbX2eYhJtxgrDWVHVwq7eCvBZv+VbXFxSbNoJli7QHW7EFcEJaTaWcniOU0xBUM8AL1AhEnaaQF5nbmM6Zy6r4Wfihxq2itm+8POo07ZSmjs8VNgGc2H2TseyiR4E0ZqF8QmH6RSvPGgP4RpTqPm+B57Eyl7dLSe0dDXCNmXToNxLrucp/KfSijbXm8R7rV65l9a2/Lmpgjqy0crcmxmXwih/sZngsPRe2j/1zESC17/xZFblQkjlAje6Sl7f4ippGkaFK929AvxovXC3p1nPj1ius/e4rpL5pXv4+P4lQvcgGYspbh2P2tkt2LtU/ye7md6MSZaUSn8Y1e8KmpglJ11SNZumxso31OOO4CksunSooUcY5ag3MDqi0NzakvqMqzLx4V83+wVTz0j+uwu7vQM8ztGSz8HAuJ4NtZauPOewMDbo+BpE8E+cYXDLXsepjIdU75w+zwMSZ+Tcdmn1dK+zaV+nVuM23aGSlOSXEf0hSzJvtgYS0JxVc1k+kfc8SahFUxNqloTaS1xcv6MpuarRgdr0lXKL8np0ggE/SoW74AdoAL8WNM7PpFxP6oSfwTiL0O7J6+9Jr0ljLJNUb6gvt9JTrX1e1rJvQ19lfd8U0StsN5h3JYST+qrOvhngTc2nGwRtorx8vasqLLY19/33qXS9e9NzTPjSt5HQNMc6S9mfRhoqaXgtsbSm9eL8zuD8a/Fy9+qrL4q2fhWu+97mubtMvHyLKBXdbV0GUCTwHQLEQjLysUygRF78cuj57vOkxWfnd1KGizDFK3SJxAMKQKz9gaF2+vWPzRUpu3jWTvP5Xge6kl+Qwvzi1940Nm4slhIOkTRMAo4oyJ3mSbBzktD7DtD54b+42vL0h/nZSeQdNgbU1sa9p4AD4neKTQTKxuh3hMNx5AjFadRXBclLPhDLNpg7UzJN4//uWf/pPcCM/imr6Q/XCRRrPboGpLSgOROQUzAjMq9hj5HhUHlF4X2+nGi7bbB9489oM3O/YZBiPvallbH4GKbBzcqoZzbjxCqlafmiDee84iIl0UL4L3z1PC3PPJi9G7O1RDd02PSjYK2OGJEW+FtdVFstshP9fuMWAC42XGZb+TBW5CYZY7DrpZdCnLJlU3r6EiSxl4NVZggqoXz06iXxOs+NOFp998z49+3U/WoXhXKma/16qmWic0nKXxu1jIaRoZ02pBGyz3mKwiGJTUXEi/T/2+HxR1xhOBLYNxdx0WAfrOivtmAlJ/8uqCIIh4lnKISALzOdKOkLSPQyjYvm9Lis8sbPH3VXb/Sd3Mby7sFCZGRdfbAOQO0i78duUHbwORx77Pp9P+Hw0Gkj4BKH0peihszoibTOQaI7/6GZXt/r2C6X1ggRRJzZxmPqNNDWZdt5nlOA+Qs+b0mN+C9d1xdWIAXDmYJmId0KahSP7hkKYIdR4Uc/CQEz6CwSjVVJ1dLv/NqPxga2TTVwbqrx77wRtKn90rNB3dZALSvhvuHGlB1mf0xnvdvPNX9xdlibjUI9wMMwP3XLTJLA8Eao17Q3TH3WktP5r1ZVrzlvqb7VaTyq5fs/7Gkq6mcv9aVQlaIEWBFF0e5LJKnILnoTJ3x7U/mf4zXb5eCjLHHEsfwbowFprPGbP7isL5a9GnPxtdf6y07d9oqBfJGxbk+RNrJtSMaWWS60dr96NwxUxNi/Bh00Q08kiyGGpZIOnOrLCLxxQAACAASURBVN/76ptaDlP0mYUrBVzMMWuxNM3fhURUt+8tvfg/Xfdfu+3NtzTW/q4tRpRA2w9+DqlxJ4KBpE8MueOudpORTqn05vO03ftB9fbVbhGPC9qmJjY17jltWtVBdJkEAuT7SzYnxZKuaFImaDAJiOUo6+BGg8dAYeNrY538onABl/Mo5yl9AjSUMuOU3mCbXbZtN/uavT5VWvxjpcU/J8QvUOxM8BZQolZre9/s1spacoN2hL0kagzpVdZ+gNNSPnjPj+6eJ3C1hJvhFnHPBJ3LkrY4ba49Yo4t18nSz/KYutePxmbo2pO05Ci+e50AU0GLAkYVKhV4hVPgKrmh0ZDtfCY4BcKIvmypCQTXrlJqrwMfFQFMOznIIyqNBLVni8e/os5XBW9+Ycz0nfi19yS2pq2Pmfp59vxuDgIs1IhaEFxJUpE4ReTcu/d8/69OF4szZ4qaSRWoNBA8l7bKM/mwSaJrqekm+RtcTprb0YJ7IqYpbW2UAlSUoUxfvl3J2bat/sxssXf/MqV/IOgTw0DSJ4Q+rip8n5I9Kpt9fUjTV9tiPyelxAVuTSYtMQrt18qxmJBv8s3u2Fp6mpJlB81p5ikaaMGN+T5lsWUivNPD+NcbuUDiAoUXbFGzbdep2OWU32DbbjCxG6crDu4LHv9y4fYaEbbyDiwX9pSQg91Oj9XOhKsdAeVALOU5CvvPl0cbwRvWCw0t9q7nZBJSlijEEOtJOQ9Bydr+msU0b0tyMaagq8SMjRoi7o+6gJT7WjStksfVOqKeHbRoCe1M0TBC2MIplr2Ws+cvrBFSBV5uuG16B4t5lrtyKjVsaOSdZ9oUIPbFVFHTs0HqPwn1F6vzHkPfkXz87tJnB8GNymv2yzENE5KeZqEV9ehuZnHxqyE2/1TS4n9pW2TbjJ1UMgpKKOhrbOHrxNz9rkJ3HVb6/LrbJ+IJaI0aR2NEypawXbxuK4z+QsXib/d1T9YbzFvhVlmvR+P8AesYSPoEIYDqlEqnd5UW31C0DXF+E7EZYt6xhSH4WkYYa3YrljrHioByDQXXPFLYmrCIiUVjzJrrpLM6XXjzDpH0d2sp4gGXqO0cBTO2uMEW97Plu0xi3KmsuS948/UKrzHRcdsbuZfI2WSKE8xzWjg5qurvN+lHArtj9hiJ3Z+3czTWSCfl9ORr5uiye23dnlZDoZAlEvfEdiFLQoFMfBt1jw+1Ybcj6lVdEVbXG5Yh+HYlmZBxiA1OV2+jizZvXpkttyOMKMIZRtU2RVXla1KU2XkodNWr81fYE1Tvs87OmvXrnG/FkBNptsHeoMIXQHzPxOM/Gsf5L5yRh2YHPmYvXOSGPo86jHm4fCaJ1NzbXv7OyvaKOXzNzbbcsjRmuxLG2qXL96fd9UL665Skv97dJewbQGKWtkxIreN2QNu0eNkgUqLjnTftTMY/EOB6Qd8MP/LFP86r349z9p//QSPq28lzMJD0iUGgq/p2QCGLu0pr7tEYSXGOeI10XVAVzzqpr9brcVyVUFEnGcSo1J6YRqNN0EZhIeMPTKvJ32mL0U+JFYuUznDJjVNpj5Kaiqts+QOjse99/ijqW8T5Qlfbsj7ZRFdEqcvGosts7LRbRXP0T+6uYy30OrE7qW2JbUvbRtQaJLVZyumiZjwT2Eaxp42GoXcxsNlYPWlw1Pvo0hAaAjkKXX1PmuUmb2jblhT3qWJFVVaoZ1tFvp657oWHAu0kK6WTHrrp0NaJetWDWH73W2CvD9SvHVvz85Xs/UCRxv9BaRqjopbzNAQO5Azz8OyrhZT/G+y9t43tt87RFymSeyyeKMN6FG2EjjJXPbX1H1vuxeXoOM9mgxnm2QIqixlU6ZlbW+GiwvXDSsqtcLj67eEGtVf5/6AR9e0wkPQJoP+xBUDaOVtVS0XyFGuCx0zMmi1vDl3hn+O31UdgakKh4Op4guk8st/AgYEJ8yDjf1GXl/7ubnnpQ9NwFomnmZhxNj3AJH4EsUIL6pdrMfsGlfjlhp52NUytIyNW9jhfHZNjmWQ9djqyrUbEJDI7uMIy7TgzF5YS1lXdU1bEvJ7Mcqsy1X18naQniNWFEcDWuuzqbNQjebTa6IamLpsTZxl+qNHoTYtpLRJMXY8HXBpSgvkcYiwJoVqen2lJKk8Rqh2KssyNnFi2Pvpq8/k7bjr5A7xz1vfXwsW2Cc2bhfgFI7OfOA0/UHrzmzM57x/3K7Q64aHixUzTXfNz/oEf2bLLvx5j+rb5In5FatOobaEKRlmS5Y9jr1GXyCTOcqaWrJEs5RjBKbzL5vRI8M2h0UeT1boekBxe5w8qOR/3daxf2IGkTwhdYhoeI+18+pAG+4SndIne+dHfnN2Ptv+xuq1cGw7EjhdLCagUJInMcOqwzZWm4VqTDhid/d+r6q53up6rjTGSRl2SyoyJX2XHZs/Gxl8L9hex5h4034BJDPfYEXGOrgopuup2eXDPPSJEUqzx2BDbhhRj58SoQWvEsiPF1hwWfTp6/xqO3qCHibqf73C1wGaqRB6QY93Strk+t+8+bq6T1f9NpNWg2iGv9UZD6quor/e3WNtCbDsHCSQJubMRWygKinKEhAKRgGpO6olJKTUPTJrnbyJJJ39ILwLFrMm7nQ00f2lsdl/JwQ9Vsv+O07b7YM1FFsVpRCYU6W5G1eQDi8BfbtqD3wjN9e+apPnWdmlMcLaDUmqer0Y1dDY8RzdaLlvp5ghIp5tL6n5XETx9NDXxyprH5VEN2h7+ftZfHr6ejwbit/nC4SgL+rFP7wiPd/9wvCYvrO6PgaRPCH16b9sI+3Vz9Rnb8V14erkmR0J2ZXRJX8sZQ8zoBgs7M0RnbUoWcB3TpIJr+/tcnRvX6sAHL2/xYz93vXr/7pX43X/3K2ufXuY5zUPcU1zlRtzllS9/2UTb+ZstyFvR9qWISd6+4DgSEyEYeMqShhoqKR9MWkCKiLdYqkmxoW1qUrPAPK5qJUs2cot29evE19wdmdgOk+kqIWeTBA/lGuZrgW9o0ipp8zd/u8h5uWqf/n34w74P3n++vsQhCWDt0bt//bkt07D7tRzUDLMpNHNchRalkdA5RAJIQTnaRqoJWoRsDZe+eYuIF6hoTjySlRBQePPswpu3Ba/f9Hkv2vnu6/ODn/nYjQfq3dmYm/pCGtkh7GzN/sZbv8eee4nyj33OJV71qRcppp9gZ7bPhdMw2dI8aYKtelC5cd68bNp5KQVwc1paBPMY7acXvrj5Uz/+bRyUz6QJpzAZrV26YySsY3DYZ7x69Ujrr+LvIz7nYxvYW69/1Od8HGWe3P7XA5WNNQTwgi/9sq8cSPok0Md+LTD3CdNUcrO+/o6J2X2VVq8Wm9MuR966rnHHzrZG0FqVbFU7LFLBbCZcvt5ydbHDTd/h3/zq/fzn/wa/vUc1Kqtv+ca3/dCvf993fN375Obv8PKXnJLy1KmXqtz85uDVl7kUW7kyHCtduJMuJKX8HPJgpkZILbaosdjiqSamBW3bYh7Bcv3o5Y+7K8AUrE8G6eWB42/MVSRla72JdXfE+lXs1ll7V44u+MhYLrvurlh/Tw8tdyv0NsNuE+6d59mPNELrGaKl5etu3TRXTlpO/uCiNG3EqwXFqCKUIwhOIYJ2mYsb8g6rCn1C1JL4isJ458Vx8ROTZ4//ryvz0+9//8cjV+rAW7/1e14Z4W98/KMUH7p8hd/64BXe9NoX8sJLd7GopiBzKpvhlhiRo+DC19TltXPKUXQXMbsRo7+nnscfmYaEbQtBl36kboXNbM11wjoi6y1J0pY9SukDgI11+8dNUcWP6Ga9ZnRovbWMzY3dH4nbD5H0Ce6/d/70m+jzELoDW2KoN3gCcFZdvze84XVMqoQdfHR/wuz+yu0NnsKW6zYmVVZdJWd+9RF073dwGTGtlfuv1DxwE/bCPbzvE8I/edcneO+H4GOLrsbGeOscqb74n37hvT/397/lNaPR/CNfV0X/vsrCa4RQIo6QEAyRhHqbU9ZJYA2eEpIilhZ4UxPnM5r5Pm19QGpneGpIljVpJReMynKOd3/W3WvZpXIcQatnTdNEcMnp4i69GL+6c3uekJ4v+oFGYVNLPdLL7AWm3rnb/9iP6Y7K+l93DEdSwX3tb7VjF8/umrWNCV0NjLWjWNGddFtbvSsIvuxxRDy1tG29nIcyu2iyw6Lw3gljy+sqnZ/epCRSlibFS4tUvH4rjJt7n/GM3/mLX/8Pt6fG9/qIVzQR9iI8/DB8/CO7nDt/L6pbNKnFraWUPAWZ9tKP6PLiCysXTk8UUcqHF7Lzlmk69/5aztBUl7DiFEmq7neczxRNq2u77Ffm38v6tc178pVbyHVtGZYzBC0v8JGmXA5dcNlc/vDjoeXliJIuyy2f+P7petNrq/ZXIhO38uM//lNDJH0yUBClJnLTt5n4FjDhVKjfHZx/RFp8K2FbNCgWyJJC9y25OZgRU2R2c0btEzyc50MPTvmV9/8Ov/Z7cHkOew6TyQSv56TZAQJvesPnb31Hmu++IO5df9O5C6fLXJy9yQV1gEI7QTdYngSQhLfznNlnuQyqx4YU58S2gdSikj3RfcZjP6CYD/eoZnu4lGjfHcyPXdbhoxnDP8ytG7JFH63o2nvHvMZA683jvK2EeIvhL9fuHGRje74Mo/v3ZW0nh6MsW3667FF4ln0kQawdayNajJFijoSCIowIRYUU5TJJxrr1tM9wNKVM+imlNN8XwsOv+5/+CA/+i9/gvjhf7fk6wn++7Fz/l+/nvs+7m898UeBZZ0t0K3/320Wm4qC6HBgW8WzFS1kCk0AKxvenWLznhp7iwM+hvoUlyRmL3aUzsW5qzMNR6DGXZOkz6T727juQQ+s9KdDVb+gp2H/fkzjcMxsi6RNB/kUjiS/64vsQNUpZUKg6bu9von+OsfM8LbeAhkjCvAAt85zaTcu8TuzPoCG0l6eTX/83//HK1rt/m8knWpgpuBfQQvLIBPiTX3SqeMufff2rn1HYi0+NJgGL5Gm1rUv5jajk11gLaU5b7+OxxuIctwXYgtRM8VQTaAniWWMm11tWMmHnBIYcQatmApesoRCQ5aDHkqDN6es6JFPccpahW3bzLSeM7Ywj1gW0bpAnACjAS9wCbgWW8mw0bgpede+XuHeP3WtLjiUnRseT4pa1YKFApMiPh/4CAe3+xBRMsGSY5QhzpWH28Y9uPM9yz3qolD9fj6Pprmlu7Hz5hxnepWSnuMg+bY9g2ave94a0s0KqBJAStZIqCsFTcPZe8tznn3ulxevFAw8mrOikDDuNU7CI8Lsf3uOBh/Yvf+ZL7vntYM3dkloFwVyIrrgUuOYsGCGQUiKJ4867JaW/Gat75/dv/2Gub/0hUthCQgkU3fhKvgYuCelzALDVOR7qoeQCYv01WJdbumU6i+qqB9PlCXR/ckhuyD21teWX6+VAxWW1ft7bYTHtydu/C8vSwP09Q7f93JgPkfTJoktYMB2z0DPMx8/jWiyJMT5cqL+9iqMfP93KXUURcuade07DbSOLuqVdQJN4aB7j93z88s13/OoH/Bsvw7f7GKGFgshpIs85C3/pq17Fl7z+s9iyGxrmBXnqqQjSZj+yOJYiHo2iEDw2tPWcNjaI98tkpwe0eQDRu2jIZS1a7Onm0SP3DBxUEAIhZB+xaEHv4Op1PTPDUleov4uo9m7movUpdZa7ntS77HLzTObuq8E7YCWRKLkhCav31x8vXJjgntAuk9E0z/oiIvk4JHbEXOBmdPVJu70cE3V7L53cCrZWfXDNE06nR3rELSeSpLggxZpQLEhxRFWO0VGVGy0pQT2nawv5+rpDM5OXPP8Z8g1/9gXc88zf5p/97Ad58AYkndGacp0WDaSPXOV76nDuHTeb2V9h0b6lnbWXqpAYjZStkVNVEDwnvm+NzrGweP/eon1749u7e9zFTc4z1bMg/YAxqIRjOiqPpOk+spejLxV7UrCeqG/Ruzrp/T9aDCR9IujDQKiKAtXTHKQSQsVi3OCL9pfHUf/2bN5+17bOT6vNiUkxS7luTiKp80thxNvGxc6vffjBG7YLP9DCa6l5HcDzTsPLn3uKr/3Kz+UVn/EcJE6J01kmo1DQF/wxEkpLsgUpLvAG2npO09Z4aglB8lRUGEGcwtMGBWWiWv+xHv5F55vMzdGw8v+q9xFzx56pqw3RDTD2nuDZwYL1G/fy5Ww3y6aCtJQzzfrjWe05T6nFyiEjKxkhdcumBNFXrw/j4Posd3y6oPjCxTGrwZ5IUThVVRDKnHxyxJFyJCknn/eKqDeNaZJTETe3sXzWDWR634hkicXaGalt8KqlslEeYNSUZSvtIvkQwAVNgZBaXnTvNn/hiz+bl73gufzw//Nu/uP7IzeAiUKrvPvhmh/85ff+1u4ff+mnfNfpcuc/NM30bamevaZpkjaLxNbYGAehSQtu7s12H75h33HFw68t7v5sfPRSaj1N8FwRMHlApEvSWXcuwDHyxtq16AdhZf29o+6KjWB1Y9ljSNRvvfzTcf9HbKTr91p3fANJnxS6C1xqRTLH2EJCwUL3iMXCxGf/uEnt/da0bxklf5mTthctbZ34CMqPjkbn3rG7n67+tw/fYLeF171GL/+7/2hv3zde/Pwz3PXm172Ar/zjL+eZZ2vG8QHSHEYqCJ2koTlLTHxBSjVuLXjLfDYltQtSimC5FkZfh+Owr/noOR2NHJdaMwKuhLCaoNRIeLJOwkiklDiY1eSude7uzma5G9hHxH3Wd4JuBqvMntolHZehwOmnyTKkawwgO2OW6RXdoWrH4JK767TrcwPo6obqNfcbu3UOhrv1ywqqqmU0ihCUsiw3bqxxpaso3GK3H18R8XFR9aFU7B4rC6J202ploUo7DT+1ieiWdeswJ+gYKocQIYxBoQwV1jbUVz7CGdnmdZ9xD8+98BX8s3/7S/zTn92lCdwfjbf/4Zewe2PqnH/Oq8znu7/k049+wOtrXxtt/6to7Dlx0ZZ1wUFs0385aPk+ti/92+1LL/X9nc9mLzyTQkoqcm2XJHkMRnvBXWA5WYH357RC/0vLZ7U2UOa6LBmL5PUdlgHPxhfb7YrlrEWsbWftOi+v8WobT+3+leP6FJsb7Z/3E3IMeEJxi2EnjAqloVAYCYwTnAPe+S1bp3fa+Qtx7qpNDsYXz/9eGt/zsJWf7gu9i3JyDkYNc/0Qf/Zrflo+61P4e1/06k/7pi/7os/k4k5DZfuwWCC2lT2+EnFqLE2xdECKs2528SxhzPeniMds8euOreqlgP4c/FCUsVau09a1Zu9rjmSSUlWKUOX6EMlpmobUGLFtaRonRqjrLFXguR6z+6ousxto0UWPoghhJbeYI57w1K28phTkY9okPdH8oassSbQ/3vzYD45JN5t4djKkjuW1IxsNOUjVspNN1jL2ikIYbxWMRiWhKFZzLHZJQOtWtOW9f4iYj6uPvbzu9H5ZJWlv2ytBc/aihJIyjCmqCTKaQFGAFCQMSULykmhbWHWGB/YbfvE33sdP/vyH3/b27/qr35kjxtNM0yXOlC07N36V6QO/rmE+vbtyf6FYNSlC+dCibH5vn9MHN+RF7OrzuVY+i3kYg85AIt/2N9++POYjVsn181l7fjzlbdrR8JXiv7699e08FvJ6uu//cFO+vvwQST8JWJUSymVrHGiLHACdeuHn7m030//qvoMmZaHOIpyn5rm4n2J2MONcWXO2uMm//bFXvvxC+fxXFa1BfJhmfx9VY6Rl198vIRjezJjPrtMu9sEXiCZGRcA8ESTlAauemHt54hiiAzYIeukVVslZc2ueOLPsTGmSsahb5vM5TQ2LGtqWpaZc9A6vbl8mXczVPRdXEgFzRUKJFiNidBbNgtS2VMUWZdlPKaWY5p+wLRsTWP/JiwgJCEsrlYCnTorpZhOXLHKXOKL5Wwr9XSq58Wibo9+riFPPWrYmLeNxSShLQtA8KCmaszW1O55O978tDrG4uqy5JXIcZpZymVpraduWkBpCrAmjMaGaEIoqZ6i0DSCIFDz3rh1e/+pP57Wv+qzXVnrwmU1jv9UAczvNfnTYvpfq+a+wbasfGEt4IMQdimrCb33w/UzDWW7IC7ip99JwmijWzfSzKqkkHCWf40hs3eAIR7MUrd/Y2gY3A5/NSPaxRpm9XPXU7X+17nH773e/fjUHkn6CcVxuUVYyc52wvjtuCjdK+L3iJSgl0S4StUCLSClQibCdbnLPzmVGfEIvntU3NrP2u4v4iRcFLSm2jJJxlhNSgq6+Rqpn1PM9ZgfXsVRTFkap/QBepC/ps84F5oe4oa+JvGFt68kavPtcC0WlJKZIPW+o65q6MZomkzO9e6P/JXaEl1OcV9fHYBnZLzVwLUmUmJVECdhkhzh2onTyQig6jSK7EegbDmdJhski0o0yZr+vYx5JzYJpM8eTMRqXnBqPKAVSu6CMbU7M9EysvqwLvfad9gOWAk0NqYWDmy3VVktVCqNRSbVVItINNrI6/w1NEwOVY8rRHt0f0v12uuhcPBe9Mslp+jEu0NRSmDGenEJlhBeKuhBTjbTOXTtKEv/CaDf++fjc5H+dLa69+1Q782vtKa4UzyNNPo2QLhNiJMQJo2KHj5YTokyY6WkarViEBtcGk2ZDjz/uDA6397dqolZJMEdP3w89ri+vx+zjkfC03/+hbXYjFANJP3lY9c97TTMBi8kLSbZNsvNYK1Q2Q+06pV9hEq5xobpanq3av8C8+ds+s0sp7mWSqiraZIQQIBkxLYhNTbPYzyVCrclJCkomcktgm4Xyj8VaxLzuAZZOfsjTWGUdOLZCXc+6yLllsVjTfPvAVaHoB+a6gT2PUHcujTqRf4XVNhQTdHyKYus0V/dqGG/xnE/5NEY7Z9ja3mE0nrC1fYqqqvLgqEpOo5ZwtHKQp2xBTC2k2EXPkXp2QF3PmM/nHBwcEJuadj6j2d+jTDXNYg+b7mH1PkUXVdfzGaGAcQWSHXEEWUktvdOkXtANNDZUWy3jrYqqUkSVoig6p8hKZllpluu35a3RSzD9pLT9TdyHAd46bWd5GY1Po8Wo67UkbDGnDCWTqqJNzYun167/8Hhr+1tfeFf5o371WtyL29Q+ZlHcg1clmsZU5Q6XqwV4QdJO6lpmzlWHtNq1S79xbI98ZhsEeXgja8scJwsc3scj4Wm//0PbXH9/IOkTxnGRNcayuNKirfCk4DOKtmXic86wy0V9gAvVte0t9t9qi/qbxKrtsZynGHWWhmRQCl4fsGhq2uaARTPFYk1BQyGA59lMFFDVzCR49mMse//HU7Z0pTSXUodkj7G7ElujbY3pwQGLRaJts6TRB429/c1X7RL9+GIKASkCYiWtB6rt88j2eXTnEr59ET19L8XZe/mjn/5ZxFCye2OP0WiL0Shb0CQEouTSn6oFjtI0kaIbsGyahlAUFCGAWE7QWdOISxxJiSIZ2wkObu7Rzg9I9T6yuEE6eBA7uEyz9zA3H/44zY3LnDqzjXrDYnFARaLolRDJPZDY6erRIVpuqBbRaZoFVSWUlXS6NdlNEwTVkDXsde/gBlEcf1uL2+ZUam6YKP8/e28eZdlVnXn+znCHN0REZkTknEoplUqheUAIBGYy2MaWEGIwuLABuw21TJeHcnXZXbXKXu2F29V/ULiXoVzuWl5Q3aubatNeHijUYBtXl21mkBG2QFgCISEppVRGRkZGxJvuvWfqP869L15ERuSgAQMZ31ovIl689+70zt1nn72//W0VJL7uXGN8PKBUd1FJnMiUkIggCNaQCEkWkn3K+/cPTj2+Z06pDyTh1GhVHmRBXM1KmMZIReEt/TiQUMEgg4zdd3xOQE8kNjc/1rPFWc94/Rwu6fkaubPhu3r/W/zfs22k//EQIuU2sTp6vSyR+R7TvmBWrbI7O72zm/XfgzQ/ZyypQJP4uqmrNeANoSwpyx5VsUJlYkGKFmacBJPB1+yIiKbv4NZYM8oShaiFgBqalXNQlYb+sGAwKLFNYxlZb1uueVEeRVASj8YFhfEShyTNpuhMz9Od28vu2X1M7bmUZHoe0ZnD57NUySwjlbOq21RBIvbF3iVCaSoiW6OpSlNS4oNgFEp2z+7m9NIKIfF0um2C0vT6KwQRiGHrtSQeCXgRi0Hy6UDuHcqO0GFAxgBt+wjXg+ESo5NPMDj5JL2Tx+ifPE5/aQGKPipUpNLXiUhXt9SysWAjgCnBljBSgTQNZFlJlguyTJMkEpkIhFTgHbFM3NeToV+Li26EiLGicYJ3HQc5VulJLwhhiDEWL0co3SfJOuisU2c9o++XpwqHmZaiek8q7NxOXf2W9Ha1FDtxaIowRaFk1BgPUYhJe49E4ZEYeb4+5Hi4r8N5GbeYLz4jefd08D25/xrbRvo7hvWLGOkjwzh3ntyfZIqHafkFZqVgLmP3VFb9u0oMf6onnbKZJHGelg8on4KtMIMlnFnF2wLpK1IsclxoUYsnAY1asgyi1oc+86iAtaRbw6/2qi5OiJ7qYBTDGmUZqEqoTDx+TbQdrk6FW6GwIsfIlIFRlGSkM/PsOniEqd376cztJ5/ZS3fXflR7FlSKE5qgMgIpIUiEjzomqdTY4JEyxqEbjKVKgaIckbVyvvClz/Mnf/pf+PrXv84LbrmZ2++4g+ddeWVkcqiJ6y9iVR/B43zsASiUAJkTvMK6DJVMo/NA2vW05ktaVwyZtwUMV+gvPM7xhx9k8dsPUo6WCdUA5UuUHaFkhaJA+qgSKFyMulQGfAGmCJSJIUkNeSrQCWR5QpIoHKGWKo2rLFm7yz6stSSLsqLNcmUtv7FGnawTlMHGBJkrwPdwPiWYjKTVhawNKsMHSSyotJkX/l9YIWcUo3+z03/zlLZ9+v4IfTtPxxQEoUmNRnkNEoysqFSBlR6kx2+wOGeL1Z7TOE1mIjd8Rq57xrr/v8EnHgAAIABJREFUbo2N9L/v8v1vgm0j/Z2AgMbN9MKPS0EToOOX6Lqn6IinyN1T7O7MHGgn/I509k0CI7SKhdYqVHhTIbJpGA2pqhVsdZoERyIBRW10Ym/CBuO2SFsdW22cRR3OIOg6Fq2oKsdwOGI0qhgOYkgj1Hm0JrZtiSFhK2C1BNHZgdVT6KndCJFz9bU3M7XnUqZ2HSKdmsdmU5SixbLIsVJHShkS5dcn0KQGVXuaUql1kpKTEZp2t8vxp47zN5/5NE8cP8aefbv51rcf4Utf/iJ79u1mamqGIFSdcKv1kyVI4aO32YjaJwlStAkhYJ2hCB6cR8qASiqkLhGqhGQ/e2ev4uiLHeb0k5w+/girTz3G6eOPUPVPIuwq2GWS4EhUnSCtbacrwRZQSChUoJWB7VTknYQkT0CFWEotwAc3Zk/48fdYB6UbnjUNIwbWVgo2Xs/x9+sRtsAFBaJAqxmEaiNFig8C7RN8UFqI8K4E3yEs/UsBJ6Rr1VpVFU5IFBUai0M1TvuWfPr1Ru3Zw/kauGd7v//Y+9820s8x7v7Ex4hC7gkShw4FOliE13T8MvPuYbq+IKFLFvZfopz9XYR/XXCeVCiSSiK8xZkKVw45vfgwwkaPTasK5f24VFuJWhMjrOXQxuR8mudjifr4K2ww0FZiTcAYExOC/YrKRAPjm3CJgIaz75Ug5F0qkSOnZjCteeYPX8v03svZe/garG6ju7Oo1k68zqlEwshA6QUuCKSKGsTegwgOKQJago6decmSNBa+TARiG+PQarXpD/oce+IpTp1e5Lobr4O6tPzU6RUWFk8xNTUTk3Zj+Po6CJQG52qZVh2F+EMQeN8i1OL9Fgc+RwSH1o4kmyXZ6RmainT6MubmjpLvfZRszyMMTj1G/+TDhOIUtr+IK3toW6FlQEoZle9cABvj16MKrIXKGNJuQLcSVJqAcHgFIfhx/qApgW863YyvxeTXO5kEaORfRcARwDms8dhhIAsOkaQoWgifk4kcJbw0hJ9UiEyK4S+J5KHjIzXi0E3XU6k59lQFLe9waBw5jhwvdKQpbSFgtZlR22jAtjR8m3i0m2PDFkITBNp8y98z+594/7aRfi4h4pfgpMcJh8ejHIBHiT6JWCJngTwsIfGHROB/Q/jbvTcoYjWdMBXYEl0N8dUA5QcEaRDBxpizDKx1E7kQQlDddTuEeplPpHIVUBaOsjTYmj4XAJXE3RgHQkt01sImOUPaDOkwc+AoR6+6mfkrroedB6A9i3cabwMDEpzXBJfG2LSU0TuWMZwiQu05BxlL0yUxBOAcMtFR4GiTm0UoiXGW3rBP1m6NO6IApEnKYBCbxsp1lqxZOcQ3al2XtQsddZ69QAjQMhbSWO/xtsJYG0VyVKDCQ9qh8pZspk1nag/Tl10LpgejRU49ej+PfP0elp/4Nq53ilYoaePJvSGVBi0jO6SyUA2JMiuFJW1ZWtOatB3j1gRdp+bcJt/tJkS3hi0i4hjzAoSMKwUv4grBFX2c97TaXaRSaAJBgRQacALJj0tpRCLNL5Zq8fhOdYJCQio8CI1VgLek1o9pk+sNjVw7lg2Hd37YorxjK17fVrjQ93/X7P9MbBvp5wo1e8MpjxNgpEUFcF6TUCDlIko8hXAFEn9QBfu7KtjbVTAIYssqvAFbEswIa4Z4WyJqzu/kDB9YawJ1ZqeJsyDE5JmxntGwYjT0FKPo3TVVgU3lnhcSKyRGSaxo4cQUvr2XHZffwpFrXsjMgaO4dIYi61KRMCokNgSkVKRpSqojE0OFQFNJI6SgKfFSgsgcABAxIae1jkt9dWaTq3iJBVpFoSYhol5J8LFacZzsqbcz/kx902zUag/UMV0hCQSUAIcjEQGHICiNt7Z5JyAxgPUdKp2T6h0kHYecOUB7+hKOXHoLy098i9OPPsDw8QdYOf5NSrNIF8hrB9Qn8TisB19C5cE4S1458pYmTQWq1sSI+t/NkU7+3gy+pssBNUM8rpjiSduyoPSSvJUgkgHCe5TSpCIq2dkg3oQn7BCrv3C0uP9EwQlKf4iBnB0nDFu+qjXC67E42bexHlvnU7yzVcXdljjX8L5Ao/gd3b848/Xx/uvXNguVbBvp5wq1RyPrOLSql6JWgfdD2n6BKbdI7oZ7VbDvV8HemeKQwaKowFVABW6Iqfp4W2C9oSkLlFtwVM+OteSgVBIlErz1lKUbG+iqZNxrtik8cUJROUkpW7hsmpkDR9l19CamLrkaOX8E35lnSbbxqoWzAoRCpSlpHUuWdXxEAKouw25+N3Ho5j3NcZ7vvSaVxIcwrn70IWpnxLCPr/9e29q5VPyaCdAT48lSxuOPISQ93r71DpREypTKWyp8XAnIGUR3imznJezefYS5wzcyPP4NRo9+jfKpBxkd/wf6KyexA0enxTiUIZL4t61gFAKmMOQt6Lba6ETVE1fdBLbpsrMZGpZIjebmbzQlZPD4ELBmiBEC7TwiqZB0YqWi1yAlguRN0lZV2x//5xWDxR4SqaBwezFjs7GJt7nRUD+tVNlzgGfRs31G+z/XezY5vm0j/SxjHYHfg3YyauxLi1WWKqnI3TJzg0V2lUuzCvs+FewbVYghDilCbGZarjAcLOHdCC19nUiKHud6oaM1XyAaPTHuzA2MZTGbcIFARQ/fBgozohpahkMYDWLNh/dAEAgfYrJLCkLaRrRnUN29zFx2E1OX3cjU4RvwU7ugvZNe6WvDG9DeobBkEqSQOKHrY6y95yaLJlRt+GrveQsPt8Fm/y7LAi0UOIeSEiUE7hyNQce6I812z7LyaMJBsm4PNckpj8qBFutGWFtFzeUgqLxE6gQhc8TUFLI1R97dR7L3WsLit+g99EUGj/494vgD2GI1Gk4B+Nh7BRzO13O0Ae0DnbZGaYnEgqhqD9VtfeOv82DFeFVH3XRWCQlYTNXH+bqs3JWotItQbRJypEAkyLfi/SgVy/8yF/+wkjDElDvoyVmqGBmKZc2bCG9N4nxM9QV7tA3O1+ie433njBU/U+N+rv2f5fVtI/0so6kYgrjkVi5Oj1o6Ej8iFyvssAtM2eVuyw1/C3irxCHqsm58CWaINyMUFUGU48KX8Q42GOr19Sgbh1c8IhkApVFSUVUVvZ5hOIBRP9Kug490seDB2oBKFEK3qZI2cno3u668iYM3vBS572oGySxVPssopDirQHlS6ZHBkkqHlpJUBgIuLteROPx6hbAajdG8UJ3qBlJFQabGk54Uf2oefoIjpsTZDcrZsGbQ/bj8L5UpSgk8gdJ6jJVYpzCu8eI1Us2SzE4zO3+Q+cNHCd++joWvf46nvvEVBqeOI0NBsC7G4gWoWvjCWBhYQzCaTjdFaYnSTXHRpJwfm4esx5e0GZXN4Gl6VFqwHucqbDVEVhWqBTpLatdeCpA/o0S1quXyr7X89CgPFUMkIxVwSo151/W3MeGxrjFQtvHMsG2knwM08pICEF4jiY1aW6FgfvgEXf9UmtL/11ZW79JBSBE8KlhwFaHo48shvhbjb25YD5vMxmvJwkbfIRBo1OqAtWRS0GBh5IYMh4FBH4bD6LEJ4u2Y5CmChP7IUYg26cwBpi69hv3X38b0FTdi1DT9dIZCtrEhBZGQ6Bg3zYRFo9A1H1sKxlFURF2XNhErfrYQC1rC2IAGH2Ks+1lGEDUXvJ4Eg2ymYh2znkik8GRS4GyIRtpbBAIpJJlIGBlL4neRHngxe/bfQPfw33Hs/s+y/Nj9hNWnSGWJ9AbpTdQa9oKicthyQFVZOl1N3vboZOPBneXAG2UmYujGNyp/zbgRNuYcfMD5WE2ofAuZ5XglcUIqL/XPgz4VyN7rpTeICkJWTxb1fnxdCDUed7BV2fg2LgzbRvpZxbisAI9G4dHOkPsRKctMuxPsdk/Jdjj5bquq/wHhE4VB1eJLSEt/dRGBRUtixctmqL3ohm/dFGmMsUnvQVcGqspQlIFhEVkaUoFIo1PmAgxLR0VKj2l2Hr6Ra17yo+RHbqIUHRZtipVdnMsQIom0PSXQMopBSSGj7GaIIY2mKMOL2HiL5ji3MNNbhTm+2zDZ0hDkuJt3QMZSdRVpb0oFhE8ReIKzKF8hsxlKUWGTGXLl6dy0n+dddh0LD3yBY/d9hsVH7iMpVphJNPgqdnL3UJQBY0Y4p7BB0ulKEp0AUWUvnCPEs9YMdv21l8GPbarEQijxtocpRSyOyjJIJD7IVAb+tRblQlcsftCRBkEbI9trxPmmWjVepXriWHv+XRSd/p7DtpG+YKwf6P/l7o8B9X0QJEFEA+3RpK6kU60wZU/QFU/Q5Qny8NQbkzD8DeWTlsAikgJGSwwGA6rRMEpqhpgAw8UbIISJVWQdM4j7c4RaaT1scKeaozQGpPf4EQxPe4Yj8FJjlI3ELhdJJAio0hw7dYhLrnkZu2/+YfKrbmN5cYjXKVqnVGWFLS2X7J6lN+gDftwOCxRWRLUPX3tQjeFtquQUbFgeUx//mjPYxOYaY7jV80l45yNFrjKkWo8ZHVVR0ul01q6J3DohuXHqGD8X42mwPocYQ/cTGxqnPgUxhi2IJfX1JBY1ngT9osAEwerqgG63TZ7Pku7eTWvqCJceuJG5h+/liS9/Erv6GGL1BC3lxiFlFLggePK4YWYHzM+1yVut+OXVhS8Qk6X1XBmP2TfXr6ZqsiE8UX9XkT1SEVhBmBGIFaScIsgZtExQge4U/d9S7pvH2/bU/3tKzbBsZ/iLj34Ip3fiQwcndFxtCE/iPcrDa++8o47GNIb6XNHfpqJyw7/POyZ8durfuSeKjbxnNj+e52z/Z2LbSD9LmPQEZZ2BT0OfrjvOjD1GSx4n5/RLpKjeC8zKcf+oZbztIUKJknGZ2xjmuOEze8CJMGmsmrLhDYN/wpuuChgte+wIEptipETUJb0qbbFaFNhshh2XXMfzX/XjhF1XYmaPsDAUhPYs1cjyH37nAzzx5OO84qUv4UW33cY111zFaDRCExtneuSYSRANcROTnIyHnuX6cQH3wQQGwyFVLfacJJqqrJBS4r2nqjYRgX6WMJ482JweGILH+0BlLMFYsjzhWw8+ypf//j4+8/kvcGD/AX78rT/FzK69ZGon03uuYafO2T03z/1/9cec6hccnFYwPIEwcb6uRpZUgRnBYMUgXaQ3CulABUIwgFmb1c/rok7kNrAQLFARzBAvK5CgkikkCZLR7jZL7wuhPG5t/8tejJBGMhKKAo0VgSBtjLA5OeFcPO204DbYNtJPA2eGEsbdS0Qsy1V4NBVT/gRz/h+YCifwwl3u4LcLWodd8KRBIDGM+iMQJcG5MZsAzu45xh037A0xPo7JJWdj5MtRxWAFKBoN54og4hfvgNMjg9h9lLmrXs6VP3An5cxBbDaFVgl5cCyurPC+f/cBnnj8Ma677moee/xxhsMRUgSuvfZaisl+VP8ImJmZodNuk9Rc6KYLS9MppoG8QEGgjdjq05MKcGFsHAVI0Fqj0QzdKvf+/d/zpb+9h5MnT7F/7y6+8ndfpj8a8ku//C9QrRSdd+jsPYya28FN0/M88eB9PPC5u9nXLkiGK1QGMupuWQbMimFQWKqWImulJC0FMiXGm+z65Reck4HRIK7QAi54RDlEIFHB49MZnEgJUj0PZ3+77fpvD4HHU5GxrHJGaRsrZa1dApI85kHOI9S1jbNj20g/Q8hQ14TVyzwVKpQYkvs+nfAUbX+Cll+eKVz6b62Ut+k0AzvEV32kGlGUfZSsxomvddzhC6L9yLWbIuixB9NfrqhGkIW6b6ACI6GUMFBddj7vFnZf90p2Xvty/M7DjEJOZYHRAG8Mx55cYG7XLnbtmqMY9pnbNcfiqUU+//nPMzOzg/k9e4FooFRdCLIZxsm8sFHkvn79fM5wk027yrCyssLjjz/OYDgkVRopJUopdu7ceR5bfXawjo8t6uSt8xhbsrS8zL1/9xVGoxFZlmCc49U/+AoeO/YkJ48fo3vpJVilYjFQ5ehcfiuXzF9OPruLb/x/v0/uDCoUEDwJEuk9roLVYUAXlqx0ZCYha2vSNENIifeWWIZzpmFcV0kuNrKD1s4HZxFVHwsEkeLTlCA8muoV0g1/U/jhL2ot+s5lrIZpTNCoEJPkAlvvZ9t7fqbYNtLPADXxAhk8Tki88CQMScMyHRaYDgtkwSgV+OUE8WYZApkssJzG2mP0lhaiiBATyZ/6l5y438/Y77hQJuBEqL3puso/pNgCVleHLJ4oSKM0BlVdKDcMgqHMkdO7ULuPcu0/+Vc4PU8p8qjRIYlshXwGmWuCWqEzPcWpE8eZ6nQYFQVZlnFiYYGvfOUr3PnGN1JVFdZYlNL42rNeY1jURjnI+hwbilytcGDWKHMAtqbMubogRYT1XnCwLtLqGoqdgP/6yb/kIx/5yNg4G2MAeOc738lgMNiUCz05KU7+bhT3tvK8kyRZ/31tAR9i8qzX6/HQQw+xsLCAUgrrIcsyRkXBVVceZWaqGydmoVg1AZHuoCgdMtvHzut/iFtmp/nGX/8R1SNfQfs+suijkVQx1UdVWoyUGCxCaRKtUFohRBknRB9in8aN4yd+Net/s2G8iagKZUuHcZJgHe2uJktShCh+qu2KfxgE3hdC6vtuJ4KM4NuABGlBxurZOBHEMbpu0hD+zA7uTzsW/RzjH/E4to30M4T2HisbypsHWaH9Ku1wgpxFENXrgxK/rIJVWjjEqIe0CzizENta4TaNO28FucGINwhBgFeYCsoR9Jc9zoCs83pOQCUVfd1l1J5n91Uv5NJbf4xBepChnB73ANQyGiovMkByyaWH+PI99zDVnUKJgHOmljx1PPHUkzz22GPs2LEDqdMxvSseT2N8m+asdTK0fi34sHbc694fYmEI0QjLsCaCBLWTOnFnO+eYnp4GiEbQxmq8LMvGBnUzTO5v4/9k3UllM0PtN+pybgLnHEomOO9YXFzk0UcfnWiAKzGmwlfx/KampsiyLMbxg8cGTZiwlDuv+SFuSqY59oVPsPC1zxCSJbQdETQoH0MarrKUgNYGKRVZEMgkQcnINPET/RUvbHUWIYJF2FWcc3gl0XkXpEwU/GoWeve3wqmPz/gnAUkRdlPJNkFYPDHKsv6Kra+I3Ma5sW2knwEETRKv4c56RKjQYUgellBy+dpRGv5n5/yO3Flk1YfiFMouxRC2jA1az2uWHgvWrNH8YtoqeqcNu6S/MqS34nGVIk9aSFvihcdpxVC1YdcRjr7oNcxc9zJGrYPYZA4vMxJfkQiH1jERFnT0frtzs1xxxRG+dt/fYcoSKQQueJyzHD/+FPf87Rd5+cteSSdLcc6gJopKvI+yqbHpa1hnGBsGSHM+G4tQ/Njjjm/zgrXWXxPelveePXv2xARabQiTJCGEwBVXXHFhWiasTRLe+02N9FqH9DO9cKXiZOucI0kSTi0t8dhjj3HixAnSNMXa2ODWBk+3O8Xllx9mx44dZFlWXy+HMxXWOoKzCC9ZeqzP7K4XcvDlB0h3XcsTX/lL/Klv0K1Okqthbdgji2fQN1G7xKe0OpI0TQjSYkPTfvV8Qg/rz9nVRTFJKFHBIgpig918B8jWvBLi32ah/42d7pFvqlCxJDUWiakZTvW6ikb0qXnKeR/PNraN9DNAAAxRfF36Eh0GtMNp2n6Rtu3NZG7wm8DVSjmUN6ALzGARKUpE3ZJPsZ7ONd72WUp+QwgEGcMHTsWEfBaiKPviiQJjIc81SmhCSClFwqpus6x38tIffht+z5VUnUsp5DRCZig0QgmE8EjpYwhGakDQHw64/vrrePSRbzGQAmcqzGiEryvqvvbVr3H1VVeTt1s471F1pYUQAqUUg+Fw7Zw28bQ3zlBrcd0zT70x1Bvf/5M/+ZM8+OCD3H333UD0hF//+tdz5513bnERz47GW940dj6RlFzzjsU6Q+1cDMk88sgjnDhxInrWtY5JqMvMDx06xM0330ye5+PtOlMCkNSaIN5afGuaxdIxNXs53RsypoPh1Fcto8URqiqg8igdL2NVRQPqQyBRGZmOnVhE2GB6J2MaEwNts0hDk8BWgAoOYUpsGCBDiswThFQ3aorf6Ibi57wTg4HYSeFSbOhGVUEhOFPDY9s4Xwi2jfQzgAcKIZBYMlcy5U+xIxxjhzsupm3x7jxUr1MMIZSEqqQc9LCiRMuoodDcBZtyf5s/NhSmDIpAloFUHpUrlguHqSA8McCsDOivwvRuCIlleWgBRU/NMvW8H+RHbv8p/OxllLqDFpJMJlQ1xzqRColEidhkIARFEJFGu3//fl704tv4iz/78+gpS0mSpnS7LSrr+dSnP8Wbdu0iTVN6vWLdGTS84nFHlEYqtDYJjY1YJ4IkxDiG2jAVxzzxDZZk586dZFnGe97zHt74xjfy8MMPc/ToUa677jpmZ2fPKzwxuV9Y84g3QxNO2fjeZlICmJub49ixY3z961/n8ccfR2tNWZYoFSlzeZ5z9Mhhds/PYY2LHvuE8h/E8nWjLS41DIuCnqhoT09x+St+mPl9XZ78Aix+4x7aukdLBLxQBO8xJqBGjqEqSEWOzkElChdiWf543I0xwdMLch0vXYSYpIzvklHS1guwJcL1SIJA5h0SJd6svf2iEcv/vm0XKUULg8KIZAPPeDNv5BzPN+CcGhvfhzj/YOg21qEpyH7LT7wFzYh2OMWUO86Me4KuW3pFx5a/rUM5TeiDWaUYLGNtBVIgpEAgYjJlQ3yuSUZCbZDEeu+zKROXAnwQLPcC1RBEP9Y0ZC1QWeyU0vPAzoPsueE1XP7Kf4I+eBMrTGNlm8x7FAGBjjQrGWVLpVDEW1kSEBjnSLMU5yyrvVVOLJxAIihGA04snODer/wdH//4x5menuaGG27Auea2aUo8Gitbe5ysUeSEEGv38MT/JnG2SkTvPMVohPeedrvNoUOHeMlLXsLll19Op9M5dyXeM8DkcU6GaoQQPPnkk3z4wx/mQx/6EKdPn0ZKSbvdBqDT6bBv3z5uueUWAJTUcWWEX5+0FAKhFC4FKwWV97VGiWJm/z527dhJWRqG/RGldUiZIBEo4fEOrAmIYBBKkGhNUIJAYHzF6zDG+EnToac5p3FSMb7RI+PEHUJUSAwheukqRSmhJOZ6F/i8JT1mSbChjSPjD/7wTxh37N0MF/gVfbfmFZ9LbBvpp4HGkGrgbT/+ZjJWaatv0xaP0/bLu3Nf/G4WzHUyVOB6jAYruMrWhrCOYzY/Gl0F1g/AIDxBrBHaRIherpQaKRTWCqgkoyc9YgClAy8TlEjx3kEKcnaOzvNewyUv+XFah27ktE1xsoWSghQTNZNlAkqfYSSDiHFE6xxCSNqdFs5avnzPPXz1vvv41Kc/xWc+9xm++eBDrK4s8+RTT3DDDTeya9c8k7fOpJFm7czXzvMc13rsaddGZfLTQooYTpECnSZkrRxrTGSHuCZh+dzcxpvFukMIdDodHn30UX7913+dhx56iJMnT/LAAw/w+OOP0+/3mZmZ4VWvehVXXHFF7V3LdQZsHOcOHiECOmhSqZBeIkxgbnYX5UpJknTZuesgQbc5uXQabyoSCQqD9AEXYum/xyOVQiUqjr0Q4v4mePgiqPU2m5hfqRMdQGTReOHWxmUAFyRKpOg0ReCmA+JAEMknvE8KRwdLm//7Dz9ahz38mRZ2fNJs/domb113zc/vY9/T2A53PE0oYo/Cli3IxTIdsUDOgsgY/rMkVK9UxJ5TxWCAtQ6l1mKY58LWSziJ1i2c9QTnsYWgWjYkSoGWOCEphyWVEGRze+kefgGHX/Zm+p0jLK5YQtYiyyRIjw8SIdbiqXITdbiG5masIcsSDl92mNXVVT79uc8yWO3RaidRVy3AvV++j4/d/VGuueaarU/sLFn9sRreBST6Qgi06piudx5jYuKyqTY0xqwrC/9OYDQa8YEPfIBvfetbCCEYDoekacpjjz3GQw89xJEjR7jkkksYDofjOPVmCHUsWQGSBJVKrND0eo4gprFZSmtXmx3XJBwk4fhXP83K4sPkTtBWtR64gTAMIEe0yclbUUY14Ncysudd5+nP8Ia9B2M0qVGgBXkQP+K8/acmFO8tVZ9SrJAATrjxJBtP7sKv68WMbSO9Bc7Ua1vLjzdedAZ0/RItsUDLL9Jm+eVpKP77BCOwFa4cYF1ZtzCK21NNLLYeqQ2f2G/MHjYVjOOSxlikErxm0C9YPj1gsAzzMwcoRxUqLFEWBhtAzx1i/uY72P+qN9OzuyjUDmSek6Q5WoIIIXYawdeefawGW7+Ed/jgEDLS7garBVJK3vITb+GjH/1ThAQlE7Q02HpW+ch//gg/8urX8MIX3oq1jtFoSLs9VW9QAKEOp6zR8da0I8Y7Xns7wNizPPM7in0K14aw936cnNRao7U+Y1I81yRwoWyQje//+Mc/zp//+Z8Da0yVsowJwT179vBzP/dzaK2x1m7KIFn3HUyMQSUVMpVY6zFSMvQ5lg75/pxZlTOqDCetZXT6UaQYoYKNq4kKRkMQokSGjCwXSJ0SG9ZO4lyl27G5bSDU8e0KhMU5iykcSbITZFflIf0lK8TfFGL1iwWSRIARYJvNT4TAz6fJzLnIehdDjHo73LEFztQ3DuOfkuhFt4F3veFW2hynxcmd7bD6O1kY3KjtCDtcxVb9GM0bxzbO9FvG+9mU4REmloKxUWw1ChRFoBy5yIs2CqE1DkOJwnf3cvltd7D7hXdStQ8xCG28zknTFK0gkQFZNxcIQsawBoJG+GhMgQse5z2eQPB+fHyXXXqIpVOn+NIXvkRVGZQUdXwc+oNICXvZy14emSsqhmfWnW+zn43XdaMnvcFIny82GvONRvRCjfA597dhe+9973u59957x69lWYa1lna7zTve8Q5+7Md+LK5OjKEsy3Ec23s/TnI2xS1OSoxUOAkShxQehMMjqISmRGCDoN0HTlA2AAAgAElEQVTpMjM9hTOGctSnHPZQeBRRRS+EupkDDilVjIPLmHOIycTaCZiwnoH1ceQw2a2dgKg52CJ4nLVoLxAyR5JNKyXnjbKfcCJU/9cf34OVMUdSb3ri4nFOr/pCv63vRyd925M+b6ypNDSKXgmQiwW6fgkd/DtSoV+tbEk1WiaYAjwoKZ7W7O5lNKRuYiAHJL3BCFPFmLT3FsISXrao1BRle575617B9PPvgB1H6BUCnQpy7VGyJASJmOjo6oWMDUiDxNetphpqnSNEoX6i1ysmPNI3vPGNfOHzn+W+v7+PqrIkSqBlwHq4//77cc6Spgk7duyk1xs8vcv9PYqFhYV1Ya2G8XHNNdfw7ne/m+npafr9PlUVpQDKssQYM6b0aa3ryc3jVcpI18L6viAJBVp6ghRULiU4QRUyVo1leteVHLpV0M4Ux/52gF35Njm1XosBAwwJBF/hRU4iJUKDDDKuqNb1JKwpc5N60RMQQhLwayFrDKZcIQtAVpKI2du7YvqtFfx+O9S9G6mrWeHCLe9Fju3SnwtFnbxKgBRoi2XaYnhty4VfVKXXblTiyiIyMCQgwtOq8hqj/qwLgVFlGIyiByZ8jCUbCT1r6OudTF9xGwdffCe9qUtZKDQqnSZLUhLpSXCkuHGvRaRCCo31ARsczsaHdRbjbVyOuxj7ngwZnF5a4oW3vpCffsdPo7RCAsZFb1DLuKQXQtBqtVlePv0MTvx7E0qpMY2u8ZhbrRY/+7M/y969ezHGMBqNcM6R5/k43NEkO40x43i6dTYWDvn1IlZaClItybOYLDUqpy9nSPdezd6rf4D9V78YPbU3hhlqL9pZMAWYoadcNRRDjzNRCiygawXDSU3oc2AivyDxCFFhzDJUJ8GeTPOw/Mtd+ld0gI6HNCqpruECkoUXO7Y96XPgj/6fP45/yBBF7FWgxSq77TF2++N0/bGk5atfwlVHbFnijVlzSOpkOhOeqJcNm6OOTTeMqI26ykLghUDgsR6GA0u/ZylHoENAe4uQGkPA57vpXnYT+254JWrfNQyrFCk0MsuQ0iKDr0O/66saPGCMrY8j/nZhwpvyMauPD4R6ppFK0R/0efWP/BC3//Xt3H333QghSJIEnWh+5X/8V7Q6U5TGIlRyBoXOi4Z325z4+nDPxvlM1DHmrVQBz7jPzxHOeC5peQBveMMbeOCBBzh16tS4+vH222/nrrvuotfrkaZpLAMncq7PoBxOVDwKH8icR8i6iQApoQ4XZWgMDi9BtjuYAlarlOnd13Ppyzs4O2Dh/lV0b4VOLRstPEgXZVyN9CAVmZCshcU3rPnWcfQbil5cGSjhoe6XCRB81L52tocoBUpydTsVP/9XH/mJXznJHndS7WUlTFHJFCM1XmRImfK2N7zlWbz635/YNtLnhZgulFgEhiz0yFgmCUuo0PtB6Yq3OFsgnI0NXJ/RvhrtMAkhGqeqrFhdhVEPlKujh0EysIKqM8/UoZs58pI7SS65lRVmsFrT0XKs3UDwkQYFtWcWCC7giPS6zXQstkKe53jnmZ+b59/8+q/xvKuexz1fuoe5+Tne9KY3cf3116+rxLvYcNddd7Fr1y4+9rGPMRwOufXWW3nrW98aOe5nKZLZiBACwRqkdwgpcUrhhUCpWDQjgQxBFUoQijTt4JzEioBqF1z+srsw1Qqr3/oU3laEMvLobfC4EsIQnFYkMoFMQtMd6OlCCgge5y3B9FFCoknflietP+0E9alhSDAiEMQ0QaSERI3zE9s4O7aN9AZsVL8NoknmWCQVOgxIWSUTK0hWprGjX7ZVf4erCoIZ1K5xDCT7QJ00vIAlpJBrS0mpsCPDYAVsHxITjbSWAiNaGD1DvvcmDt9yF9nBW+jpnRQ+QUtRx4ldbeglLohatCgm+ZoklT8jy7/Fofm1xF6aJlSm5OiVR/nVX/nVGH4RgjzPKYrqojXQAO12mze96U289rWvZViXxLfbbUII4+cXAl8XsWxkgmipkHhawmGDJQQNiWLQc6CmyS67kQO3/ihVVWBOfJPELWNMiUnjEBOVIww9uQykOkXKs/CY45EAko0VsONXxRojynuPqwqkHMxr0fvnHZX+rffJUGmJ1V2c1vWC5/sxzffsY9tInwV+3V8eGUZkdokWC2RylYThXcEPXuXsAO8qghsRsAgpqZvdX/g+fV08EDRVGRj2HGYAom66IQMElTFiis7+a9h9/atoXfJ8VsQ0fadBS1pJQq490SwLAiomAL3HOod3awLsTfsqeZ5GtaoqOjt20OuvYoyhncW4qrGG1dVVpNTjmOzFCCEEi4uLdLtdvPe0Wi2GwyFJkjA1NcVoNLrgbU52Pm8g8UgZEPiopug9XsCorJjduxtTnqB71Q8wv9Ln0YEljB7CyZKgQClIgsAWnkIY8kwhU0EQsYAG4Wou9ZlUyK0Pskms1y3KhCe4IdL3f7Qt9e2JEH8UQkqfeYyvCH5ttbiNs+PivZu2QDPQJsMOEg/BoPyAljtBlwXyZHl3yuif4XqZcT2EMwhh4hCd5IJObBVAbpAlbYxjvAkdCEnwAeskw6FlMDD4AnSILZQsYEIbdh9h59UvpX34+Yy6+xj5nKAy2omkkwi08OAFFnDex896i7PN5NFU5KkNR1hD+HHPPjFBIUyShP5gQJ7HMudGGkPJKI3ZnMt4M8+SR/2Mkq/fYaRpijGGNE1xzo0nrWbF8UwQ49UWq6IQU6oFkhj+kFKxc+c8p/sFIp+mJTL23fJahr2SL3/sH9iTKxId42WpE1jrqcqSaiQRKnZZl2qTri7AuLfmhBYLRHbIJMYMqODwvkLZQbulkp/PnP9vJiRLq2aOSraphMShN7lXtrER20b6rGhKmmOTzlQM6HCaNqdIbO8tyq3eiuvj3QAp3JqGzBZLwvNBCI4QJNZaqlGJq6KB0rXz25MdlkOHK66+jZ1X3wq7LmXVSoJWtNKEVgKJcOAd3pt4I9pYcOI503h+D9m+bdQIQeCsx3uLCQotIUegRdTpqETGwIFLwKsZDr/gB7GDJ3jkbz+OkktI3+iqeJz1DIZ9SHRsECHqsvFGaKnZ6Xkb0tiB3AfAl2CHKJ38gBLu9W2b/6cupynlND3Zwslt63w+2DbSW6JOtOEQlEg5JA09OnpAblYPhGLhndYNlLIjUmkJwW9h8M4Vj56ggky831pLVQImetFSxLZXRXue1qGbmb/+pYhdhzFpB6yklUAqDcJZKhu9LRc83scwx1i/WWzXL31fIGhsgBKBCgLvHBmBRMXJ2jgbm+A6RTK9hyMvfjWry49hvvllEtuvOfjRGI+qQGYsKlNoKTaVzt06Jr3+eSNKqkKkFAYEzqpEaf1Pk1DcPW2XT1bsYKRmCWrt/Vth42sXQ4XhRmynV88Fb8EVSLtEHpbJ1Sqp6L1ZmsGNoeyDKQjuwoZK46ysFXQ1ynCK4KEsHKOBw8S2dkgJlQWjE4bTezn84jvQ+65gmHQYIVF5SpqAFBXelVhTYlzkOpuazrWN725sjDmf/c1NOK6WD3WSynlKayhtRcCSJwlaZ6h0msUe+JnLOHD9yxHtPVifYcNaJaJzMCoCprQ4dzZNjw0GeYvDlfh69WkRweDsCMzgBSnl6ztulbZdIjU9sMXmG9jGOmwb6S1RJ9acQbkBLbNI5o6TuOX90vZ+WtmRkKYE65q84oaS5MjWnzTIzUOGyQHeBHIlIQhM4Rj2AlUfpCN2XtaCoQd2HGD2ytvoHr4JO7WHQuUYKVGJjipl3kbjHDzBC1zd9LUpVJjUgthoFLYyEpPqeE/ncbFh43mf6/lW38NZjbaIA04ET+48uY18chs8LjisMyghSdFgM9J8P0O5j73XvpL5q29lWaSQdWMIrB6LZQlVAbYiasSEwLrdewFeILwbP5rWaDAxvpubAV9TMR3OlISy0MIMf7ZlV3e17QqJW0ZWq2fqUogNjw3wGx4XA7aN9FnhEa4itat0zAk6ZgFVnXpDqFZvEK5C+TWje76YfO/479pAV6Vn0A8MVgEThVWChIKMsrODzqU3s+fqF2HzWYYWStMoiYC1jtI4XIjav7Yp826KDS4+e/k9hQvypCF6qgGUp64i9QThsd5jnMUYE0X7nYCgMXQYilmOvORHmbv2NlasipN47UnbWoipLD3eBQi69tg3Wsu6qCVsdEomDo0N94R3mHJAKPsvUGHw2jT0ye0S2iytSfZuY0tsG+mtIKCh3aVulSl7km7x1HxeLr9dVkMpvUMIhailbGrZGS6s3lWOl67BK4qRpRgALsahdb2lFZfj9lzHnpt/lD2X34jQLbxxZFKiJXhnMN7WgknRQDsmDPSzfW228azjaa08xIRPWceKHVFDxVoLPoYbYtgBrMgJ81dz4Pmvobv3ClApzq5tpiqhLCD4BNGEVBpj3TyA9WZjYv9nSZgLEXB+pJ0ZvEPY0ztSs0DuFmJSbLNbZqwL0mxgi8dFgG0jvSVs5KK6FVK3RMss0SqXXqPK/vPTpmN2WPNk4emOmWigTRUohwFr1ksTVjKlL6fYfeOrmLrqxYxIsdaR6oRuO0dLgbM20va8x4WAbzq+jEMc21/z9y02MY7jJsDBEoJBYIk1hTmLdor2pTczf8WNZPOHqKiZGAKshUEfRkODtwoVkkixC5oxLXUTTfDNxn3jTUdv2+NDhTMjnB3epll9VSss0AonUFsZ6G2McdGzOzZX0fUQfNSM9qfJ3WnadrmThdHbpLOJdyCDY7In3JbY0nLHQS+DxFqJKQymJBKh64OqZM5IzTB7+fPZc83LGMkZlNKEsqQoPMpZhNK1Sp1Y0wERa5oK55o4zqWF4Tf84wzpz3NsfxubYzPNjs3+/0y26wW0Ogm2CngrSLMOq2WKyxyXvPBHuPfRBzHZCQxDcqUwVUnpYdB3ZJlAKlnzot0Z1NImfNbwpOXGO6h5vf6/COAxBL+aSxfe1g7FJ9qSQjUqqeu7rp1T3fpiwraLtQnGMqRA256m5ZZI3Og2ZewPBAvSCaQLSO+it30BQ2md9x0k3oGpLKOhwTlACjwppWhTyClMvpsbXvpjZDv3cfxUD6E0aZKTJBnI2HNOK32GePw2tuFd5MjLJEMlOf1BidYtjGhjkzn2XftiOvuuxOkdWFev3+ok4mhkcQaCb6zoeWIiLCIaOVNqeQVhEWGE8Kdf2fInb2mFBVLW52ZgTdn6Avf8fYuL3pNew1rhighRhrQLdPwyLdeXKtifcEFMeSQiOJLG86ljvzKIM7zOTbcPtbZFvCmCC5iyoio8zoIPKUG1KEVGmc2y+6pbkXMH6RUVO2fm6PV6HD9xCotibs9e8jzHGRc7rkxULz5dbPzsubb0HIvKfc/jfL+LZ+JBb6mVoiTGeVZ6PYqhRwlB6C+zY28Xn+5m9qoX4foDnljp4Zf7tESs/vYGin6FUtDSaT10N2c0j8W5xjKG9X3RqBfi1jd4EB683ZkwenPbtz7X9oRUQAFRVISmwcS2L91g20iPsTYoJNGL7gBT9jRt379SBf+atZhcgMZLOOe9td4XaG4oIURUoqsc5dDiKmL+RSqMSFl2mnRqL5ff8lJCawedqR18+/gp3ve+/5X/+t/+ioqEl7/yVbzzXf8dR49eCYF4E26gc8GzV5q9je8+eO+3/H6993z6M5/mT//kbj736S/ibcUdr3kFP//z7+LI1Zeh5h37rhrw2P33YRaP0UokiZYELGUJalShM02WyC0KXM4PTQe4KMIUPefEc0fui/d34JG2q5sCrDsNOZ4WJH4cN78YcdEa6cZ0fvCDvwdofEgBiReWdlhmlznGvHmEtvs2uevdLoM51HxWCEXARTGarbAuE15zrkOswFJRpJkQBGVZURXRewl1pwAvE0rZ5dA1N6MPXMmQNrYM/E/v+U3+8A8/GqcIAf/5//w/+OxnP8vrXvdafuYdb+PgwYMoqVlePk13KrZTAsb9FSEa8nWHucHTG+tcb9BvPvsq4cLxXOs6f6dwrvN4LifIjUVKjRyqMYYTJ07wwQ9+kN/7j78fmRohatD8h//9PzGs+vwv7/ttZvI5WnuvYO7w9Zw6+VCtURMQMrZOK0tIyhKdtaI4Y21oEZtRSTdqeJwZqAg+4IlNMDwcUU6/5g/f/4r/eDy5lgV9BX05i8TWCUeN9JKffffPPOvX7XsNF3fIRwDCAnYiKaJRHnK/Sjss0XarMwnD18sQeamN7BKM+f1jo7k55Lq/Qx0WCUFQVZaqitWEnjob7mMh+uzBK9h75c30jKZUXR59aoG/+etPn7H1Y8eO8YH3/3ve/vaf5sMf/jCLpxaZmZnBWYdUCnkBGsbb+M5jY/HKhTy01uu6u7TbbVZWVvjoRz/K29/+dn7v934v7mPMAIm6Gp/63Jf41qNPMjQao6Y5fNNt5LsOEvJpqiCwPkR5aAvl0GGrasNRR1nTGDM+dzhibNyBCe6cUIE3dE3VmTIDchfbg01ur7m3LnZcdEZ6HSGtyVgLO57BtUtJnCRlhZQltFh9gQrFzdGYgwwxURhE3ciT2EHlDDRGXzRi6nUFlvfjUt7+yDEoYw+4IOpQiKsIPrD3iuvoXnIl+fwBjGrRG1UUVbm2/QAEj60q2p0ODz30EL/2a7/Gu971Lj7xZ3/GYDggTdKxDvT54pkYjQt5XCx4Lq9DVVUURUGr1aLX6/HJT36Sd77znfzCL/wCX/3qV8myjFTrNRqciPHh2N0lprxD0iLdf4QDV78Ak81QeIXziiBjMa0xUJU15WgT+l3wZz9HR8CHMB6H0aGJHX9UqF6Y++Kmjh3S8cvkvo+Y1DcXjaTuRWem1uGiDXesg/AI75HBIrwmCQUpy2RiiSQM79TY7niAbmgp5M+meCdiR5fxYKuXhd4HjBWMShiZJsINLoCUKXMHD7PvyuspZZfVMuB0i9n53bzoRS/mk3/xl83G4y/vGK6u0Hg3n/mbT/GNBx/kjte+ltffdRcveMGt48Mx1qCSdOvDDev/3q5S/O6GUorp6WnuvfdePvShD/EHf/AHFEUxDrFYa9ekRSf0zW97yUs5cOAAKmlhnAObsOeml3L8kQeR5RBfLmIqi9K1rsfIo7KCrJVC3S7I1wz8sCH0sRWi0Ol6SOyO1A/vaMnlz3b8CYqgMUFjSaO2dZhct168uOjWwmHiIYDXve52RB0nUyGgQ0mHJ5kL9zHtn9yf+eo3Eh92b1UHG84WlyYg5OTnJFKk5FmXwdBwetlQ1o6DQFB6jZ/ay4GbX03n6IsY5rsoQ4pFkgjJ5ZddzmPffpgTJ05iXUOoFnVWPICMnaUHvQFf+9rX+eIXv4hzngMHDrJ//wGKUYmWTR1jrS0yUScJdciF/5+9N4+2pKrvvj+/vavqTPfevj3R3dAgAoIiIJg8shxAjRGJAk7J0gTzGlwaDNHHJK+PJnHIyqNR18pK3j9cPrjyIm+e5RQVTQKocYo45kEEBUWQGZpuGnq6fe8Z6lTV3vv9Y1fVGe65U080fe63V63bZ6qqU2fvb/32b/j+/OTrL9kd44Kvowq1Wo1ut8v09DQPPfQQn/jEJ/jYxz7Gd77zHUSEyclJkiQpC1qMzXDOUKvVALjgggt49//4H6zfcBxBGGKMITOG6sQUc7ufwDZ3Y9r7cC4hUKADSA0gjmoUoJWAsUiumy4ifhUofWOG3g2+GCfFa2WRC+Qr0bBulHzF6LSdqoBY1pBJHb9zuP6Gf/cNCAqM4aAbO5LuhwNefdmlCOJJmoSIJpNuG2vdvUza3b9dMeZK5Zx2IiMHyOIknfOn5EdzGpGIbgLNZkqnm2GMT99TTpFGa4gnT+HUF11GPHUCbamDDrEGNI7NG4/jggtexNNPPY377nuAbmYIq1WKTqLO2DwFSrDOsm/PXr73/e9x552/4vjjt3Dmmc8m7fb5F8XO+0rDk2wcJ8XRjCzLMMbw9a9/nY9+9KN89rOfpd1u++44qe8kP8qN8oxnPIN3vvOdvPvd7+ZpJ59MK/+MKA0qQDnBZQlmZgfx7C4kixGxKOU7jYtAtaYJlMK5+UHzwnqfN35GPC6J21P2Wiv2B0Yn96WqQluOI5GJ8h3/dsO/D+5oDMfjGJO0tz5ffdmrESeIQECHqjzGpHuEabtDGmbuXaGz56ti6T/C97woScvwRwQhotVMmJ3rkKTFmSi0juiE62mcdRFb/tvFdHWDsFoHcQhSnuNEo8Hzn/8CLrr4YuJuwgMPPsDcvj04m2uaShFtydWfrOXxJ3by01t/yvnnP491a6cZWBX0mcWFxTMwwcZwUhzNiKKIu+66iz/90z/ljjvuQCnf/dsY785QqtdYWGvNunXruOqqq3jve9/LRRdd5HtUVio4hNQ4nAhBGOF0SL2iUd197H30frRtE7rUj4k8dbnaUOjQV7M6ySMyImhk3spqcZKWvK+AwikTWpXtEsm+kUidpjqJrqzFKYsVx/XX3zD2S7dVn7RTPvqMBWIit4eqmyG02RbluFAdyvzMPBWq20notv2yT2uFyQQT1nCNDZz8m79NM9pAliVkeT88URGiNCIBWofMzs5y8tNO4aMf/SgXvuQlXHPN/8utt/yE5uwMPcYVijZI3U7M3Xf+ip/97FZOe/rJQyfVV2QjIz06qziKoJTiRz/6Edu3bwd6aXiVSgXnHEmeiTE1NcULX/hC3vKWt/CCF7yASqVCp9NBRMiSLlEQQmaw1pCisbpOOLWJyqbTcNPHk3X3Ym0bbfBdxhUkXUOlEuY9PH2MRR1A/oUt/WgWkYQA+5LIZRurrrkrtAlasjwvWo0tMfdjbEla9aXRFeUpioyqa1J1TUKb/YY4ToHcCjgQ8up3gLsIXETcsXRbGZJAtQIGRUKICSbYdPpziDaeSEc1fEDS5hklYhHxbZ6dNYRRlSRJsKJ41ateyW/+5m/w3e98i3/5ly/w/Zv+ExAqlQrdzqCoepZ1B1IFRQSZ1xAgd50UPsWyrHfwcfkVVyfREYWIkGUZQRBQqVSw1tJut+l2feZPGIY8+9nP5h3veAevec1rfHcU58iyjCiKfMaFMQQqJQxU2VbNOEcSTJCtOZFo8xk0n7iXKgG4DI33S2ddi0kslaomd0izkLLzUvn1vecdmvSMirPPiWz725FqE7oYQ4Qpq4AZ61y88c5tKWERMjQJFdumattol/0WULEHNUAK10OAl3wM6LS7ZAbqoSc8YwQJG2SVNZxwxrkQTtI11leSKSFQ2nstnE9lGkYcx0xNTfHqV7+Gj3/847znL/+aLSecgLEW+nrInXzqSZx99jkH+kVWcZSg2+1y/vnns3btWrrdLu12G/BukM2bN/Oud72Lz3zmM1x00UXEcTxY4drnBnHOIdag/ODCGuhY6FbXsvXs8zGVNbiwjsVzsXb4nP4kw1lB0KW0wYGgsF0AxFHX1r6kYhOqdo7QtX0qnticoMebpsbWJ+1QOByvufQyRDIUCQ23j3XZdibt3rUV1/zrwKUnqDzK7GS0U2zJwKGAXxqGQMDMnjnSGKrVEGM1cSrsS4TJE89m68teR6LX0TUKbWOUUigRHBonXrNaEJ93ChhnMNYAglbC1NQkz3ve+VxwwQV0Oi3279+HcZbTzziVP//zP+OFL3xhXvhQdAB3PsLeH5kfCpDK0H/mXYFVS/qIotPpsHXrVjZt2sQDDzxAs9nkuOOO441vfCMf+chHuPjii6nVajQajQFyLjU2VPF7+1xlJXmOjwjKOUTB5nUTzNx/B60nHqGuMlTePMIYEGWp1UJCrQkCwdqMxayYUVkeAOKU92QLPqCOJpWJL7f0hiRWE6RSIVUR19/wtTz6zqLHOZYxtu4OD99YUzlLSEJkYyouJrLJMwNnT0fsQY8L50Ap8btxCpNBJdJoFZKaFCMRaTDJ8c96LiQKFYoXaRfxBD1ivShKEFFkWeqLY5RDdIAxvhvLueeeyz/+4//DvffeTbM1x8aNG5menl6ygMIuM+d1FU8eKpUKtVqNSy+9lPPOO49ms8maNWvYtGkTExMTALTb7TINb2H0CSZJT8lRhTWSLOTpZ53Hr3f8itZsi0nlrTlrwSSQxo5KGCAHkMHcU7zLXR7OU5CywZla7Kl1O/PzuttLiwmg7s9TlI9ejinGnKQ9hIzIxlRti6ptE9n4fCFbU7xejKuVDJN+sgtEYVRAsxmTJCDOkCRtLBWMrjK5bivrTzoToxoYC9palASAywt5VU7Wvciec45QBxQl7UUASURIkgRRwulnnNGnHVG8Rw3pSSxTpW2Bt636qA8OQRCgtWZ2drb8/2IQEeI4JooiTjnllAEiTnOtljAMFyRo5Xr+YIcq04+Uy0vHA0WWaaa3PoNwzSbS9l6Ma6KdV+PIMt8oeaIuSCWEVGHVwjNj4Zu+pWyo6xTKBesrxj6vofb+vGGn2CsbQKbzlZoaa7/0mDp7+ktNLYHLCGlTcU0iGwehi1/gLYteC6oDExhyWOcJNU0yup1OLxDnIE5SXFjnhFPPRE0eh1ETWGO9nxCw+UHnVWr1ZdApLSi1PK/Vqhre0QfnHPv27VuSnA8llKMkyNKGFt/Y1lkhcxom1jO1+WQkmiKVqDcPUuh2U0zmDnRS9M4jPxflFGID0S57QdXNqKrbS+hiiiracceYkvQQJEPTJqBNxbWPC112Tr+GwErGYq8TuPdlKwXGGOI4ptn0uaw6f18larB3f5cTTzkLquswNsRmlsCCLtToUH3HP7gl37h28H6ysBxtjk6nw7p164iiiCB4cha2yqk+48GRSQD19UxuOBHdWIsR3+dQHGTWN6vtdrscjJh4L1W/GNMW7bLzItdcH7km2hWluBmobIG9jAfGmKR71rSQEDJHxc2iXXKGItuqnOtbqq2U2Fwv0CaepDvdjE4KJoA4gI7SzBHS2HASsm4r2AhrfGEA4qXSe+phK/yZFtMTWcURx2I3RhHh9ttv53xt/mUAACAASURBVGMf+xjXX3/9ETyrAr2xVUiOOgKQCsGaLaj6Ojo2RAWRV8ZzYI23pm3uXjkQDBZN5SJnkpwcuvZpIW00MZqiOrYQKRtPjKlPWoEE3pcroEiIXJPINRGJnwumoUat5pZBfr3ebsUTPsGvax1x4JM8EgIS1aDLWjaf9EyY2AyqirX5z5GnWoxO/8vFmobOZUAy0vWe7QVcZPjF/NnFbwCrPuYDx6i0t0JWtNVqcfvtt/PNb36Tz372s2zatIlzzz33gI5xIPBC+qovpuCDzohgJCB1VaobTmTyuKez75FfQ8VibYz2RaykqSHLHDYcnCfDPugFV6G5u0WVYzkDYUqJfY6m/V+haxG65tj6ofsxniQt5NVM/g6ubULVk7RyKntu5iAo3RZLtcUajYFMCesQA4FAnEGmFImuoRrHMbXlNKhM4IKILPVttYxyQ+Q4nC+aBwAZDASt4uiCUgpjDN1uF6UUjUaDmZkZfvWrX/GVr3yF6667jjiOedGLXsQHP/hBzjzzzHlC/ocVhUrjECyKroTU1mxmzZbT0LX1xMnDVF1PdSA1lk6SUgmXt8pbOHPIf1+nMqw4EJ6rSQhpErk2yq6O7/EkaSjv3oqM0MU0siYVF681yj4rwbvBNOSlr0tIki4Amxdk2VQIE0ctBgzoyCFRyFxsePpZ50C1Rhxounn1lhLthdphKGe5f1INW8irONpQkPPGjRuZnZ3l9ttv5ytf+Qqf+cxniOOYMAy58sorueqqq9iyZQvW2rKs+0hAuZ6hWlTdOutQEmCcw0aTbDzpNHRjLXP776NW9bnSznmd6U6cEDaWRyEFQQ8SdS8waKUM0p+lyKYi156tuDaBgyN3RY5OjClJF6WsGdolRC6mamOqJt5qguykouOKPuBbuJRtgkwGputQXdAphBZSLIQBW085g5k0YyII6YjF9JqID7Uk6lkroyySQ6ovsooVo9+t0Y8wDEmShB/84Adcd911/Pu//ztPPPEE1WqVc845h3e84x1cdNFFpGnK7OwsSqknJ3g4VA/gRJHaEFVdQxpOUF+3GbOngbXdMuBnLHQzg7XCgTaq7+8kboVi/J8sZFsiG89WbZuK8zrrpnD9jeE4H0+SdkAePY5sTNV08vY9yeli7XRZ3zSUVTGKsxfKA1VOEELfDTzJsJkXSRcNRikSFTG56QRUdZKUomjF+UlgHTYf+Sp3cYgtdAzcQDBRCjH3IY2NvjNZ1iVZxcrRT8xKqXJrNptorbn99tu5/vrr+cpXvsITTzwBwMTEBJdccgnveMc7OPvss8uc5/59rsTPfNBdbvpWiGX2jxGMKEwY4qI11NdtYVZHuMRXKBafyFJwCwUtRjbJ6DtsGSvxvmmXp7wC6wNrT6uo+NdV0yGkt6J1cFANcZ+qGE+Szi0H7SB0CaFLUJIgLntW4KwuHQp9429FRnWRpE+AsxZjUl9Sa3280gKuWqe+/jiqa9cRO0VqM0CjxBebjOFYfMqhkAnt9zm3223uvPNOrrnmGm666SZmZmZKGdGTTjqJt771rfzRH/0RYRiWOtD9OBpSJP1YD+g6IahOMb35JNrVBi4TJO9/mGVeHW+l7dnAW9A9ASY70CtUIBKyZ4Yu/mrk2gRAmH/OMFAnOTYYT5LO8zNDILTeL21UpgzZM0Pn0Ln6i50XrFvOvntFAsoJxvoBjemllaogImysIZhYi1QmSIzyy0atF6zsc0VVlwz6pFfJ/MlDkiTzfM7XXnst3/nOd9i9ezda65Kgzz77bN773vfy8pe/HGtt2SmlUK97stBbCRYrN4cVwShNO8uYrk+x4YST2F2rk+x1VEMfc8+c90+XnxbJBcCW6ZPo1zMv3+9Xk4rsWYFrE7p2aUkb+huAjRfGkqSLZikaCF2GkJEpO2Edp2hT3K3zYpKFhIWWPIIv5bbGK4zlDVNwzvv8gsYaXygQ1MiMBqUGXCerWRtHP0b5nGdnZ4miqAwAaq1585vfzJ//+Z+zadMmut1uKTd6tDbkdaIwokApukYxVZ8irDWoTlVJWzG6YA0DfrWIz/YsClBw+Wp1tKvN5S6TQVehn3W+uUZ2qlLNupZ228uS+UxpxXgS9ViSNPRKWYSsyDFe74Qt4G/yVuXaBge0uPKj1jlLlhls1htczvkUp8l1m1G1SQwBVjxBO+dQuTBh0eBzmKiH85plLIftkUO73SYIgtItUalUAC8N+qMf/YgvfelL3HjjjezatYtarUaapiX5nnXWWVx55ZVcdtllrFu3jn379hGGfvFurR2ZbvdkuztK5TzROHGkLoBGg8ba9XT3hTgVowGdGxy7d8ZsOX4KpVKcy/pWdg6cK2U258srFC69wRuVd33Yraj2WkW7rfHGlMYTtVey6Xv/If7+RyPGlqQLS1o7n+EBdguw1uaSjYcCvhmoIesL6ikFSMjUuk2ga2RWcotjHIbbUw+Tk5OlLnO1WiXLMu644w6uueYavvWtbxHHMXHsmyt08k46Sile//rX87a3vY2zzz6byclJZmdnS4IvCHqlQcIjDWMtmbMQVpnccByth6o45oA8Zc8BTnDWOyTyWphlofBDlxIKfcF5p9x6JN4EyXaFn6cFOTvGz5oeS5IufnCFDxxqlxE4e6I46oOEWfiB3YpK70QEZaGbOdLU+R5x+e1fBSBRjbUbj4egTjdxOKVQNo94LxQs7zv3fgxb2qtSo4cWWZYxPT3Nnj17uOWWW7juuuv4j//4D3bs2FESbBRFpGlKtVqlWq3ylre8hSuvvJJarUYYhmitqVQqpUD/Yip1RwsUnqAza0AUa44/mZ3VKVJ2UZE840J8JhIUFni/9HOu2riMqElB1qawtmHCquwEnL3Nn0tvMyxUO3vsYixJGvwP7n3SHSIXE9nspNCiVX+g8CAa/vk2RRnG9gYfCpyOULpCbXI9TRtgCVYt6aMYnU6Hn/70p3zpS1/ihhtuYP/+/aWboiDawv98+umn8/a3v51LLrmE6elpZmZmsNayb98+gCOqdHdw8HUEoVbY1GJ0gJ4+jpZUUVFEZhI/f6QXDD9UNx0HWCEETiwiQ4VRVfy/QPH8sT5zxpakBZ/aE7o2FRsTmWxraEFbhRPF/DqnpQZhXtDgHEoJVhRJJiTGJ+O7fM1mCKhMriOM6iAhKN+VQjB5z+Xhwxb50H0nPuL1Ho71IXvoUBBLkd/c38i1Xq/z4x//mM9//vPcfPPNbN++vWzkOgwR4dJLL+UDH/gAxx9/PEBZnGKM8a3Qcl/vcMrd0QhxIHkjANGaVAXo+kbs5GbSPQ8RkuAcaOUzOjqtFlNh4MXBStbOe2XmLdyEwcXocM6UUNhEZaegE/unnKZnTbuhzx7rGEuSLn5sDQQuJrKxDl12fGgtuCDvHH5wR7DGkaWG1HhLWgkkVqN0jYnpjTgd4fRYXv4jioWqAYvXoigqfcm1Wo25uTnuvPNOrr32Wm666SZmZ2ex1pbkOryv448/nje84Q382Z/9GY1GY2RK3VPHgu5B4TsW6SDAuIAsmkZNbaarK2RZC+18IUtxPYyx6EBwA6WLBaXaZXsL+2be8eK7eZVmyNHrvT+8GFuWKJZOoZdErIY2O07bfJAIFIL/yv93ZfsW8ZkdxmIN4BROeYlHowLWbNyMVOqoIPLNPMfFuXYEsdyAXLvdZnJykt27d3Pbbbfx+c9/nm9961vs2rWLarVaEnTxV0QwxrB27VpOPfVU/vIv/5KXvOQlaK3LLt5HVCTpcEBsnm1kQEDpCrqxHmmsR4UNJNmP4FcHw7UsMrDkGyLtlWETEAFPbiL5UYCxJGlLL0KsiQlduw52na96Wv5df+EgncLZPGBYzFenMICViMb643E6gryjihqbhduRR+FmWIg4W60WN998c5lK12w2y9cKHY0oiojjuLTKq9Uql1xyCX/xF3/BySefjNaa/fv3l+l1T3X41E/rx7A4CCuITEO4Bglr3h1o8VIGhd7MIepBqB2EBiysT11WVdAtaxry9/S7O45l+ybLt7EkaQfEeK9z6NqEMtMwOptKBrQ6RqfilcScm+KqKLIqKq36ltcuF6MpGsBaNKkLqa/dSKIjrNI4Y7DO+WM5mZfCpPpSk/zjeYnTLPHE4tfiKM8yOBj0W9P9bo92u02lUuEXv/gF//iP/8hdd93Ftm3b5n2+KNsuUuycc5x66qlcddVVXHbZZaxdu7Z0byyXoJey8I+q3yPX3TBOSKhQndpIR4WlSeGcRQT27UuoT0QD515UH65kNGrn1SdDgWrGGlTS+OePv37/rJzo9yn0NcLIT/GgUhjtMq/3wnGEg02hHDz+4I0uVhO84cqPjCdJ9yfYaRI0yaQVW0epUvhlRVNlKNNI5UoweRyxJHKRACMRKmzkwUnAGi98vopDin4/crfbJcsyKpUKrVar9Dn/8Ic/LDMvFtoHUAb8XvWqV/Gud72Lk046iXXr1rF3714ajca8zy3mB3/qwJY5zMY6kkzYtPkktrc71CRvWmtdT+L0EH1fnWvqAI2KyxpKt1FqFnE9oaX+uSZqpSQ5SIS9KsmFMDQ33WB84eCPP7wCsQP/DRhTS3oEJkBV+1ZvHk5WnobnVF7+7cDmqUO5VkggikCHEISggtza8NbyQWT7rWIERKSs/puenmbXrl3ccsstfOpTn+J73/ses7OzaK3LrI4iw6PIxuhHFEVcccUVvPvd72bLli00m03m5uYG1OtGHf+pDhFBEK8rY4U1a9aWz2sENVwt6Lz40iFCDZg4ZHt7CmOVpD0mgXCUlsCBErWz4rOR8vmuHCgtSBD5ihZycjgUZz/GWKxqLwgCWq0W//mf/8nnPvc5vvzlL2OMKS1s06cQNJz7XOCZz3wm73vf+3jpS19Kt9tldnaWarWKUoosO7YbpBZFJs4JmfUi/43GBGpf7rcu3XmFS++QHj7iiJD0YpnWh2N2LpXZPf/1VZIGlGOCoohqmKglJ+oVhyjU0Ee8Ml4YVSGIfPcVJ9RrvtS4sOCMzUlkOGreV1o+8PwxYLEdKIqgYBzH1Go1ut0ud999N7fffjs7duzAOccDDzzArbfeyqOPPkoYhotqZhSkrbVmenqaF1/4Yv77u/475557LmnedDXLslLPAxa/STzZ8AVVpjy/wgW0UEpgcW2CICiDrc45nMp9wc4xvXaaNPcQ9Q9TayxK9/SeXaGIlzN5qR49dK0WqZANgIZYhchiZLnEvJynaz1K1XKR/buDTJ8crmMQO3i8eRPaMHw+qyTtUQcO7tdYFo8rdBiB8stkZ105+Qu/51I5tcWEG7b4nvo+0JXDOUcURVSrVW666SauvvpqfvjDH9LpdDDGUKvVcM6Vgb90ge7WIkK1Wi0Dhccffzx/8id/whVXXEGtVkNrTZIkA2TcT/RHK1GLCFprJiYmyLKMvXv3Mjk5Oe89BZIkIUkSJiYmCIKAbreLFoeWAIUwNb2GR7JB5Ywi7lIIig1ehYOq2g3w8/LwoiBhOfoUQZz4tIFVkvaocUhy5XOJRrEDwubQa9gVhhVvSasQl9lSk7jsirFM9JP1OBJ0EZzrdDr813/9F3/913/NvffeO3At+gWPgHkWdLEP5xztdhutNeeffz7vec97eP7zn08YhqRpSpIk5UrnqVAxOIw0TQmCgA0bNsy7UfV/n0ajQaPRQClFknVRIri8FZyIQBD0MivELr5wX0SqtB+LyPEqoJpXHx44Fvps/nxv30PG0aEi7SXOfd53G/H+VZL2qCz9liFTeQQvWsjXe37ZaItIdN+FN84rDlgBEUWtWmH79u3cc889A6I9C57F0OsvfelL2bBhw1gSNcCvfvUr/vZv/5Z77rmnJNVhLHRN+6/Zpk2beO1rX8tVV13F2rVr0VrTbDbLFU6/m+SpRNSPPvoo9917H7t2++KcYQxfmyzLiOOY47Zs5FnPfBbrN2zAWINzjm7SpVKplNUlpRcwt6RLwfRDs6gQK8uZlweI8gaywLxx+jBZ1ysXWh17klbeZbZgkquy/T6tUdoag4PSYbG5deaKuKNoH/VWGqs1RedOLY6bb76ZD33oQ9xyyy3lEnMU4RbPDU+qM888kw9/+MO8+MUvRin1pHf6ONwQkZKM4zjmJz/5CXfeeSfgCWb4+iy00ugX5t+8eTPve9/7eOMb31gSsTGGKIpKcf6CrI9Gt0Y/tNZorUnTlK9//ev8z//5P9m2bRtpmi55cyl89mmaElZDnvvc5/Lxj3+cLZs3526jji/scQ7jIHAKawQkb0hbBA+Ly+16hWGF18MOncKwj3ooBzpySnCq38odJLalu3f1FzbMhyx4TXJHwxI/t503tob3N+IESz/5qKSE3ncd9qKPLSwKhwodalnLsxKueH/vVyz8c87ZBaPdOqyAUlhjSNOUv//7v+fHP/4xaZrS6XTmkfEwyRSPi+3OO+/kwx/+MDMzM8c8QY/CbbfdVgoYLbSa6LeCi+uqlKJer3PBBRfwxS9+kVe/+tUD2R4FtNZPKXGkOI4xxjA7O8vVV1/N/v37l52FkqZpuRJJ45TbbruNT3ziE+gg8C48LcRxp3x/2RC5sKRXMn+WATdScexgd6oGtyONAzjm0T/qDiMchXM+UFa8+p1DDfqJisT9A0Gf/65ouFmpVECH4AzdTsw999wDeDKIomggEr8cF0a1WuWuu+7i7rvvLkXlxwHFdSquX3+2xaj3FegPNl555ZVce+21POtZzyqtz1F+6/5O4Ee7JR0EAWEY8vOf/5y77rqL2dnZMg98KQx/9zRO+enPbuPxx3fSqDeoN3pxvMJdtyiWcakK8f9ig178BsgV8WzfNvh41OcH99K/t/lwqIFtpZQ4//jLO+7g503fNv/7jL27wxLgCACLxQ4JKuXBj6VIesjvvBBEBMQvZ6yxKCWsX7+eRx99FGPMSEtuOfucnJxkamrqKWHpHSoUZGytXbAku9+67m8Ke9ppp/Ge97yHF73oRWX2RtH66qkOay2tVot169atOJe78L0XqDYqdLtdJicmURpE+hL/DxFW3svzQI5fCIwsd36ssPn0QWPxjK7xmdULwKHIlEotKreqe3fTsgHA8BJpoR97hOGrxPuedc7i1rm8fbiiVqvxspe9rHyv1powDBfdoiga2DqdDhdffDEnnXRS6WM9ltGv+VytVjn55JPnEVG/i2g4ZfFVr3oV1157La94xSs44YQTCMOQLMsG/NmFe2OU1VxY1AVWmpVzuNHtdqnX65xxxhm87GUvK793FEW9vOcFtoKgwzCkUqsSd7r8we//PrV6lSCQXL4UpCwZ70Ohey59G8prUw9JJvRvo57rs2el+HxvUwObcnZgm2/BDhO0WnwbmNt9/19wRW2GthFYiDecQg1so6/PWFvSFrCicATGa0hn+T2tSB86sDupiEJG/KAKi8sSyHNNwzDkbW97G5OTk2VLplFaEIP7HiSEiy++mDe/+c3U63XiOD5mlNiWQkE+L3/5y/nqV79akme/JVj4qqvVKnEco7Xm1a9+NVu3bkVEaLVaT9bpHzYUedBBEPD+97+fjRs38rOf/Yy9e/eWbb4WQuF/j+OYk085hec9/3xe97rX5YVCHWo5AfoxePiyifqs68Ne0tnfGe9AUrr7WeLgLd7RnDPWJA0+cGgIuloyLCq/ew1drMXcHf1iLzLiMb5oBQzOOrI0AZuV1tjU1BTvfOc7eetb38rc3NySWsTDJF24OmD5SmzHEl75yldy44038r3vfY8gCOatJgoftLWWS151Cb/1W79FpVIpsxj6A4I99cLejzjKp300wxhDGIal5vWHPvQhtm/fjjGGarW6KEn3rz7qkxNE1QpgfRNd7di7exdTE5M8YSzW+mwa47yChzEJGIs+tEMw8XNv+cZST6XS5IUqwxV+g+8fVn0YXCGMOO7Q582Q3o/qt6aXUa1oFzpOH8aCpIscjP6/il5ytBUVi1Po3Hr26ngrgRRlV/54w0vgnLwFCzYFZ1BYrHVlqtfs7CyNRmPJ4N8o0ojjmLm5OSYmJsbKLw2+zdX73/9+du/ezR133DHyPUmScP755/O+97+PDRs2MDc3V16nwvo+mlwWB4NarcbMzAxr1qyh1WoRxzFbtmwpGxIsFvwsrkWcdEltXiIfBGg0igTTR/CDmUzgnDnU2h1WHPHI8yzS+Zb6yQaIOifrIYNLIQvsZwHi7C/SyZsjLHgeYpax4Fj6BjQWJC3k/QzzLcj/TgKBsxgJOoBVWGVRqELfq89nVv4QQ34l38mlJ28q4sWTIEMK7pYirmixWQp98oRRFNFut6nXl1cBu5AlVyxzj3ZL71DDGMN5553Hpz/9aa655hq+8Y1vsHPnTuI4ptFosHnzZi699FLe8IY3cNppp9FsNsvuKf03tFGl3aOu5dFO5p1Oh0qlUrp3tNY458q/w8Hp/u9T6HwEYYimQuYynDMoDYEDI70Se1E+R1kFgPb9K3R/n6sFtGfKkFxx2DzReR7ROYxTriPWIQPL0x7xCSPi9fMq+IrvawfOo3eYwefcwFky/EKpaOmfs5Sa8gth0aSDxUWKi9fGgqSBXk9DvAUd5RuAJWhJmW/Rf+HsAXVNKYNJQwNGASYz5cB0zvV8Iqs4IBhjaLfbbN68mb/6q7/ij//4j7n33nvZv38/a9eu5dnPfjb1ep0wDAd80AVBH+2ke7gxSgPGdygil+xXgEGLo1av8dCeJ6jqnu56FHljNYoCdJgdeLrqfBhgXtCgn1D7/cmLI7ekR5xb/8d9BWXh6lwoHW8oRbOf4Oedy4hjDhh5ix2nh7Eh6VHwCUUKI0FTOZs5bOgk8+4ON/xO8CbxwhddRFB5ip3SmkD3WRz5kjBLuv6o42XwHjZs3LiROI7JMu/nn5qa4sUvfjFBEJTVgv2FQouJWI3bKmQp+BuYT2NUWqGwJJ2YughKgT6897cUaHmi6/fzwmIKdj3SHJqni8Q6S/dJ/5PlcZZ2Hw58fh4/LP5ZN+/I84831iQNYERhnZqzohLrVE2j8lLwFVYf9v04IoJWioFc/zzRPUvakMUYmxFEmtSsEsPBYGZmhiiKypL4IpPDWltmK0AvqLpKxCuHWIcOPAFa58oWbrVaQGK8W0+UoJQcyszirnI05z+9sCV7IOg3llaes33wn18Oxpqk/SIowEgwp8g6Wlgz6Hsq0C/OsTB5OytY59C6yLP11kbBCwqLyTp0O74KLIiqpJ3OgvtbxdLo785dZDUAZceVYYy7e2NZcAorqky1MyZFIzRnZxBrwPhU1SzL6MSwdoOglAaynmkjOp82CwQph4J/I1aWbYSmz41ejPrt0L4OV+B8IT3qvkywoaDicrDoTaa4Nss/yWMTzlccNkH17torTPsZhYKkB2FJkyatuX04N1p8fhWrOFrgrPNWNIKYlJ07HqFaCcu+fu12ToyHoRIRmGOET3oYw5bsk4PDS6NjbUmDt6RxUUvb9v7A2QXu2svwSfeJLTnrUFoIQyHQjtT6wdxNUip1oTm7l5ooWp2Y4BA2hVvFKg41rHNUlCAmobV/L1nc8V1bUIj2qxYrQOHqKIeztyqXS18j3AQzQMdrdfTFfYaI+GDdC4f08/P83iu/cY0KhI4NSVt8uLi/hEkD1tUR2+yE1u4JXIYqrOji7wH4MF2ed+crD035Q4qAM106czNocZgkI6iOXwHKKp46sNb4vslJjOnMYk3sM0AMVOsV0oNQXlyCIHdZIfal2r1A70DK3KJ6z0NZFHmD6CWxUFn4vNvNqDQ9Nfj/Uccb6S7Ni6kWOL+xIGmHDxUboIv/0kVdmmEC5fYmoc0er7gEozNfdFLUApUXrigfXNw2cAIGg3OWINDe2kjzyiaB0FraM3uwSQelJhfd1yqWxqqP+XDBj3ONoJ1Fp01cZz/Kpr6C1mmyTKhWoVILQWmMk1yjpgjsWPoqCOYdYTGSdrATyLwa3OCcW7lzQZc7PXwYkTG0wuMN293F47Eg6eLLmqG/XcBQwRI47eyjmiSvNzw4/1rPkpaBDA8t4MhI5mZJ2vsJJ9ciLhhYzq1iFUcTAqURk+A6+3Gt3Whn/UJTNCZNB8vAnRph3Q4Wqyy7WhC2+3ztQvSsh95n1VAdw2KprSudYyvlgFEBxRF7HZVLvQTGgqRHweKHj5HADyPJtpXOkD5Xx7xB1e+THlDWgmJAeo5WqEAIwgStHZmFUIPYhFZzN+ncbsKJ47FUMKvx21UcZbA5AQYKdLeLa+0hnnmCqXyOaGd7ncLF4pSA9Z/zcySv3VumNdkX9SkebitUKXPN93mfUc5iyfr0Ovy55K+u8BvP23v+90DJenkYXiX0H6+8sa3wDI4JFLFoA6QKUqUwwiNW7ICgy/IG2EJVSRZRDq16RYXiQNmUrLmHdPYx6qqLHH6hr1Ws4oChEEJxxDNPIN1ZJPNpdtpatBvqHH7oPE8xsK3Yp/FKlTgXFdlYOIKcuIf8wMcgpR1732iZcHi7OdXQDaAbsN0omi4naeV8Uaw4QZz0CHsRTWnvH7WIAlEWpUC0AuUrGJWDwFpUZ4727gepBh0C50najljWASM6TqxiFYcbChGNRiPWoEmZ2XE/VVKwft0XYYiAiSrUogpiTVnkMoghhY2R88cN/d/tB3Z4KeHe3LC5RV08djJ6Hh5aWltCf3oZZd0Hd7wxJuky20MpMgVGeNwIu/qt6H7h7ZXt2WsYKGVQ2pfQ4kAZCIwhIqW9exuks6UlvVoJt4qjCV5wyqHJIOnQ3ruTmk4H6EOAai1CaeWbWRSuhqHenwsfZHRWg0OeMErtLqxlm7s9DAFGFEYCjAQ5UR+673y0YixJuvRHk7s7NDhRM8C2XnK+/yMMEXXRoaH0fdmhLX9WLAQapZWvQFTeJI4EGoHQ2vcYtPaiXUHS8/OvLT2rY9WiXsWRg7dVvbSuIW3uJZ7bi8oSwlywwypPrrVqlUAfFXPnxwAAIABJREFUeGjLMWq1qB7OqO5PpZrHjHJSlpy0+7ZxoLDxDRxKQdIRxkZYVAfUvaB+G0xuByzBiv1loP3P9Y4CkLetd6UMohZFd/8+bHuWYDJF2RSsIDo4zGlCq1jF8qCcJRSDzjqkrTm6czNENvP6HeJTWkUDgcViGAiwLVYSXbyWK+3ZwgIqkp8dGAnuiWUijdUEhjo290WT9yItYETRBZRU82eOrQrejDqWcSVpAUSRYjFuAuvqKBegnLrLCt5EcH2CKQsW2M+vQCy60GsczlnqtRrtuRaQYRVkWpNZwXUMux54hOk1ZxPUDUa83q8qmqfKkId6lbxXcYSgsOAyQpfi4v009+yg02oSWT8+rXVkQLUCTsX5/Mj9pwto3gw+74ZfHkBGdFdHTdNS6/i/3v6/aS9wnoXLciVTY6Fc5IWwjBKWw4YM//3Gk6Sd8hqiWIybwtk1+dLJ3gV0lFM1KH7AxaqahhKH5r2WC433lX5bgTTN0JLS2beHieYeouo6MtXIZabVEsdcxSoOL8SBchmBS0hb+9j96AOQxb4JrVNYsUgVgkmwKvMrxXIqLEV7bqTbzu8bQJpGol/HaopYpssitFEwsOjrozDv7JZyIQ6tlEeE9ldw9APDse/QGQWxIHnqm5nG2mkf7lPZA8AuCl8w3qhe2hfsRmx92R7icDo30J3B2S64Lg/f+0tqtktDW0KxOF+rOJDlMdxteRWrOPywaDJU2qJKh93bHvRFLIDOmyWEdYgW75k8es/Sy/aQfLWq7YBg3k5D9FCXCWJZU5Lw8JbSo0cZsR1LGE+SBv9LWoW1dYybIJM6RqLHccEDkOdnKk/QixL1QqMj14+2ziDK9b3H4EhQrsuammbXtnvAxojxzQAMDuN6g3gVqzjS0OLQLqFCFzO3C9PaS4DvKGSdQ4eKStW3zCqxwo4sygnKCdr2JZw5cHCvkWBXJnVSJkq9nf7QfP9jOPZJ7Fj/fguj7KYQYKgSyzQJUy1cdIdYv6QzymKWsqTnG9A95Bb75FSFiQlKlbB6VROqhNbeR5l7/GFwbZ/lYa23tsWnQDlXBGSOrYDIKo5eKASFRbsM09nvx2fXa3bgjA8SikUcTFSigVRVVQgZDQsN9W3K5pvzm7aeqHUu72GFn1tRXUMVQ730OfeT9PB0658do6bhopi3CF4o9/rJw9F1NkcS+aBwKiNVATHr6LIB66JbEWutslgZ7T9b2WFSwhAqVSFvDoLCEJJCMkc6+xjMPkFEVup8+AT+VaziyEKcxZHiTJeKNrR2P8beHQ8RmRjtLKro3YnXoamEo9uQLQ5PzmKVt6Jdz4oGMifqNkNERh1DvQyeFWTdT8DjYr6ML0nnX92qGKMssWwkdseBi+5Qzu5z4sqb6qIDYZRDrF8ITDnCClSqoSfpnPR9kUCb1p7ttB69l0g7nxHS1whgHBL1V/HkoshRFmfR4hCVYswsQWCY2bWNfY89TJDGSGaJgpAoighDr0OjtCzfAdxfV9BXZyD5S7l/+glL8EtDlYxJ0pyki8a4wxUJoyNBo6oWDgHySuT5/+af10qOv5zPjydJl7+od0ekStGWaWLZgCN6UMF9spALY9S+lnjROZNb0/mzFrQz6LRJNvsE+3Y+CBVFIAYZUvIq3B+HAsaY1crGVQA9ci5GQ9EoWeEzj9Bd2rsfxbX3ELgYLQalQQfeFx0EYI1ZWdxkXg2BHbSMHfcYN7EtZYKUOkaiotJgJCnP+04cZsv6STKaxo6ky4p4l5OhZBhRdNQUHbUGQ7Qf+CkMZ1YsZDKz8C0d0Nq7PHSgqDcgy8AZCA2srYHu7mffo/dBMoN2CWFR6QWlXsFKf6Zut0uWZVSr1bI7tvdxrxL0Ux3GGNrtNkopsiwjSRK01qRpShzHy9pHQc5u6DnEi4LVQgV7H6P1+P3Yzl5C1UVIMaaLIyEMBR1p3/7NgRqlx1E8HqjO9cewYnHiMMphlSvKErCu8pOUqVYiU6RSJZO8gKVPKW5pq3Vwvgy/Z9mKGwue/xLb8LVe1jkvjOKcxxL9P2Mmiq5MEMsEXR2QifoRThuQMgp9oBABay3OGSqVCkHg5cEVPlgSuoT9ux5l9sFfE7qYwHVRQ8p4K/GLG2PQWufL0pAgCNBal/9fxVMfRefziYkJlFKEYVjekItGvIuhSDZCCoPA4sTiAoVDoZ1lz72/IN23AxfvQbsUBDIDiCGqBCilSNP0AL+Bw6peaXkeg0mMVH8cyxRdpjASYUTlrsNFaOpYzr3LMXazdtjP4zupKJAqiaqSKEXmuFXbYKe29gRvbdveXW9eqtHwyBi0VkWBNZ6sK5UK9VqX2ObP4RdyrZldPPDLn3Lm5mcwvXaavV1HJhYroMuODwvdd+cP4ImJCW6//Xauv/56Wq0W5513HhdeeCEbN24ky1alUZ/KiKIIEaHZbPLpT3+aBx98kEqlwutf/3q2bt1a3qSXgrbeQiy0M1INOEUjaCDtvWz79c9pPX4/GysWXQw97V0dtXpIEBhP2mXMZin95cF50ZtP/o9y+tGU6s9jmSJWk6RKLfTR5aGYlodq8bicG4Ab8b6ljr9kMc0YkvQoeAGXiFSqtIMqMdVHai77eWg5QZxPK1IqJ+piCbQCSJ5Sh3NUqxWypOt/PKWwWUaIYXbn/Zj9j+Fq69FqEmu9q8NZV1YsemUyQSm1YKfxTqfDNddcwxe/+EUefvhhunkPuje96U189KMfPYirtIqjAXNzc1hr+Zu/+Rv+9V//lXa7jdaaG264gSuuuILLL798SaIWZ/N0OQCLzTXVK0qTNlvsfvghmjseYTIyKONXfhneD12pCkpbjE3pLzQ8UPi0VMGibs2kuqOtJ+ioCUxBTa5819KY12PwCOd+9CUMHEqMrbuj5xPy3ilHQCoRLT1FU0/ERtRN5LV/3oed69lK7iteQP95FEQoU5dq9RrOQjf1+xHRBFjszE5aj92H6ewlUhmiHGK9Ne2s9yeLy0XYdUCjVkMhGGNQudXxta99jcsvv5x/+Id/4O6776bZbJKmKVmWcd111/Htb3/7UF/GVRxhTE1N8f3vf5/rr7++9EFba7n33nt53/vexxve8AZuvPFGms0mSZLgnKPb7ZaxCcnT6ETEZ3MUaXUqRGmFdPaz7+G7yeaeoC6GojuW0lCtQaWi8vGcu4pLS3ApL6v3R1iRvOrQw/ujFY7gu6mK0o6aohVMYKQQU/LbgjNtnj+8z9u8jHznhdWhh77PqLjTIrGoQwe1aknjAnABViypCui4dXRkHanE30fifWJZCwwELw4YYgnDiKgakaWJ9/9pRcVY4s5e9m2/B9lyJlFjM+I0IIi15bH9RFMYk+GcpdGo000NP/rRj/jkJz/Jd7/7XdptL0cThmFpcRtjmJubY9u2bQf/HVbxpCIMQ+6//36azWa5sioMAOcct912G7feeiu/8zu/w7ve9S7OPffcMibR7XYHGvdacn+w034epB3szDbmdvyS0LQQ1/M5h4En6Eo1RCnnWRrx2o6j1CCXAedzmXASPAHBj1KqxGqSrkyQEQHeHTgOudCLYYxJurhfRrk1kGFQtNlIW/ZiZPddVuwvEHchkL9noYG4nFtorn2gNZVKhW5sEAICp4lESOM59my7l2zzw5yw6ZkoFeRE7a0ILzRmcc6X5s7s28fMvlk+9f/9M9dddx27du0qA0pFtD8MQ4zxAUvnHFu3bj3gq7WKowNJknD66aeXQeAirbLI3EnTFGstN954I9///vd54xvfyJvf/GY2b95MrVYD8D0DXa8GwBKAi6CzD7P7V3R3/pzINLH4zAscRBHUqhFRFGGtV74TBXaZUe35b/MRGYcik+Bnhuq9iaqSyATG1XES5L0NVzG27g4PVVrSylmsKGLxlnQi1Tkj6ltFYsehGSw+LzuILFHFobRPA4ysUDcGt+cJWtvvxu3fTmASr6Eg4Ezqg5fWUq1WmZ2d5bovfYk3velyrr76anbv3g0wL9pePO52u1x00UWcd955h+RbrOLJQxiGnHnmmbz0pS8tCbk/tdJay8TEBMYY9u3bx9VXX80f/uEf8rnPfY4dO3aU70tthtYhPvJniJwj27eT+PG7qKa70NL2Fbnip0hQgSAMkKIhhiyPnBeCckV5isIQfbOjJzpNPZ3rdVTzziurADiQus5jA7kG7iWXvRZxQkCGOIdRQiBdpuxjVNxcEjrzeifUSpGlvq1Y8I3MAZqXEqR8gMQmVKoaqxKacxnKBiijCROwSUKzuYenn3IKMnkcRk+UbYqcsdSrVW786tf58Ic/wj//8/9m7969WAdRoNFKYWxRPOP/hmHI05/+dN7+9rfz7ne/mzAMqVQqh/nCruJwIk1TTjzxRM4//3yq1SoPPPAAWZaVKyZgnltjZmaGn/yfm7nlJz/hlFNPZePGjThj/Hus8V1Yui32338L7bu+STD3IIH1TZQLQcjGhKI+UfWpeioDbbG2L52hLCooHudlhHkrLaHoGaoQHAp/A8hU8ESsJj80qzfv3K+2MqeOp6sm8viPcMMN1/vd5d9lfmFvv0NYmO8cHiwBXtqt7HCjVsbLvSeVrcMOlYPajTNJ++3SS1+LiCVwXjgmE03o2ky6nVTd7EzgshcrZ08xan4ipgBO3Ojfb96TufQpBh0IoiFLHFnXoWyANg5xDgktHRzrTjwLo2voMCQIQ6y1/K//dTV/95GPcOedd5IaRyUKcbklldnBQTE9Pc3v/u7v8oEPfIDf+73fQynF9PT0svJoV3H0oggST01NccEFF3DRRRfRarVKsnbO0Wh4DdHit3bOkSUpOx7bwfd/8AM2bNjA2eecQ7vdIVBQcTHZ7kfYc+dNmEdvpprNAnmOP1CrQqOhiSoRRf9OsPQM+P7B3kfaCzxW9OZMptR/tvXU1XuCU7J9+iQ6so5MarjcCLr++kGSHoab92h571wxlr1wONS5f+Ps7ij0olUhfAj+cgQYqZIyRcJUs6uiG1NV3PtB8opAKTQI6JXYLuqek8FocaA0tbr2zysH2uHEknRbPPbgr2nvvJ8p1SV0Cc5Ydu/exb/927/x2OO7yPLddLopxoFxXvCmXvU5tBdeeCHXXHMNH/zgB3nOc55TBpnm5uYO6SVcxZGF5F17ms0ms7OzdLtdTj/9dP7u7/6OT33qUzz3uc8tX0+SZOCzBkdmLdu2beOfrrmWR7bvoj4xhXaWumkSPn4H6cO3Ymdn8mNBZkEJNKY01UYDiykb1B5c9apCWUE5sUh2Y6KCeE5toqk2E+sqmerlT2nGebnvMb6BQykKLm3pexOnwIF1EQlTdGWKqjS/GUiyXfCFLYvdq5eLYoArBTpymG6CCkKcs1gTE2RzPHz7Dzn3hFNQtRMwOuDBhx7k/vvvZePaSfbtnyuJukClErF58xb+7C/+b172spexdetWOp1OGUCsVCq0Wq2DPPNVPJlwztFut2k0GkRRRJZlpGlKo9Hg4osv5qyzzuJrX/san/zkJ7n//vvLXOnh1dPOHTtIs5RAgbYJyRMPsvdXPyCYeQCxXazJS8ed1+qoVSPCUJFmGYoiUHkgX6DfJlRYeNgI30kloi3TtNWUrzIEcLbUmoaeoNI4YnxJGigUucq6flEoZ8EFdGWCjpqi4mbv0ZLcFLrkcisZXmqx93mhCIIMYYERJaJykhYajRpxp0Pbpj6Hw4E2Gba9G/vEPTx66/donPMK1LoGz3zG6TztxBO5/a77CIBIIM3Le5/2tBN5zWtey+WXX86JTzsZgDiOB9Kzut3uyLLwVT2Ppxbq9XqZ+1wgyzKyLGP9+vVcccUVPO95z+MLX/gCX/jCF9i7dy8AlTCim3rr+uSTtjI9UUMlbdzcTmYf+iVzD9xGNd6Vdw7yfKoUVCoQRlE+TmxpzQ/GDUuZphFujuKNuizx9q5qi1XBt1MdPZiqSVJdI1M1nNjcd+2zR3x+kyxiGC3XZFqqInIJlNPkyDsfxtfdUaLQLvD/8z95QCKTxDJNVyayVKpftgTlrOi5NQ7s8hXEaMio1BVB1WG1RYmhqqFiWjCzjZ133wZZTLfbpVKp8M53vpONaxulskco8LrXvZZ/+qd/4r3vfS+bNm06sEuwimMCzjmyLOOcc87hAx/4ANdddx2ve93r2LBhQ9n2atOGjbzpD36ftfWAePcjdB9/gB133UrVNQmswVpvQWO8amOtrlHisDbvZTiMgaeWR4BWIFOqnejgK12ZsF3xxSsuT3NV1kcsD7uq3VME42NJj7rhCrlvGawo3x0CXwHVlTpeR2CKqm3/ICK5XaOeR06Rki/dlkvTBbG7QtfK+RqVai0g7mQkyuDwXSpCsYTpHPv3P8YjD9zHmmdtQkS47LJL2LT5OG684asEQcBzf/M3ufiVr6JSqZEax4bjNjE7O3tQl2kVT12EYYjWmm63SxQo/ttvnMdH/+7D3HbbrXzrW9+mXq9x3nnncdkrL6a16xGm7SyPPfRLWo8/SM36PpyawvUHaydCJicqKGWwxqJ0MX6HsMJkBieKTNRPu1L/r46sI1ZrQDI0McpWkVwSQQmYJS3lpWj8cNuhh/82Mj4kvQy43A9nJCBhgrZaQyWbomqbu2u29WVH53lFEj/k3SSWtdrqS0tyQuEHF8QLL1U13RRcx2KdnyiRpNSyOR77xQ+Y3ryVOVMh2HQCL77wJVz08ldg0oQkM2QWOp2Yqem1qwQ95iiyO4IgwNmMVqvNunVrufDCC7nwwheRZhmBDtE2oZrNsevBn9F87G7q0iZLYio6QGyGs1CrQLUWEWrBWS9h6pwdTF5YpqfBAVblGjhAJsolqvqlWE3tb8sGEqbBBb75rfVGjC0s6VKA6VBfracODjYGdkyhyHAspETrwBc//geszx5hU/bwGXW36xui46cpILDahx1lqZBGYULPv6N7ASVN0oXWXEarmZHGgIUojOiqSWaDDUye8SJOesnl7GUttcYkYRhQiRSiFYkNSPsOv9Iig1Wf9LED5xxaFFopMpc7xZwhSRLEOsIwIMsM6d7tNOYeZOfPv0PzvluI4sdRyRxaJyDeF71mDaxbN0FYAWsLB1uR0bRcR4QqpUhT5clXGcFQv7el1r1iRm9+8LXvvJkZYA5ISos8oIgUFeN5IZI2YxBOXPVJ96Gg26JlfAy0WE+HNSSE9xgnN7iyEcDyBZYWgnJ5UW7giCJFJfQuEOcgyRK0aTGd7cY99ktm7vsZurMHk3bpZpY0E4xRZAuo4a1i/FAQWuYszgnWQmps/pojbrfotOYIXEJ398N0tt8Fs9sJ0lmUSjEGEC+k1KhXEdVfzdhP0MtF/3v9XDGZJTbBv87ZNQ/utxtpA93inYXOdWlHrwJWSXoeLEXjS0UXytSgRAfOKD4nNtiDjXJR8qAk6p661/yilwEUnR7yHGstjkAJlUgRVrzaGAqsBVxKaBPixx9i3y+/S23/Q7hum04C7cTRSce6b8MqRqCQMXCisSiM1WgVoIBup83c/n209j3Gnnt+Cvvup5bup2pTQvH5pUp5kq7WApSir2P9MJbTMUghTqFsQCULCLOILJOdHVP5l/1mHTN2Ey28MVQkCfpbQp8+pRtvVweszvAFoIAIgyJWE7T0FHPBBLGq35q5yjecVRiCXk7nSCxB1tCzTCQjCA21WlA2q7WAFoMmI0jm2HPX/0E9fhfR/8/em0dbltV1np/f3vucO7z7hhgyMiIyMiEzAcGFLaCFQ7day7IynaBFe9mu1a1dVPlHWa2FJSoqa1E2whJLrG6qpRQUrabUFqtRSVBAyhQRSJKxICHJJOcpIjIy4sV7705n2Hv/+o99zn33vXgRGZGZwXi/uSLvu/fce8Z9vue3f8P3V5yBakxd19ReiItutQtcAFaUykc2xxNEa3r1OsXDn2Pzgc/Q9Zv081SwojFlc/SXoNuziAlz43PbqHgiEDXY6DDqqGv3riL0PjOM+9iMaxSAx3wNOC2eOBYkfUE4vHSZmAFn7QHO2gNVYfp/GCTfCrO+KpLazTdKZPPVhxfSnW6/rwQQj5hA1oErDnVxebJoslxQDSx3DFctee788Dvxj3yWK7IJxdYZQkg97uaLFWbrXfQ0/JqGiTUSSkJdUZYlwxKK0RB74tPEez+IHZ6kY8GaVLGqJpH0YAl6nZak/S4f9IUs6p3/2gbK7QgMITIp/Hot3f+nkJVQuv3QO0KFIZJfwHW422K/GAv+YtbzpcK5ytUX84sF9kQalEGFkiU25QhnzZVMtP/BIur76rq+cI+3S9XXlYi1ETE1/T5knRQUSU1DPZlWDMIWG/d8lHzjflZtxWj9JFU5ngnsnHdXFmT9VY95WQJVJcZAXXt8VaDFCOdHVKcfYOvuj1M89DlySsQo0UK0bdcV6HQs1nGJAULYm0zTq4+R0heUgb8uzOpHS7OPmB0gmKUkk7rABbE4Q3si0grJBJSCHspVWKnZL2eKLpu/n2m4QaJfxjRt6ZtiAXkyTWtNxGWGpeX0fjImKY2pJYpiYsnW3R+jOHKMpWv+EWNZxY8FnXO7tKXArWUijTB7ClIu8NWHpntPM+yCGjQEylrxtYe6ROpN9pVnOfngp/DHv4CrRzjnqEJqtCkObA79vpB3HEjrhz438HdJUIPXSF17QuRsMLyldPurMj+UuoHHeX/3YnyeDwtL+nyQRtNDA14zJrqPqV7BlGUq7b0/xOw9QVOvZVWIT5QEd7muVSO9ntBfam4T4wkEVCJWa/p+gwc+8beM7v0k+82EUE2ZTCZMq5LKR+oQ8VEJmsj7i+32eLI6wwtcLCKiEYfiSI0ggiohFJTVlOl0QlVMifUmvfoxeqO70ZP/jW51mitWOmTWUgfFayLpPIc8N5g9GeGJEXQUQ1kHqgi18M7C9D88zQ8xsVdQaQ+Nqeh7QdAXxsKSvhAUYgygFnDUfolxXGOJzSIz+ruW+p/GGNacSZocsG3RtAO7lTKITeDFNA0y20SQlj+l/VvAiKQgzkAppoqnJETBEujEwMapexnd83F6+w9x8BnXcLwSHju9jhrLwQOHcM6SO1A12Lkp8DyeCjK11mKtnblanHMXdgHtga82V0yrbXG+43pqHmJN6qaFro/UChOUCo/1U7yvqCqD+DGHVyo2T9zOIx/5a4qHPsUVuUdGYDTDEHE57N8Hg0FSZJzlRM9rQ6Pb7rs2gNi+N7uPZ5vQA4pHKI08FsS9aSz7qnU9yJADVLpE0KbWoCHpvahazglY7np/0cPny+VBcOn7sbCkHwdRNeXDRai1w0gOsMl+Rtr7YB3dX+5Wo7sotMLgu/TJ2wafSsRa2LdqGSxZbNOUVmINWrJka6an7ub4bR9ievxOlqVgkFkIkUlRMS3rJFXpS2IMqVLsMsB7T1mWM1IqiuK8Xcy/FjDfa7BVqAshXLZzojHJj9bBU9eBqlamtVJUAYkTOvEsZx/8JKfu/DC6cT9r4jE1hArqWCMZ9PuQd8BYaUT825U/OWqIJqIS8U4Yu+5/OeuuvPVMdpizsp+JLOPJ0JkIztfumLkYLCzpXZgNzdbCjQoaMBrwCBvmCrAlnXqryvz6f8xMvBHHkagRxGGfZBHnzNASJc8tva6iPjIMig+QGaGTZQSd8Nh9n6Lsr3LVC3N6+66l9Epdpw7R3VgToyPrdME4dvUEmInHPxnLzhiDiMxIyDn3NZ1V0h63c27WJaUl6aeWqNO1qzUwlkClgbIWqmjxuoKGyCBs0Cke5JHb3gsnv8BKjOSmlx6kosRuTnfZ0l0u6XZN07R4e93QSOFdQuqdGEFjakyrGqmAiXUPbrjB754x14QN83SmukbQHBdAxT/uOhdYkPQFIQBREU3BwRpLbVYRnbIiq3Q4/fFcx2/NvH+FWBAJGJMCdxckv92l5Ht16zGg0ZPlht6SRdUzHkOIgTwH6gIZjdm440McuvJKlrrLLLHEqDKodtDoQTK8zTAu3YRt9/CnCq31fN999wFw7bXX0u12z/nOjuP6KvZZtw+t8XjMyZMniTFy4MABVlZWgETYe8nFXgghhFkweNfWqAmMgsf7SKyFWAfE9rChph9OUx6/jfqR21mrtsh9BsEipgd5pDvIWFo19LrJHx3CfKeVPXCRZJ2I2qAx6dAEcX9Q29XbhuYoY45RswJqmxZVC3/0xWBB0ruwu4bPRNOo5EVUDLXpYs0qo3iQvgy1E8s3Z3HrRZmJX29RgkZEDNLoTmszuLdldncOyt2ctfNGiThnAUHV4kOgKiFqgRhL1xR0ixOc/tT78Jpx4LpvwWWOGoFQE72iUqAhkmXZjETmb/pLJVERoa5rnHO8613v4o1vfCN33XUXq6urfPd3fzeve93rWFpaYjqd4r2fdTA/3/a+mtB2v3nta1/Le97zHs6cOcM3f/M388u//Ms873nPm31nHo93vmOMGGPodDo45yjLkqqq8N4zqUoKqfFe6Xgl1wjVlGXdYHLfJ3ng1nezOj2FrRWtPSbmjMuCwVKPlbUOq/sytKqoa4+I0O1mF9yX7QPdK9WO7YBMjFABgU856fyBy1aReCVqDmClnzqEO0+UuKDoi8DXemeaPTGfcPG9N9w4S3HyRghGsBLItSDXGqflWSNVsIQbBbWigjE2BZBkuweiNOayXEptlbbWWeOe0EiISf9ATCQzSi/WlONNNscVttOnM1jG2PTsDViCWELUmUJa2wjgfORwMZZuXdecOHGCX/iFX+D2229HVRmPx3zmM5+h0+nwbd/2bU9q/V/J+I3f+A3e8Y538Oijj+K95/Tp03zkIx/hu77ruzh48OA537/Q+Zh3HakqIQSm0yllWVIUBT54fEgNlDNqujomL04wue9jbHz+/Zgz9zOIJZ0IpiHQrGPoLRkGS4FOHiDW7B19a/19OvdezvVVSyuLkOI3GoXae+pay6m6V07MgX8YmWNsmqdTyAEERzRKbT0+H15sAAAgAElEQVTBwPve/Z4Lns+v9vFyMVgEDh8HEYPiqE0SJXdaYTRSygpDe5ChPcDErP5pFeW/xgAawGJnFVdPBmn8R4wVnBW6PUenkyrEkEgvh5UMlnVKPPV5Hr3t7ygf/jyu2iRiKNVS1mHmF62qalahGPTCFZHnQ6fTYWVlhbe+9a3ccccds/W2QbIPfehDPProo+R5fslT+68G3HrrrWxsbMz80tPplLvuuos/+ZM/OccV9HhoH6YxRsqyZDQaMR6PE0F7D8HTDZFuqLBM6bIOJ25l6/b3ICfvZk0h8xnEpOOBVOzbZ1np1wwoyKoCq22Pz8erLNwLrTi/wSNUqpS+pKgiE5G/muQrf76ZHWTLrVBaRzARbyCIIZhUlbjQ4Xx8LEh6DySPcVvemvI921NlGofI1KwwNIfYNFcwMiubpXT+nY88FoISgvLUntqIaZTyuj1DlqcZZQCwqZvzMhuEU7dx9p5/YHz80+AfAylQmgwDX4Mvk4retMD71Cbp8bB7el7XNbfccgt/9Ed/BJxr6WxsbLBv3z6m0+nXpL51jJG2GjXG7XZTb3/72/nwhz+847ut++lCMCap2k1rz6go8d43aXKpGXIWPUt+ylq1xYHqNNX9H8OeugNXnKZDieCJEsDURKv0l4V+D6yJEKtLsFR3fs+owahJAv0kF9vEB6Y1lHBiaga/ObYHRqP8EEO3RmVccm/MVUbKruymBfbG156pcwlQ4Ode/nPJrjBtnnNaFgXyCH/w+n9GFif0OfOBjOlbjNhfqnzEiOLcTqK+mCYBu2+axJHNtp0h7xgGg8hkCr6GoUnWe8cGlv0Z1u95LzWnWe5OWHraNzENR0ANNlY4gRhralMzLj0Rw9pKn9wZ7KyP3d5+47Nnz7KyssJwOOQNb3jDrKmtqpLnOVVV0e12+dEf/VEg5VAfOHCAoigu9nR/VeCGG27gk5/8JLCdMw0wHA55/etfz5vf/GZWV1dn52u+V2H7m21EimLKuKwZ1sn10cNj1RMFXIxIXdGvh+Snv8Bn/v7t5JtfYFlHhDwSTEA0mQtZF9ZWUlWhkhQbVZRI2Dkmz5cPPQejpulMZBBSRk8VofCKBfVif2di1m4dcgU/+XN/wwZJ6a4GkCxtz9TtAS+M6cfBwpK+WOj2vzR8cyoDW3IFW3KAoVmNY9P77UL11jpEghdiDRIk3SjtYH9S+aeRLIOlgWUwAJPBJCax9FxgxcKKD8STt7N17wcYP/gxsuIUeUzT2lSVBj4KGkFiZDIaMZlMmEwm1HV9DkEbk6oW+/0+vV6Pm2++mZtvvnmWYjb/vWuvvZYbb7xx1pn81KlTT+JYvzLx/d///Vx//fUcOHAA7z3GGKy11HXNRz7yEf7u7/7uvF28IbXAijEyHA45dWadM1sjxmWFj61oF0AkixW9MGHVb2DP3M89N7+T5Y2TrFYFXZ905RrZczo9WFmDXl+IxqNGCQbCkxiKRsGSHkKxjkynHh/BCx8oTfdNY/bpiKQXXbPtQJHWndIkd1xSjOZrFIvA4Xmgc//Nz8nSXwboAoZ/cuONOAk42cTKZOhiddLF8P0muK5Vi1NNJ1na/+lcMGYv7E73kB2fi5ikD2yEqKnaLHrIAuTq6LuMWHmm49P46ZhOtkq3s4K6DqV0KU2PSAcXHZkaVD0h+tn0vCWVFtZaYox0Oh3uvvtuXvnKV7KxsTErYoFENr1ej1/91V/lhS984Sz7o9/v77AmvxZw9dVXk+c5N910EwB5ngPMfPcbGxt8+7d/O2tra8C5s5ayLJlOp0ynU0ZFSW1zgmQ4G7GNq80Q6Mcxa/4s3Ufv4Z6b30FneAoZnqEroQlyG1Qi3Tx1Wen3wTkzC2hvVxRK818KcKvsHp/t+Gv7FinSLFfAh5rxpCAEwbn8dLC8bGz23bZpr2PTXM2fv+8TVGx322rqcneqIcj8dhbYjYUl/YSQMi1QQ9A+E9nPur2adXeUqe2/x2N/P/guWuYpfzWEHa4EjYLq7nQ7uOiBKhHnhF4/Y7AkdHIgWKx26ISMfWLob42Y3PUJRnfeQv3I7bhinUyTMKSqkAUwvt4xAKqqoiiKHaXdbfDKe8873vEO7r33XoqimFmB3W4Xay3f+Z3fyYtf/GJijIQQZv7WryWChlSF+cM//MN8x3d8x6yIZb6Y5ROf+AQ33XTT7EG2G6dPn2Y0GhFCIM+btEmTcvWdpjBvFitW/DoHqpN84f1vpzd8EDN8lJ5UiAYkamOxwsoK9HqCswZj7FMQzBaCKnX0lHVK3zMGus6oSud3Cjl488QcYyiHmcr+hqDnRpkoBl2I+V8CFpb0E0SrJH3jDd9LMBljt0QUy0pcj70YPmfr/d9CyK4RM0ZNjci2BQKc15oWUl50u1wwDVG2+iDJJlEB5yxWBOMV4zMIgoaAJeBMRColTIaMNzZxNuPwlUdY3neATDJs6REfiQ6ibOtPhxBmGSBtTjTAnXfeyatf/WrW19d3pPF57zl69CivetWruPrqq9O5aVwkbeDscsJai/ce5xzD4TD5R6uK5eVl6rr+oqdwVVXFysoKS0tLvP/972cymczOQ5ZleO+54447uOGGG9i/fz91XVMUBaPRiPX19VklKIBRxcaKjoWownQ6wWpgNazTO/4xbvurt9DZeJiu36IrHmsCagPRBlyurK45en2LywVjzU4bQLZ7oCjJgp4ncKMzu5mZDk3KBSWS3GU+CHXUJnMk/m0hg1eclWeOz8ozGJojTM0K7/qbm4mNpZ7WsfN87bKpF9gDC5J+AjAp9IIQueGGG4niKG0HIdLXES4yJK48YOB7McMB1I2fpCXqVif63KmMtJ9sV7/MLW0njTqbnjqjZCZDVKh9wIeaSCBzYC10DdTTEaEs8L6m3+9ig+IqjyjUVon23Juk1Z4YDoesr6/zxjf+Lp/59G1UdTm7gQXI8pwXvehFvPSlL51Z0DuO54tAkqurq3zwgx/kda97HW9729u45ZZbWF1d5brrrrugzvblQFtVeOjQIe644w7uuuuu2WyiLexpXUvPfe5zZw+6dgay43xJJLNAKMkMXLHksJsPoo/8Nx665S9YKR/F1Zs4ytTw1UTUBGwnsLQKS8uWLBesbR/uc5hzWcy/n70F0kjfvp4ilhCbDBavhBCpMXjjHi6l87+P5NCdZ8yz2DJXMTGreNPh3e99H9qM1bSOnbuhC4J+XCxI+iLReuR2eojhhhu+B5E0fbMKwTg8fay6+4VSxGz9YyOl1ZDSqYwRtAnaqOEcO+LCJD3/PklViijOgljB28hUAyUpmOgcZKHG+oJ6ukU12iCWU5byjJ51RCfUzuH31qdMx20MH7nlo/zum3+P4fAsNoWLZg+JI4eP8JpX/xrHrrl6z5Lzy03SRVHwqU99ip/+6Z/mlltu4YEHHuCuu+7illtu4Vu/9Vv3LCC5HGjL7judDtZaptMpz3zmM/nABz7AxsbG7HvWWoqi4Pjx4zz3uc/lwIEDM4v/HNdQk33RMZGO3yLfuJfJZ9/DiVvfSa84jfgx0Xi8gdoIwQZsFwYr0F9R8jxgjUHmZmbz64bHI2lBVBpfdRqwMQRCHamrSFCojZal6b1qIlf9+Vn7dE5nxxi6fUTJEQzv/Zv37RzfC5K+ZCx80k8SbSmIi4aofYbmKGfdMTayFR1n+e8WNn97hSOIxQfBeyX4RNLePtE00WTFI8lHqdZje4HuqqG7D9wSeIHKw3QIPTxrsoU7ew+nb3s/Jz9zM9NHP08nnMXpFKse0Z3FDIKHGKjKyNv+9O1MiwojXQJhR/Ofn/hff5xnP+c5szLw1g3SktblJuler8dNN93EPffcAzBLB7znnnt4xzvecVm3PY8Y40z9rqoq9u3bx/Oe9zy+53u+Z3YOQgjUdc1gMODkyZP8l7f9GeV4glY+5R2LSxrgYprCKY8ZPsYhM2J16wHOfPw9nL71XRycPkI22SAjYJ1JmRrWE2yktyr0loUsB+OAp0TEKBG0qlD6SOUjMYIHaiN/PDZLf7hprmLDHmMrW6OwXYK4J62kt0DCIk/6ItHaiO2wa8n15T//itl3FIgGcoUrFPbD8A9fe9Wr0M7XifjnEz2hCpA3GiECamxqhLEb5xng0kblRVLgpbG+xHp6WY44h1ifIu9TwKX9yrQkqz2MSjZCJGjBQMYsPeMfMSlLgu3g8lQRpxowUgIdPnrr7dxx50PUpZ+TDlY88K3Pez4vecmL8b6kDoq1dkfpeVqXXtYAYoyRs2fPAtu+8Fbj+nIV07T+9r36SbZKgK3Gxo//+I9z8803c+LEiVmRy2g0Qgy87z3v5kf+6Y18ywu/DWcyqhiIBsbFCGcC+5cCB8OE8Wf/nlN3fJzs9AMcjVvksUpjrRYC0vTDhKVlx9qqA1Ogkoqd0jXbnuHM1EHn1e5gNt6iJH/0bg0bVaGqA7VPOuXYiDdyy1Q6ry7s6mSLo2zZw0xsn1oMnXaaOIdIyiXZfS4XuDAWJP0EMU/a28POgIKXSKEpgb8y+V0ddb9Ux/DWGMOVEgAPWgudmT36xGRm4i5fiZhAp9tcUvWUzS5FD6GGzASW80Dpz7B16nZOjU5zLBSsXvVsdPkIZycjsv4aYdbfLjQ+6U3AEnUEQMd1WM4d3/t9N9BfWuLs2Q2yLEeaJgDzUp3AzLL+apExnRep2n08beC1rmu89ywtLfETP/ETvOY1rzmnIUIRAqurq1ibAQZjFSMVV63mUJ5GTt3H8c//A8MvfIzw6COs2poseAxpJhaadLk8g8HA0V9yINWTjsPNiFwNBkOMQu1rqtoTkCbH2j1cmO4vTczqA0NzJUMOMjEr1HNyCGZhST8lWJzFS8ReygZtJnVsltomVz91cHNE4X3exF+rLcVEYVpDXTr8NEsqe08C8xohGiIaPN3csLpsWFmFfAk0h2DBKxg8ualxcYvu9EEe+tvfZ+ujfwYPf4JDnYCEEtSCOsDynK9/Jkev2gdMsaaPxWCc5QXf/E38jy/5EepiSvSeuphSTEZMRkOm4yHD4ZDxeExZljNfdesO+UpHmwXTNgBug6xlWaZWZk2ec13X9Pt9fvAHf5DnP//5wHZKY7fT45nXXc/qlUeInZxpVLpWWI0j1kb3cuD4LUw++jbOfPqvmTz8OWw9oa6hlj6FzRllUDgwHRgsO/pLOXm+rf/cjov5MuxLQ3LkBRUqH6iqGq9KMJHKMR677r/dcvs/sGGPsWWOMbZrVCbHELFaYTUimmIsZkEzTwoLS/opwoy4m6liITBS2DJHMYpaPf6WLFbPiMK/BowrI1iQ/Km7BKmzRgAT6XUzcifkWQSpKaYQKyDWaJgQpwXGCEvTKRuf+3tGWxscGG6ydt3zKTv7qXB4DE87dpB//s9+jLe85S08fPwhAK5++tW89Cf/BS7PMbYR/m8Sv2MMiZjLlAdsraWqKqy1O/Ss2yyQp6L5wBcb85b0yZMndyzbrdldFAVra2v8yq/8Cr/4i7/Igw8+SFEUdLtdXvySH2KwbxVjI12/wUHnGfiTjO//GA9/6n2cvusTrOaB/X0wklNMIoWAyS2VAwT6K4Z+35HnYJwnPiU6+imrI/VMjPi6TkFCgVoIU+n8h5Fd+89Dc4ihXMNQDlNIP/mhiViNi8bHTyEWJH0ZEAxMLBQKx93zCfEAS7pV9Bi/BsfTRHlJNwQyHyjGNZ2uYO3uS7FrkJ9HdH0nuc1VRqpinaHbyxvyTndvVZKEdWoBI3QzMHFE9cBHOXHqXp42eoTu055H78hzOV1EVvqOF33v/8ALX/BsPvrRj3Po8JVcc821XHv9MzHWoEYIAZDUlTy2dZpNEC2EMEsty+f0Qdr93q0Mt1t/+vEwXxDSVvW1BDoej2cuhvmA5vmkWtvPYox472f7P//dtkWY93uzYZvyN++T39ra4rrrruNP//RPee9730uWZRw7dozrr78+uTum61wRTpI/fC+PfOpvKU/dz/SxEywLLHugglJGRJdBx2H6wkq/R6fjWVm2WK2IxETQew+H81rT5/tcVamDUvmw7VYzUEvnz0qz+u+G5nC9Ya9mxFEmsp+anCixEV6K6W/jURaa0U8WC5K+jIjASI7RMbBiHkJsfcaY6S90YnWlIXy7ieADUCqdjt+DqC8dM6IJTbMBA/2lTvN5jSoED7lJlm9KHYwsU1JNHuH+W/6ScOdn6V7/LVz9jd/B6GyHjnR55nVH+Prn/BhlSNNfsQa1Lulbx+TYMXP7ME9s87nK3vuUztWcod15zIPBYMdxtK+7869btIHJeTjniDE1Oti9nt2W/G7s9inPow0Wtq/z622x+327nRgjzjl+4Ad+YNZtpZ8LWXWKbHg/Z+65lfXPfRC7/jC2HGM9uJBKwI2F2AXbVWwf8r6l1xGcVUSK82dpXhS2YyIzt5kqpY9M60BUA2KwJhKw7y9k5ZfG5tDGWI4wlsMU7KdmQJB2PUk1UiQ1ymiv7oKonzgWJP0ksefgax3SCqhhYtY44b6RsV1jf7j/HuTky8QN/3Mn8mwXIXFBImpsahgwU9szcdeKd8LMlYntLoSgKT0XMfT6SUMiyzxuqpQRQsxSKN9HQohYhUMdz/pjn2e0/gj3PXoXV7zwRXQOPJ3MBDY3z+CW1lDnqIlIUEQyxFhMrEFDI+Xa6HDvIAtDHSLInH61QFmHZmmc6SbPB+OWl5cveP6NMeco7bUNDkIIO5ZdSOVv/jttcUn6YFsVbjdBXyrmu6qHECjPniCevJXjn/sAk4fuZJ+JmFhhjQOXIXSIwSPOkw3ALkfyfiR3JV1xCCmL50KkfHH+aINKUtYLavFeKXzAk7KVmuKlz3jpvawwVz445iqmHKbWNbx0UWkkfDU263J4CxCJ28/jBZ4gFiR9OdCQc4KhkgGn3dMpYzflJOM/rsSXwfgtohwDKAPUlWKdp5u7PW68J0AMLVFTI8bS6+e4zJLlyrTwlHUgekcURUzqIu1HY/Z3cvr+LMfv/DBntsZc9Q3/PVdc/QyWsiU0g8p0qbSDEgha48RgjGI0okSCaioz1nPzpFuCVgFRQ9TW1to+vtYtATCZTC58iCLnkHRLhiGEmRTofKrcXkS722IXkVlHngRDRJtu7vPl/XuwYNzpIknBNE8WPcsdA9VZTjx8Pw994Vb8fX/PQbPBflch5RRrmhxzDUgO0+GEpcyS95V8ILjcp6BcTFL7UXc1l9Ddf58naNeMT1VBG2W8OkDtPVVNqixUiEaJuPuC5D8zNWuf2bJHGMoxCg7iWUE1TxmhTdBcZ5UDzSxEeEJDd4FtLEj6MmBnWl6kNo7AftRCV7cwVKjGvxHDz9k4eaOiV9SSERU6viZGT+4a1TLYUQ12QQE99hKtibMXIxGbGzJryVykLiPHT1YzdQbjkjFUVxXO5BzJA+X67Uw+9AAnD17Dvmd8I/uf9UImnYMUbplxqLGSIdhGVE2JKnMHH1NOLSAakptjF6fNyKwhzfO5IS4VWZbNCHk35rdxzvIZeTUFR0Zn1mibUrZ9jk1a1nxuhVQFasDXqQ/h2vIK083TDGzFFVnF6K7bGD9yF+b43VwxPAX1WaxOsVQY8Wj0Sdkwpiu3dhgGy4HOsoU8PRMkCtoQNO3p3nHdpdnn7WYV80SuURC1reFLjFBHqELSKA+t+kDCCW86Lytk5QNb5igbjXhSzQpeu7zs5T/LtgLI/Ek+76VZ4BKxIOnLCEMi1SiG2jgiAzbsIZCKGAyi7v/ryPEBTP99ELMG6YbxEWIA4yOdLri5O2bn/XMu2mKEXZ+CtPIhijGBftdA19HteUajmtEQyqJ1j4DGip4VBlJQhi2GpzZ5cP1h7r7zs+y79hs4/Mznc+jgUYLpMvZQe4PaDkiW/Jitz9bEGYmJpmZk7YHojEguD55sxohJotsgczm/bQWfmm0ilJjOeWy6pYjS7+V0xTA+fTfXLDni2Yd54PaPUj16B27rOHbrUbqxQl0KviIexGNdiiPYDFwG3R70BmDzMHtYtKl1yRiQXTO3Zp8e57yoAsbgY0iFT431rAGyZhUBztSiL69M951nzTVsmOsZy1Eq9hO132zzPHn+84UEC0v6SWFB0pcN2wPX4EEKgkSGZoCGo9QMQHNdko235jrtOa1eByybmPTCPA6JihpPN1eMSRkLRhui1t1b2Rvn3K5tHi1gLPRchnWWTh4ZDiuKaQosxgheFSwYG+nLBFWPGU4o713nwdO3sXTkOrpHnoHdd4x8cJSJOjypMMPF2OTKzvnMNWKbCTFAVEMQd0k9Fi872u7u0WAk9Q+MEkBTcU6Ym8bbply6fRhnkHoGBo8WJaY6w9Mm97L5uU/z0D23U22cpBtHWC1SwynbPnRl5kpxOXS60O8bso7BWo91JlWa6rZVL21Hk3MKRpr3utuCjjv80+pSZ/sYA77yhDo1H8pIMwKrnK0Nv+gNb5uYASez57Ahz8L6AaJdjOZz8ZILsPDCF/2ksSDpy4gIs5veSIU3kUq7DK0jxhUygSWzHqzGNw/CKLda/xowCGLxTbRcfKpczHPFGnt+S3n+3Z7f2QWJTScWwdmctf1L7Nu/nxOPnGJrK62v7aGYXiJ9CnIfmZ4ZMz51H+Wp+8hO3Ev30LUsHXkW3bWjmP4BsEuIdRjpENXio6Y86pii/VEjzhhEAopNKmlfZnnSamKybs20CYhawCQLVNLsQIi46LF4shBxWjHIhenmo2w8dpLNM/dx4o73kw0fxtYFAwmIVBhJAblZ/FS2ZQWthW7XsjTo0BnkFONNIKZOOs1Pol66FrOaRihJldC0zAqqlKFGQzpUG8EaiMKmt/xKIfKfRuZAHMrVTDhMqfvpkFpnRWnO0YKFLzsWJH0ZMK97oJKmzEKjiSCGWvuMjUtmEw6Na34QPvPbvXiGqePXvAkDbyKC4iNoDcFH8lzJrMWInbOgGldGa2Hp/F7M3ULtw2Lu5ra2TZULeD8GSg4d3cfaAWVrc8LGVsEsJpeMajqiLKmwhqHY2KSa3E5+5jjdU3fQu/IIunyIevkKzOrVMLiSmB0gaoYGwWtTGi4ZoREViYA2KoJwro/48XzUZVme08oLkhzoxXTnPt/6o0SwAdwkdcApHdHn9LpdJCQNQBsj+/ogk7MYv8Hw5AM8fPwupo89wPjRB5HRKQ64kk4siM4TTASTQmqx8Tt3LPRy6OSGwaBLp2sIWhDVMx0WiNFtF5QCKjvmHedqcTTv2pRDdma1aFRC9JRVancVYyIBJybFFJCNyvR+ZdOt/d6WPRQ3zVGGcpTMd1miIIgjOKhNM7bZS3hmgacSC5K+TNi2ZuO2zxIwmtTBIo6KARvmGB3rWTMbHvhtL4UPUr0G/Gr6flqFNxAqRW1AOg4ru8iltfAuCdqwevtYifgA1nXYf2iNwZrn9JmzlNNAOU7TYRM9FiXD0QGC94TNEcXmA4weclS9Vdh3hN5Vz6F38Hr6B6+lk+1DbZeAI9oO0WREIygGr4HYME1SfxNQM8ulnneFaFPFJnPHblzGs7/+vyN713uoyzGd7oCymDBYWePrn/s84twQPzd1bs4l1Zw/afzQViPECcQJuRWyvIfrOIrNUzgxdG1G3wQ6G6d57IHPc/yeO5g+9hBuuk5XR1wRS7J8SuYrROt0nKEJzgmYDJxNro3BoMvKYInMKSGUzW75Ju3vEi8pgBpC44JoXxsh6KQBHVNwMGoKFEeEaCyKXa+Ne8XIHfjDM/ZY2LBXMbRXUbGWtAWkQk0kGIOa+ATLzRe4VCxI+jIiynaes1XIgmkkQT3gMaQBv+EOcm/vG9jv9/uV+PDv9OPp0srWr1vqA/PZHCFCiULlybIcY3S7VR2p2kslNsHK9Btz3unorrt/JqqUpvQaaqyDtQM51aSi7AWqCcRCid6jURGxiNHZusRH3GiIn1aMTp5k3d5Kb+0IgyuuYt+RpzHYfxg7uILa9oimQy05BZ1knSEEdUTNCE0utYpBjZnNGqKGplBmm6Q7/Q4v/p9+jM/f8yA33XQTZVWxeuhqfuglP8Q/+b4XMy9ppOf4TmOTA7wt+2o1uTCEkkw9Qo0rS6Qe4+rIfvH44VnGW+tMtk7x8Oc/hp2epVcVLBsQ74mhIhPIRTESUQ1kmh6DzoHtQrcPnQ5kuSPPHJ0sFQWJCbP9uXjMPbDVNAp4knzOKMSAadJFgk/kHKRNgxSiGAoTTlUu+/mJrP3xlr0ynrFXs2muojT7qSXHWE8UT2iCpUIa0wtcfixI+nKhIcnWRjUx+fJM48tsrbiAY2TXqKVLIQOCJxB4S1/jyOrot6A+ktaTWmb5qOADQUuyzGGNzjo3tBH/dPNd/D7u/Kx9iKSsV2cV04d+L6PsRsox+DJSFiH1boSZhKnGgKin40tc5ohxTPXYGSbr9zJ64NNof5V87TD9tSvpriSy7h+4BvI+uC7kS0S7hDeGWmJD1uA1FZdEjaQwW7vjBgmGfm75qZ98KS/+vhs4fvwkx665hhe84AVsbW3R6W5XHbY/m+VEa7oCuURyCx2R5GOuJlANIQwxcZPp5ilG6+vEyQZbpx5Gqy3idEg+XaczPEXmU1ZEUNh/cJm6TuXpZfRYA67JPDQGBsspW2N5n8P2lymHY8DjQ0QJqNYXIOi9cs7P4w4yqcXVtKxTVWlogs7N5MkYUrqkOoK4h0onPzu2K3+xaQ7pljnMJkcYm/14MyBISt9MvvhmNqMm9Slk4ZW+3FhMWC4XWr2DFnPBnvmPf+u3/j1RkvujH7c4VN/NwXAfq+FhGcTT35/r5A0Gf31taG7eZD0bcVjryDOwEjBWsMjMcpZdAjfnWtQpWHWu9Ee68RWIswIQGrU+A8EmNbaipiw8ZZ0qJn1z/5qGDEwTBCs8lAqFGGrbxXRXyZZWyTpLqBvQP3QtpneAzmAF019De/sI2QDN+sSsQzSWqEIdQ+r/aJNoE2oQhVy23XxhdwIAACAASURBVBghNj5XFCOWECJZZpObZBfxRRLJ2Fji1OO0wtUFtthAJxv4yWniZIs4nTLdPMV4eBzqTYqtx5BQIGFKjtJtiEpjIsAoKX3SOsg7kGVJ6znLoNeH/pKbxSm20/ja877dsFba8dP66mf55Hun2s23uYoCtSpFiExLj4nQidDGJ5VmXzWnlu4dU9v9mc28/1+33H7W7TFGchWlHqJiLemlS+Sc5gFx5+NhQdSXDwtL+nJiPqlZd6aOztejBXGUTXnthh7CSIUkYdG/6sf1s1Ym/zdSvWDetx1Vib5GY8RayNWitinh1YgzlgvfOk0kam7/thG3KyRUZu9FDGIgd6mpata1ZGVNWUTKGmKdyFlaQlDITPqsYyJBSkK9QdgcoRiq6Bg+dB+xs0zeX0Y6K8R8GdNfo7e6n3x5hbzfJ89z+nlOp9cncx2Iya9vBdxsxw1GBGnElXyMBAmEIhCjJ8T0OtO0VoMzBhtKitE6m4+dZHr2MfzW6UTS0w1iWZCHHnmmOLOJtVO6UmOMn01VWuuUJjXcl8lKdS6lOLou9JYSQee7Hxg7Hhxz5NxcngtltrU++71mTLERRvI+YHXnd5K7QpBoieQf8dL/mUL2f3ysh9jiIFt2HxNZQWM3FcucMzbS+y+jpMmveixI+nLhfAN8F1oyM+KpDWxlK6g53Eju53hjPtyL6/+LldH/mWm8UTRJ2cxSVCPEqFTRY4xgRXHGEFMkbK54ZNdt1RLERbhFRAzzOQUigssMxlqcE/I80KlqyiI1F9AaQkj8HrZd1tgYsXjQVJbdxaRgVD2BzceIJqPWjFqVkUK0gs0y8m4Hl+dk3R55nmNchrM5TgzWCcZkZJnDmGyW1QAQQiQET4gRXxbUvqSuKqqypKrSTkZfEuopoZqQxUgfxUmAUKLeoboPqxZxJcQKom+KW/KmACWmKsDmWi6vQp6npgfOBVynJO/onLpf2HktzufamF2XC092dRZ01aapbaSqa0TBhcZgbx4iQZqWbWoimHcGzV9eyNo9Ez3GVvg6hmYfU62ojUGom21XSQ/6ccbJQqLj8mFB0l8GMBpTHrVAIV0i+5OvkD516LOqx+9YjQ++1FC9WiX+b1E1x+xMfYoKEjVF7RsGNybdNFbSdHlHbq22AvGNpXxRiE0uGCBCY7RirCXLElmHCnwdqEKa9lc+uUM0gEkRyZnrxUpEY4BYNOlhAj7gBAbOkHVy8IY41JQdoUplLSKWIiqqEdPuhJqGoM8jRaohbaMp5+w2cQExaUZC1FTEQSJbawHTJYQpIQjKBExFaNQFowjWJc2Tma8bOHx4FZelh4bNlGlxBvB43whJNRfhCeWFz+nBzD5qHniBdP5ijMTQTJKaGQ2aHpYh/awMkv9eIfv+j6k5eHokhxnJ1QzlSqYyoGaLiMeIwcZ21rc9Phaxwi8+FiT9JcCeedSNHzfiqGSFM26NCYcp4jWgd7PPb53M2fo3lXP3eFu/AmGfMGdRk25KKzRxv4hJKpNEkg5I6os4Z/Nok/J2Hr4wIsSmP+G25Gcy/TVuPwhQg4hJDQCy1Gy3i6Rpdw1V5SlLTwyCRkObCh0BI437IaZUQGfTOkUiNnpEm44yTaxV23xh0m7XgXPS1ITkakC3g5pm7nez2EBbTKLbPuCg2+dMTSCVEoHaGsVjJe1flmUpM6NX0elCp9NBVTGmBuokVhRi475w7H4Q6vxBzO/7OdeiCXKSoo9R0/XwYWcrshigboWlmmNK34cojloAjae7Ib420H/TWfvs6Wl7LWO7xtQMqDCUtgAcJjqkiUHMj9UFvjRYkPSXCLPB3xaZAESTiFodXrsU0mdo+nTthDN6jEqqcTTF641M7rIy+nWr+iykLZLZDmBFUiDPBBLxNIUHVpI+sSWRapQmC3lOjvMi9rj5e44Z24CmpFZJuU2awkaEHoa6zinKmqKoqKsIMRFNDCkPWH3j+pZEps6kyregqdjCChjHTHRoVu/SECacS252l2aEbQgLtoN8M7e8gDQGeZxbJlJj3DiRsvWIgV7u6PV79Hp9XBbATFBKQmjInJ153Dswm7k02zr/8/G8CI0Ma0vW0KbbNanQbSZJuzM040H6n/Pkr6jJ3j2Uo/G0vZYz7hhT26c2JlUhAkpL0NtjYT6WssAXHwuS/lJBGsIRDxhsTIXH6cbyoJN0UxjPRt5n3HsOS7rKfn8iLIf1P8/Zuqero1+3OrlRVGd1czMabQhNmr+pE1GLCGoU6wQVs5010JLwjKi334uQmKtxc6T919m3gJmZmvSDY2OFg2Dp9IRO19HtBnwdGpKGGFLbrZlWSExEEzwUocl3mE050rNEIzsV3eYDbXPYXWihMhcmaIndpu31eo2r2cyq4HFZOlSTeayxmMzgDI2v2ZJlMZEzU2Kcy8COoLtTH3bs15NzGCQLOuV8x+aShCYDvLbbHcI7zQNAhaDKO2sGr9w0R28fmqezZQ+zYVeZ2pzSxpQzrY0OiTZSiJK6qzB3/uOT2/UFniAWJP2lQptHLY1PugnOiLYZHCnlSU2kkJyt7Chj7YN2idpnKWx8GjZ+XHTj5TD6V+BXTRKPRmii+LN8qyblisa9YANqBGuboJNqY/01LhANiGmtKdnezx3vd9+xO33bifwbc14EMULejbhMGn4XIGU7aBQCgkahDp6q0pQtElLGCGxbuIncafZ7pyXdzv41NpbxvLHfBvek8QcbQYySi5JlFkMgs5LK7i1kWVouNmW0qAhKwGiNDwURC3ikqeho98M0Frvuys7YFkaau/jozjgB7JoRGLS5RdvKy3pXtxjfEHVt0zWvaWYeyb9+NsAbChn8h7EcOrthruFU/gyGdj8BTTOsdkWNop20pjicO7N6nIyTBS4PnkD0YoGnFM20fDuH2syCNclLS/PqsHiWgSWYvb7p1V/nuqy/yMrWqzuxfG7eEFgwc1WHTcqUaHIDWCeIKNYYpHHamvaVZG1Ls0NtKTaaSkhm2RNqGsGeMHs/j7TeuK0pMk/qUbf9ypK22qbFeU16JaGWJu9ZZkHFmWj/nC925rpgJ0mb1iRmzpcOOCM4ZxtSTRWNMQZ6eYYVTaL7oo35kixKbYg9dW0JqMb0UJsjMdtmPO4isW2LXuYWpeOV5lynfU9Ls7mejaijio46sKM7uUZN5z42zRoMeAcVQpDUgacTqk+JulfVrLx7LIfDGfNMzrhrONk9TGH65B6cRn725T/HLKc/Gmb+c/E72eF85Lwg7cuOhSX9pUZj6e70+MZZJVdjp9FeqgJP472gAs7Y6/yy9v9iWR/8bIZ/pRL/Z0G78+uf9yn6CPg0VTaNK8NYcNY0xCwpAyG2lrHMr+qcXW+LQi6MZj2is3Sw1q/cKnSkQpCQ5DqNw9ld1XSz0vD0w1nQTB2J9ELzmWnIq33Epd8Zy6yDtRjFWUfta4wx+DqQd0yjdx2bK5BetTnQNpdGjM7ppswHYZn5F2ZH3T7PZp/sfJBpq6oHswdPqP3ccqi9UHvBh0AMzfGppsLspgKwTb02SYxpEuj+8cis/bpncF/BQcZyhE15Olv2IIXNU2e3xio2NG6MeX9NO2IWBPxlgQVJf6kxb2CyXRm4s4FnBKp00zb/psAIOJF9A0VYJfdbd/V09FMR/t4Qfynin5U8lbapS4kzF4Vvsytaa1ZT8YczadpuomCsIkaaX89Ne8/RL4a4R6As5We3j5pmujCfmrHj+Hb6mWfVksqctZq2MSPImV+g8YE0y1Uj2NaS356ftxarnZXyeXKXXl0nuS4a83S2zXaf4nyesOzM0zg3/0Fnv2l/stM/3u7nzvPQviuK+YBdKhePwcy+33bubuc9M/1rhTxwu1K+dmL6f75pryk27NWM5DAFB6lYoZIcEz2YKh1H66KZ22L6/x4B5LnTvefnuw9kgacMC5L+MsP58yt23jqt/3HTHgIiXR7FSz51Mf5hRye35HL6FZkWP2qVfsqJhlZ3IYq2f6Z7LDRZIQLOaHKFqGCtadwgFmmKJaRVqWvlL2fdB1rLtiGOJ+NIk7iLoDk/SbDze7O45i6fuWlzFWd+lvmzuddZbwmrseDnXEcXgxQ4TWp0ItsPunluni8Jn5F0vSsneXekdMdv03lWYSjI/1tL9zcLWbl7wx7m0exaNsw1TOUgtfSbGUd6ANqQXBpzSTJz24zb1vWCgL8ssCDpr1S0nIhh6NYo3TfS0WfiYmTNn7jjKv/Jn1qLJ9+dBX4ReEEwRvzMZEpRe9P4wqO27g/Bx9QhpK4VMamwJM8dztnWJk3bbbff5k/PnM8NubXVFNruJdu+T7bzl1u3xzn5wfMkq20+neGcOujzaXnOmi3Inp9v40Jph5eOmY+5eW/FEQnNJCIxX1RBSa6f4cjvJL/dmSuxzW9v1jc7hgApbfpjUezrShn89ZY5Wh3Pv451d5SxWaMwK9TSBQWnRRJFijkz21kjkRyTFK7PPZh5otZdr3vs7wKXBwuS/oqEmZuiGkrpU8hREE8WI0EcAz1ZOI1/Foz/UBb9vwzEn0T9YaEta46J8FRSEwG2+a/tPqIRapRYBowPWOewxJn2MjS5vtK6RaC92UV23d2XfDPPp2bs9JHO9EuEPUi3WT4LTF5ow49P0LMc9EuwIpWUJ44aQqPcF6AJgG5XCNK4Uc7RZW6PM87vo5l1L484VHjEi3tT7bLfK2RwcioH2bDX8Jh9Blvm0I62ZKl9m2+21yfd9i0xx0XBypc5FiT9FYN5WjbbnNdIRtbiUjWheipWeMxdTykDls3WI70w+redWNyUUfwby+jFVoslI40WdZO2N1tzS4BzIpQ+poCdaXoUOjQ1KxWlBpy1YHe2wNp9058vPfiiyGFmLceL+s38ctnDVbAnZqJH879N+tyG87s75psSmLlTqZp6CGqEQCC25Bwb11JMgVJtyspn7qe5B5G029PYFCQZamOGlen+RSGD/2tiB5+eZEtxyx5kKE+j4BAhrpAF11wfP9tLbzxK3nQ3BysVhgrEX3IrrgW+uFiQ9FcDGqKmSWerGbBhj1FLn0rOsCRbcclPPtbVjX+emeqGjOJfO+U7DOSzKFTTUDW2gcFmfdoEyoI0FW3SpPLR+qQhupQ6KCgxJn+wto1Sm+DdXi7Oi0abibDLtbHDot712fZvH4eB9giEotupiczcFM13d/mU24wSaYp3ZqvAYMQwKiaz/G7YThlsc6mjcI4lm5QM54/PUIsrK+veX5juGwqzcvNYDpZDt8bIrTGWgwzNUYKukEeaBgPJ1STEJD2g4KXNXklNJxYE/ZWBhUfpKxJmx00dobmSEavbN3wGvOk3/xW9sMXAF/Q4Qdd+gVzW17LAD2XB/Euj5psAJ40bQ9Tg4pzrw6TpcG1JVqUoWYx0QuMtcUlESQTEpJZQYpo87Ca9r6kd2XOw7fZG7CaN2fuWM3e7pC91BO+2hGeBxh00mUh3XhtDQJtS7FbzufUza5SUhdFaycqO8nUjjRrgPBqCVrbdKS0xy+xBaVBcXVnz0dKa/zi1/XeNzMGtsTnIWA4xNgf4mZ9/E+Vs/a17gx2iSO1hx+Zh3BzRbD/OGxCcX3ahwO0ClxULS/orEnHOUzln+c6WprBSAIbmIDV9PAWlOrqmoiMrG7nG/5Th/8pS/YjV6l9YqudZ9c41yQRZSDe6aMTItvOjtWZT9SJJeU00ERHJ2jZBMTb18nOayNuch2SNBSNm5irZQS07/M3aHO/uM3GJ2PVUmFm/M7Y3s63NcphjTK28NKJxu5hGxRBCIu2WoIFzyqf3KqeO7UZ2BQrTOTZEMXWQ/JOV9H+vsP2/nJj+mamsMeEQEz3A2AyoGFDC/9/e+f1Icl11/HNPVdf09vauJ7PJeL3GtmyFHxIgfkkBYSGBhBSJF/zKC+J/iPgPeAPxHPGCyAM8gYwRCEUoD0FKIC/EkqXICkSOHSeW1zs73pnp6amqey8Pt6qrurZ7Zta7652Z/n6kq7rTU919u7rq26fOPfccYrSHjssqLbW4IrzuNIEWFwKJ9KWn7z1OtHIWCJRuSnBjvJWcxClbYZciHlLwgJHdvztyH3995Pb/acThG3kMf7blw28VPhSOwCj4RR0714h3a4ilpD6Gcylyo6IX1tfeUQPja416t7EhA1HIomGWWkrQ1H0uYkZXUWZNtMYjEgcx3QufsoMQPD527o1um/YMoatUkz6RTz7m1p2xKkpj6cezvzin66bJydbfbidVxvcql//t3Cb/cmi7n8y4wyy+SOl3Kd1NTqygsrJJ4P+YyEK+8EikrxCtBKSl5akkV4hjaheImeH9mIovkruSnH1Gbo+RTSjc3sdbcf9vxhz+Y7TDr8LsT43ydYOpNSHPy5k82qC6nBhTIp4YmiXgoUn8E5PRenwSF0vOV5HFmNKSZimBUSfCrsm1kT6VM2sswea/n1msbdlF0i9hleWczOaLCtsPLTiJjc+9tZgfChvsvcvaCcaBu4Hkc/auOPAU3/Zu/I0TG39zbuP9Y9vmwG4z4wXKcAcft6kZJ9dFnEEclLR62kjInwkS6UvOqtv9JKhGhjHyBbgSDGqDmiJVFTEjY8yIHYp4yDju48Pde/CTv3fuk7fIDn83uPmfVMZXsxBvW/JaLMLbFmFm/ZC7RplT7v1OsXyIrEvfGer03KpODpqFXi4M3NaCbu4PHteSHjgGPI7gQ+fCaDy6sCoE2y25YGLjylna41xC1k7gEQN8GMn/vWLyD8du578O7PbsyHaY2TZH2XPMbUrlxoRYQCzJQ92MpIt0CTwB/TzrsLZRJw99EvG0kUhfQR5aS9dEfSTT1PDOiDbGkVOFm1Rs4+M2kSm1y5nb9LAIs2+O3Pxbo1j/Um7zP96KszdGcf4rBdU4i303QYq1tTb9Hq2FGReCuPA3r8uz3GMR0eBbcV7+f/aYqT7jQM7ShJvr/M/9H4EVPwhdFE27OVum+hOEANHZMdjbgfzNislbFdMfzt12feR2OXC3ObQvMbNtZm5C7XK8gaMmiynGPQ+Wjm0c5DcRVxKJ9BWiH8rVJgiq8pIkok12vSYcK2ldKuNauZQNrooFR+4mzs0xB6M4rwu398443n/nut/7+iTuvz4Nn75RuPIPDPeSUWftopilfBYLwetZna5bGHJuXFi2Zl0XMbF4aOEfXvcavX5cHlM7rsV+cejdXz+us+gmJNOSb2/UtfFj7/iWp3jTM/nuCdv35/E2JTtUcZu5e445U06YUDGmvTyz2Ezg0nOjNAKdrOg07nV3VeJyI5G+YrQZJ9JMny3Kc3lSDLRZoPUzQ2vdNhXLGYObAkm8MuYUcZtJ3GfOrXvzcPetwL1/vcb+KyOOfn8Uwx9l2G8b/g5xUb7voYUfoWdhR9eOrxcL3ItVTmWfuhWGSx7cyGKyzK25/V46Fs37OUj1+gJkvVwcKZqi/0MSeuXF2gGFpfeLbk0YYD++vHvcY+Gnlcu/M7fpv81t8u25TT4obexrJtRxh5OwSxVvUTOlZkJtORU5vsnnkZJNJYF2izC73mdY5BEUVxUF2lxV3GDbErttF0thPQ9nkyApKwH467/6C4pQMvZzJnGf7XCX6/FnTMIHFOwXRQivjnx43UL1h1kMX8kjLxGtqBfZ6uqU79iM2mh+NJLg5DFVtLY1CuNICzOStQ+V5UTyLq6Ymqw/kzf8qC7Fd2cBxlVOUefkPj3fW8BbTW2BaIuftsEAuqOSNZOWbYrP/mH1zY8cGFmsT4D3I/l/B6v/I1r9nbmbvLdnX64e2Mt8mj3PsU1Jxyfnz7/2l817u/TZmu/CL+KYk0jj4iKWujs6RiCeIdBnyPc5fdEt8kl//siSvuqc4sJdvkHuQtH6Al+5McGNqbMpdZgSuMFJnHBsI8Zxv8xceDez8C4hfiOP9Z08lr+5Fea/V8T572Sx/AVc2IkuWLtIJjgWZZlC9zbrh9/EDrdluYILnaVOSni/zprufMDpue0dhpGiAoNrFuu0Yjyw/BdHZRG/TPpxC906jzoVldkDe7dy4+8eu+l/Vm78P97lP6ut9tHmzO0m+7zGfvYKB7ZL6SYEq7EYmFkzwCYvdvvNpJqPYZG2dTlapJnYRCK5CUikryqPMr/WWmvQ84OkjcUUW1xRNGJ9g1nYYSu8ROZmxNEcb8bMjWpz5fvX/f33t/1H//x89d6Nqf/kVXP8Rhb4ysjza1mw18Bu+awelfmyv3rV+INBaX0XQyCjTB5Yo8nc11THXqNWWWgiICxQj0p8bPJyW9/9svSRu2oy7eMuuVlGHq55ypHnnsf+r7L8+1j4XjS+761+78imB3fdr3NoL6RImixQW6B2BSdsU7oJnpzgSozQLNmmWbq5JpyuV0sy5QbpBhxc6EJQej7wVTwc+CcuCxLpTeecDq/gAsFygssorWDmb+BcCW5OlcHMXQdXc832Kd2NaCF/MGf7bWezt0ch/F0Ri+lW5OeyWP6ixcNfDfHBLxvzL0e4E+ALwNbSaJqIiNYHbT1fsGNgWcaHF6lA48917f+TyyR9luVoizXHIuKYE7kf4aee4ofejd+pzN6BybsV0w9rK46qLMTKAlUWOHK32Y8/zxF3qFygdoGqsfy78TVL9+NALs+cAe2Wj7d9sRlIpMWpJDGo6VKTulRwYOSwGChCiinJYk2IOT7scBCnBLvNlpvh3JzMhZgzPiiy8geTePcH1/nJm9fd/2aFK2+GyK7F8DLwKvAa8ArwooMvAdtZ4DqkUIfoWBQKbKL86E+kraTxJQ9FzdJi7RqYR8dRgPvBcRf4EPgx8COL/Aj4IJJ/7JkcHGW7fq94mSO3S8VzTT3BlKGuskCIE0Ynt8niJIWhhBpGM4Krm5zNzTFtFhothPupLhI5K75DtvVFRyIt1uPSRJ8jkIUmMtocNUa0JjrapQrTWTRwOZ6cuZtQZTfJYo0RkhVsxlaYcz1OmEfjhNpvsX2faPeBd3vvmuHC2EVuGOG5LNY7Efti7fIdYCeP9RfGYXbzWjicjkI5Cc6ukeYXR/2b+kaTq+hC6V0+P3E3ZxWTQ8/4U+9sH1ffw4V7Afais73g2CfaIakyWYA0LeciEHNqN+HAdrmbv8qB7VK5CTG2CfQDPgtk3riWTRh5w7uUfa5ufMtZgCykH5SIUZnhsacs0OIqIJEWq2kX3rkSC0YecnJvZIzwznBZJLjAqJGz2uXdEmtLMQc+pgiGLMAo1FQZHMUpJ7zEPreaMMEuOX2DB44Mjhz1R1ks8Qalm5DFmhv+Hreqj3ixfo/C75m3YMHSuy78sQurOQQsRE8ejrkTPrWXeWAvMM8meKsbn27eLbIZ+HONGnNl8klTULkxngLv8rQgqEns3y5EDA6ORzXHo3Rn4bOSeZHC+qzMsViQBWui1pOwC3EWEmmxzCAzW4uL1kQg5CkkrSmz1dbOS0EKoXl+SgkXm/9Hl6IwwPCMgQLYSblFyBevMSSJ5JyAUdqYLNaUbEO4TpEbx24n1FaHtbOGrgY3Z+5usm+v8cC9woNsl7lNUxJ8R3r/FS6B5Putca4kutDsR1r1t/jEgWDL/vEqS5OwIdaLNK9plWdORo5rcocEkhvaRdfViRRiBZp+EKtZERCbjGsbhH6F5ScsogyGL7TIVzF82RVv1j6zn4QoveaIJPFjmnp/58CTivbWzdY3GQKXx7eKc8QYD/Mz9+Mo+uGMIcWlDw9PaPdj8A8hhDgXfaERTwxbLBxiuQkxQKeFEM+SdStChWhQ/hUhhBBCCCGEEEIIIYQQQgghhBBCCCGEEEIIIcRVQ4tZxGXjcc9ZLRcRlwqJtDgLN+i7QX9VO+v/q/Zb1V83hsclntGPZ/TPaqftu+o1hViLRPrqs04grdeGfw8f6z/nPELLiv66sV0WzhLT84p928KgHwb9sObx08RfXEEu00UiEkPBNFJCuNO2Q+FdJbKs6K9CgvD4PMoxXiXyqwTd97Z+8NgqgReXBIn0xWFo4WYrWs7D4ts+p32N/raPLsyrx2nfc5cNdVnQ/YpWs17QxTNGIv350RfhVnD7rS/CQzcDLH9XunjEZ2XVeTR0u/TFu9/6VrrKynxOSKSfPI7O8h2RhHfU6w+tYJAAi4vFOiHvi3i/jkLbb0Vc5/ATRCL92Wmt4laEC1aL8TCdu05gcdkZns+tgLfWdwWULAt460IRj4hE+vwYnRhv0Yly66Loi7FORrGp9K+BVrxb4T4hiXcr4HKZnAOJ9HqMTpDHzXZEspAlxkI8Gk2VyoVwt6I9b5pEew0S6WVykiBPmm1BZyVLkIV4srTXVevjPgZmJPGuT3neRiGRTiI8BqYkcR41j0mUhfh8cXRW9gw4JFnZG21hb7JIG0mYb5JEOkPCLMRFwZEs7DnwKXDEhor1por0GLhFspxlNQtxcWmt6yNgjyTaG0X2rAfwDJgAt4Frz3ogQohz4UgT9xM20F+9aSJtwPMkS1rWsxCXi3Z17iEbdP3a2btcKdql1xvzBQtxhYh0E/sbw0Z9WNJt0ozN9cULcdk5Ik0obgyb5u6A5NPKST4uIcTlIAIHwD02LMpjE0U6kKzpmm4FoRDi4tHe8Z6QxPk+G2ZFg277c+AGKV56jMLxhLgItDHSJyTr+ZANi+jos+ki3dKuOrzO8qpDLQcX4unTXmeBlHzpmOR73vjVhiCRXkVG8ldfo8vfkdNluZNoC/F49JMt1XTCfNz0N86lcRoS6dNxJIEu6DLhtaLdT9ov4RZiNf1rpE1bWpKs5DZ1aY2uobVIpB+NNtF/m1e6bcorLTad0/JIlzycR1rXxjmRSD8+/Qotwyotw3JZ7f6gk1RcPobnbr+c1qqKLG09RJ3rj4FE+unRLzrbrnTs1zxsH1e9Q3EROE9dw35R2qrX71cYF08YifSzYVg5fFg9PONhER9a4sPvTheIGLLuHIksuyWGFcL7gtyvEB7Refa5I5G+uLQiJyhP8wAAAQ5JREFU3m/Zmjbcz7HsG4f137UuuovPWd/dUHzDoPk1bbifzoULiET68uMGbZWwr+pbb//+dmipD8+R85wzm3yxf5bjMxTZth9WbPvCu6rfF9yIrN9Lj0R6M+kL8Kq2TsBPE/Z1jRX94TiG/XXjfRqcJmDxjP5QVE9rqwT3tO2qdtZ4xRVEIi2eBKvE9rTtefZZ97rD/qNyHuE9a3vefYd9IYQQQgghhBBCCCGEEEIIIYQQQgghhBBCCCGEEEIIIYQQQgghhBBCCCGEEEIIIYQQQgghhBBCCCGEEEIIIYQQQgghhBBCCCGEEEIIIYQQQgghhBBCCCGEEEIIIYQQQgghhBBCCCGEEEIIIT4j/w8hxEkzwOG6DQAAAABJRU5ErkJggg==;" parent="7" vertex="1">
                    <mxGeometry x="291" y="83" width="178" height="178" as="geometry"/>
                </mxCell>
                <mxCell id="24" value="&lt;b style=&quot;scrollbar-color: rgb(226, 226, 226) rgb(251, 251, 251); color: rgb(63, 63, 63);&quot;&gt;&lt;font style=&quot;scrollbar-color: rgb(226, 226, 226) rgb(251, 251, 251); font-size: 28px; color: rgb(63, 63, 63);&quot;&gt;00 :&amp;nbsp;&lt;/font&gt;&lt;/b&gt;&lt;b style=&quot;scrollbar-color: rgb(226, 226, 226) rgb(251, 251, 251); color: rgb(63, 63, 63);&quot;&gt;&lt;font style=&quot;scrollbar-color: rgb(226, 226, 226) rgb(251, 251, 251); font-size: 28px; color: rgb(63, 63, 63);&quot;&gt;00 :&amp;nbsp;&lt;/font&gt;&lt;/b&gt;&lt;b style=&quot;scrollbar-color: rgb(226, 226, 226) rgb(251, 251, 251); color: rgb(63, 63, 63);&quot;&gt;&lt;font style=&quot;scrollbar-color: rgb(226, 226, 226) rgb(251, 251, 251); font-size: 28px; color: rgb(63, 63, 63);&quot;&gt;00 :&amp;nbsp;&lt;/font&gt;&lt;/b&gt;&lt;b style=&quot;scrollbar-color: rgb(226, 226, 226) rgb(251, 251, 251); color: rgb(63, 63, 63);&quot;&gt;&lt;font style=&quot;scrollbar-color: rgb(226, 226, 226) rgb(251, 251, 251); font-size: 28px; color: rgb(63, 63, 63);&quot;&gt;00&lt;/font&gt;&lt;/b&gt;" style="rounded=1;whiteSpace=wrap;html=1;" vertex="1" parent="1">
                    <mxGeometry x="331" y="310" width="249" height="50" as="geometry"/>
                </mxCell>
                <mxCell id="25" value="" style="rounded=1;whiteSpace=wrap;html=1;" vertex="1" parent="1">
                    <mxGeometry x="150" y="370" width="470" height="420" as="geometry"/>
                </mxCell>
            </root>
        </mxGraphModel>
    </diagram>
</mxfile>